<?xml version="1.0" encoding="UTF-8"?>
<svg width="13px" height="17px" viewBox="0 0 12 17" version="1.1" xmlns="http://www.w3.org/2000/svg" xmlns:xlink="http://www.w3.org/1999/xlink">
    <!-- Generator: sketchtool 61.1 (101010) - https://sketch.com -->
    <title>B193B71A-BF48-4195-A7F9-D51C82930247</title>
    <desc>Created with sketchtool.</desc>
    <g id="Pages" stroke="none" stroke-width="1" fill="none" fill-rule="evenodd">
        <g id="SDKs-&amp;-Tools" transform="translate(-32.000000, -148.000000)" fill="#52627B" fill-rule="nonzero">
            <g id="Side-Nav-3" transform="translate(30.000000, 0.000000)">
                <g id="api-reference-icon-48x48" transform="translate(2.000000, 148.000000)">
                    <path d="M12.9954118,4.04267391 C12.9932263,4.0099339 12.9865401,3.97762095 12.9755294,3.94658696 C12.9713235,3.93476087 12.9682647,3.92367391 12.9629118,3.91221739 C12.944302,3.87200659 12.9184044,3.83533547 12.8864412,3.80393478 L9.06291176,0.108282609 C9.03044107,0.0780166337 8.99262959,0.0536103283 8.95126471,0.0362173913 C8.93879346,0.0311838212 8.92602624,0.0268647453 8.91302941,0.0232826087 C8.88188984,0.013063135 8.84949388,0.00685034149 8.81667647,0.00480434783 C8.80926698,0.00275318105 8.80173288,0.00114864507 8.79411765,0 L0.382352941,0 C0.171185243,0 0,0.165459984 0,0.369565217 L0,16.6304348 C0,16.83454 0.171185243,17 0.382352941,17 L12.6176471,17 C12.8288148,17 13,16.83454 13,16.6304348 L13,4.06521739 C13,4.05745652 12.9957941,4.05043478 12.9954118,4.04267391 Z M9.17647059,1.26169565 L11.6946471,3.69565217 L9.17647059,3.69565217 L9.17647059,1.26169565 Z M12.2352941,16.2608696 L0.764705882,16.2608696 L0.764705882,0.739130435 L8.41176471,0.739130435 L8.41176471,4.06521739 C8.41176471,4.26932262 8.58294995,4.43478261 8.79411765,4.43478261 L12.2352941,4.43478261 L12.2352941,16.2608696 Z" id="Shape"></path>
                    <path d="M7.78164706,5.93632609 C7.68663553,5.90172895 7.58128872,5.90507766 7.48883431,5.94563385 C7.3963799,5.98619005 7.32441037,6.06062321 7.28879412,6.15252174 L4.99467647,12.0655652 C4.9588822,12.1573991 4.96234678,12.2592226 5.00430631,12.3485849 C5.04626583,12.4379472 5.12327454,12.5075097 5.21835294,12.5419348 C5.26148439,12.5571627 5.30702275,12.5650404 5.35294118,12.5652176 C5.5123318,12.5653714 5.65510044,12.4699392 5.71120588,12.3257391 L8.00532353,6.41269565 C8.0411178,6.32086177 8.03765322,6.21903826 7.99569369,6.12967597 C7.95373417,6.04031368 7.87672546,5.97075116 7.78164706,5.93632609 Z" id="Path"></path>
                    <path d="M4.93235294,7.59567391 C4.88705638,7.50792119 4.80753175,7.44116824 4.71129121,7.41011477 C4.61505068,7.37906129 4.50998663,7.3862539 4.41923529,7.4301087 L1.36041176,8.90836957 C1.23063563,8.97088651 1.14861352,9.0989787 1.14861352,9.23913043 C1.14861352,9.37928217 1.23063563,9.50737436 1.36041176,9.5698913 L4.41923529,11.0481522 C4.54149368,11.1071709 4.68704069,11.0986638 4.80105017,11.0258354 C4.91505965,10.953007 4.98021085,10.8269216 4.97196194,10.6950745 C4.96371303,10.5632274 4.88331721,10.4456492 4.76105882,10.3866304 L2.38435294,9.23913043 L4.75914706,8.09347826 C4.85077208,8.05003333 4.92062524,7.97298657 4.95315669,7.8794892 C4.98568813,7.78599183 4.97819774,7.68380414 4.93235294,7.59567391 L4.93235294,7.59567391 Z" id="Path"></path>
                    <path d="M8.06955882,7.59567391 C8.02418656,7.68339009 8.01674508,7.78494029 8.04887306,7.87796208 C8.08100105,7.97098386 8.1500638,8.04784881 8.24085294,8.09163043 L10.6156471,9.23913043 L8.24085294,10.3866304 C8.05185786,10.4778655 7.97516687,10.6999128 8.06955883,10.882587 C8.16395079,11.0652611 8.39368138,11.1393872 8.58267647,11.0481522 L11.6415,9.5698913 C11.7712761,9.50737436 11.8532982,9.37928217 11.8532982,9.23913043 C11.8532982,9.0989787 11.7712761,8.97088651 11.6415,8.90836957 L8.58267647,7.4301087 C8.49192513,7.3862539 8.38686108,7.37906129 8.29062055,7.41011477 C8.19438002,7.44116824 8.11485538,7.50792119 8.06955882,7.59567391 L8.06955882,7.59567391 Z" id="Path"></path>
                </g>
            </g>
        </g>
    </g>
</svg>