<?xml version="1.0" encoding="UTF-8"?>
<svg id="Layer_1" data-name="Layer 1" xmlns="http://www.w3.org/2000/svg" viewBox="0 0 17 17">
  <defs>
    <style>
      .cls-1 {
        fill: #52627b;
      }
    </style>
  </defs>
  <g>
    <path class="cls-1" d="M12.2,5.2c-.2,0-.4,0-.4,.2l-2,5.3c0,.2,0,.4,.2,.4,0,0,0,0,.1,0,.1,0,.3,0,.3-.2l2-5.3c0-.2,0-.4-.2-.4Z"/>
    <path class="cls-1" d="M9.8,6.7c0-.2-.3-.2-.4-.1l-2.6,1.3c-.1,0-.2,.2-.2,.3s0,.2,.2,.3l2.6,1.3s0,0,.1,0c.1,0,.2,0,.3-.2,0-.2,0-.4-.1-.4l-2.1-1,2.1-1c.2,0,.2-.3,.1-.4Z"/>
    <path class="cls-1" d="M15.8,8.2c0-.1,0-.2-.2-.3l-2.6-1.3c-.2,0-.3,0-.4,.1,0,.2,0,.4,.1,.4l2.1,1-2.1,1c-.2,0-.2,.3-.1,.4,0,.1,.2,.2,.3,.2s0,0,.1,0l2.6-1.3c.1,0,.2-.2,.2-.3Z"/>
  </g>
  <g>
    <path class="cls-1" d="M2.1,1.5c-.3,0-.5,.2-.5,.5s.2,.5,.5,.5,.5-.2,.5-.5-.2-.5-.5-.5Z"/>
    <path class="cls-1" d="M3.5,1.5c-.3,0-.5,.2-.5,.5s.2,.5,.5,.5,.5-.2,.5-.5-.2-.5-.5-.5Z"/>
    <path class="cls-1" d="M4.8,1.5c-.3,0-.5,.2-.5,.5s.2,.5,.5,.5,.5-.2,.5-.5-.2-.5-.5-.5Z"/>
  </g>
  <path class="cls-1" d="M15.6,12.8c0-.1-.2-.4-.3-.6,1-1.1,1.6-2.5,1.6-4.1s-.5-2.7-1.3-3.7V1.8c0-.8-.7-1.5-1.5-1.5H1.6C.7,.3,0,.9,0,1.8V11.4c0,.8,.7,1.5,1.5,1.5H7.7c1,.7,2.1,1.1,3.4,1.1s1.4-.1,2.1-.4l1.5,2.5c.2,.3,.4,.5,.8,.6,.3,0,.7,0,.9-.2,.6-.4,.8-1.1,.4-1.7l-1.1-2ZM1,1.8c0-.3,.2-.5,.5-.5H14.1c.3,0,.5,.2,.5,.5v.9h-1.5c-.7-.3-1.4-.4-2.2-.4s-1.5,.1-2.2,.4H1v-.9Zm.5,10.2c-.3,0-.5-.2-.5-.5V3.6H7.3c-1.3,1.1-2.1,2.7-2.1,4.5s.5,2.8,1.4,3.8H1.6Zm9.6,1.1c-2.7,0-4.9-2.2-4.9-4.9s2.2-4.9,4.9-4.9,4.9,2.2,4.9,4.9-2.2,4.9-4.9,4.9Z"/>
</svg>