<svg xmlns="http://www.w3.org/2000/svg" viewBox="0 0 11 17">
  <g fill="#52627B" fill-rule="nonzero">
    <path d="M5.499 0c-.398 0-.795.042-1.185.125a5.491 5.491 0 00-2.88 9.064l.325.351c.902.969 1.24 1.332 1.24 2.46.005.177.058.35.153.5a.977.977 0 00-.153.5v1.5a2.5 2.5 0 005 0V13a.977.977 0 00-.153-.5.977.977 0 00.153-.5c0-1.1.349-1.481 1.192-2.4.134-.146.276-.3.425-.468A5.488 5.488 0 005.499 0zm1.5 14h-3v-1h3v1zm-1.5 2a1.5 1.5 0 01-1.408-1h2.816a1.5 1.5 0 01-1.408 1zm3.37-7.534C7.733 9.742 6.999 10.292 6.999 12h-3c0-1.685-.689-2.244-1.828-3.487A4.491 4.491 0 014.52 1.1c.322-.067.65-.1.979-.1a4.5 4.5 0 014.5 4.5 4.436 4.436 0 01-1.13 2.966z"/>
    <path d="M4.829 2.571a3 3 0 00-2.293 2.448.5.5 0 10.988.151 1.981 1.981 0 011.511-1.62.5.5 0 00-.206-.979z"/>
  </g>
</svg>