<svg xmlns="http://www.w3.org/2000/svg" viewBox="0 0 17 17">
  <g fill="#52627B" fill-rule="evenodd">
    <path d="M8.5 16a7.5 7.5 0 110-15 7.5 7.5 0 010 15m0-16C3.813 0 0 3.813 0 8.5 0 13.187 3.813 17 8.5 17c4.687 0 8.5-3.813 8.5-8.5C17 3.813 13.187 0 8.5 0"/>
    <path d="M8.5 7.794a.706.706 0 100 1.412.706.706 0 000-1.412"/>
    <path d="M9.914 9.914l-4.95 2.122 2.122-4.95 4.95-2.122-2.122 4.95zm2.121-5.95a.998.998 0 00-.393.081l-4.95 2.121c-.236.102-.424.29-.526.526l-2.12 4.95a1 1 0 001.312 1.313l4.95-2.122a.998.998 0 00.525-.525l2.122-4.95a1.002 1.002 0 00-.92-1.394z"/>
  </g>
</svg>