<svg xmlns="http://www.w3.org/2000/svg" viewBox="0 0 13 17">
  <g fill="#52627B" fill-rule="evenodd">
    <path d="M12 15a1 1 0 01-1 1H2a1 1 0 01-1-1V3a1 1 0 011-1h2v1h5V2h2a1 1 0 011 1v12zM7.5 1a.5.5 0 01.5.5V2H5v-.5a.5.5 0 01.5-.5h2zM11 1H8.908C8.701.419 8.151 0 7.5 0h-2c-.651 0-1.201.419-1.408 1H2C.897 1 0 1.897 0 3v12c0 1.103.897 2 2 2h9c1.103 0 2-.897 2-2V3c0-1.103-.897-2-2-2z"/>
    <path d="M8.6 7.2l-2.654 3.54-1.593-1.594a.5.5 0 00-.707.707l2 2A.5.5 0 006 12c.012 0 .023 0 .036-.002A.498.498 0 006.4 11.8l3-4a.5.5 0 10-.8-.6"/>
  </g>
</svg>