<?xml version="1.0" encoding="UTF-8"?>
<svg width="11px" height="17px" viewBox="0 0 11 17" version="1.1" xmlns="http://www.w3.org/2000/svg" xmlns:xlink="http://www.w3.org/1999/xlink">
    <!-- Generator: sketchtool 60.1 (101010) - https://sketch.com -->
    <title>5A7FD47B-EE93-40B2-8D43-C1394DF9CB98</title>
    <desc>Created with sketchtool.</desc>
    <g id="Pages" stroke="none" stroke-width="1" fill="none" fill-rule="evenodd">
        <g id="Concepts---All-2---Collapsed-Nav" transform="translate(-33.000000, -220.000000)" fill="#52627B" fill-rule="nonzero">
            <g id="Side-Nav-2" transform="translate(30.000000, 0.000000)">
                <g id="Group-3">
                    <g id="concepts-icon" transform="translate(3.000000, 220.000000)">
                        <path d="M5.499,-1.65377562e-05 C5.10073389,0.000457983785 4.70359608,0.0423501586 4.314,0.125 C2.39787967,0.545387059 0.851571505,1.95605407 0.257528041,3.82564086 C-0.336515423,5.69522765 0.111950192,7.7397151 1.434,9.189 L1.759,9.54 C2.661,10.509 2.999,10.872 2.999,12 C3.00362484,12.1774721 3.05651932,12.3503298 3.152,12.5 C3.05651932,12.6496702 3.00362484,12.8225279 2.999,13 L2.999,14.5 C2.99900003,15.8807119 4.11828815,16.9999999 5.499,16.9999999 C6.87971185,16.9999999 7.99899997,15.8807119 7.999,14.5 L7.999,13 C7.99437516,12.8225279 7.94148068,12.6496702 7.846,12.5 C7.94148068,12.3503298 7.99437516,12.1774721 7.999,12 C7.999,10.9 8.348,10.519 9.191,9.6 C9.325,9.454 9.467,9.3 9.616,9.132 C11.0522769,7.51459154 11.4045106,5.20438186 10.5154957,3.23244019 C9.6264808,1.26049851 7.66207037,-0.0052933177 5.499,-1.65377562e-05 Z M6.999,14 L3.999,14 L3.999,13 L6.999,13 L6.999,14 Z M5.499,16 C4.86560729,15.9973743 4.30212728,15.5971754 4.091,15 L6.907,15 C6.69587272,15.5971754 6.13239271,15.9973743 5.499,16 L5.499,16 Z M8.869,8.466 C7.733,9.742 6.999,10.292 6.999,12 L3.999,12 C3.999,10.315 3.31,9.756 2.171,8.513 C1.08992205,7.32855491 0.722440625,5.65753445 1.20685471,4.12881515 C1.6912688,2.60009585 2.95406536,1.44567097 4.52,1.1 C4.84197647,1.03276787 5.17007987,0.999253737 5.499,0.999987808 C7.98428137,0.999987808 9.99900761,3.01471863 9.99900761,5.5 C10.0010256,6.59419515 9.59857685,7.65053403 8.869,8.466 Z" id="Shape"></path>
                        <path d="M4.829,2.571 C3.63728194,2.84358398 2.73016216,3.81202236 2.536,5.019 C2.51591286,5.15015885 2.54878331,5.28392347 2.62737216,5.39083432 C2.70596102,5.49774517 2.82382269,5.56903379 2.955,5.589 C2.98013763,5.59298285 3.0055488,5.595 3.031,5.595 C3.2776706,5.59433731 3.48700017,5.41388079 3.524,5.17 C3.65045226,4.37252766 4.24825207,3.73160397 5.035,3.55 C5.30534338,3.49311467 5.47838532,3.22784338 5.42149999,2.9575 C5.36461466,2.68715662 5.09934338,2.51411468 4.829,2.571 L4.829,2.571 Z" id="Path"></path>
                    </g>
                </g>
            </g>
        </g>
    </g>
</svg>
