<?xml version="1.0" encoding="UTF-8"?>
<svg width="17px" height="17px" viewBox="0 0 17 17" version="1.1" xmlns="http://www.w3.org/2000/svg" xmlns:xlink="http://www.w3.org/1999/xlink">
    <!-- Generator: sketchtool 60.1 (101010) - https://sketch.com -->
    <title>F6A5D3E2-BF34-4A62-8329-90D154514378</title>
    <desc>Created with sketchtool.</desc>
    <g id="Pages" stroke="none" stroke-width="1" fill="none" fill-rule="evenodd">
        <g id="Concepts---All-2---Collapsed-Nav" transform="translate(-30.000000, -148.000000)" fill="#52627B">
            <g id="Side-Nav-2" transform="translate(30.000000, 0.000000)">
                <g id="Group-3">
                    <g id="discover-icon" transform="translate(0.000000, 148.000000)">
                        <path d="M8.5,16 C4.358,16 1,12.642 1,8.5 C1,4.358 4.358,1 8.5,1 C12.642,1 16,4.358 16,8.5 C16,12.642 12.642,16 8.5,16 M8.5,0 C3.813,0 0,3.813 0,8.5 C0,13.187 3.813,17 8.5,17 C13.187,17 17,13.187 17,8.5 C17,3.813 13.187,0 8.5,0" id="Fill-1"></path>
                        <path d="M8.5,7.7939 C8.11,7.7939 7.794,8.1099 7.794,8.4999 C7.794,8.8899 8.11,9.2059 8.5,9.2059 C8.89,9.2059 9.206,8.8899 9.206,8.4999 C9.206,8.1099 8.89,7.7939 8.5,7.7939" id="Fill-3"></path>
                        <path d="M9.9141,9.9141 L4.9641,12.0361 L7.0861,7.0861 L12.0361,4.9641 L9.9141,9.9141 Z M12.0351,3.9641 C11.9021,3.9641 11.7681,3.9911 11.6421,4.0451 L6.6921,6.1661 C6.4561,6.2681 6.2681,6.4561 6.1661,6.6921 L4.0451,11.6421 C3.8841,12.0181 3.9681,12.4541 4.2571,12.7431 C4.4491,12.9341 4.7051,13.0361 4.9651,13.0361 C5.0981,13.0361 5.2311,13.0091 5.3581,12.9551 L10.3081,10.8331 C10.5441,10.7321 10.7321,10.5441 10.8331,10.3081 L12.9551,5.3581 C13.1151,4.9821 13.0321,4.5461 12.7431,4.2571 C12.5511,4.0661 12.2951,3.9641 12.0351,3.9641 L12.0351,3.9641 Z" id="Fill-5"></path>
                    </g>
                </g>
            </g>
        </g>
    </g>
</svg>