<?xml version="1.0" encoding="UTF-8"?>
<svg width="7px" height="12px" viewBox="0 0 7 12" version="1.1" xmlns="http://www.w3.org/2000/svg" xmlns:xlink="http://www.w3.org/1999/xlink">
    <!-- Generator: sketchtool 60.1 (101010) - https://sketch.com -->
    <title>B4DAEF66-6B55-46E1-BACE-6E696670C664</title>
    <desc>Created with sketchtool.</desc>
    <g id="Pages" stroke="none" stroke-width="1" fill="none" fill-rule="evenodd">
        <g id="Guide---Step-1---Business-Customer-Verification" transform="translate(-1059.000000, -2685.000000)" fill="#CFCFF5">
            <g id="Code-Block-without-Code" transform="translate(391.000000, 2671.000000)">
                <g id="Code-Block-with-Code">
                    <g id="Group-2">
                        <g id="dropdown" transform="translate(580.000000, 8.000000)">
                            <g id="drop-down-caret" transform="translate(88.000000, 6.000000)">
                                <path d="M6.13624507,8.14846519 L3.49995831,10.7881796 L0.86400505,8.14846519 C0.666241856,7.9505116 0.345752093,7.9505116 0.148322395,8.14846519 C-0.0494407985,8.34641878 -0.0494407985,8.66734353 0.148322395,8.86496386 L3.13177861,11.8525967 C3.23316142,11.9542395 3.36689336,12.0025615 3.49995831,11.9998955 C3.63302326,12.0025615 3.7667552,11.9542395 3.86847152,11.8525967 L6.85192773,8.86496386 C7.04935742,8.66734353 7.04935742,8.34641878 6.85192773,8.14846519 C6.65416453,7.9505116 6.33367477,7.9505116 6.13624507,8.14846519 L6.13624507,8.14846519 Z" id="Arrow-Down-Icon"></path>
                                <path d="M6.13624507,3.85159098 L3.49995831,1.21176237 L0.86400505,3.85159098 C0.666241856,4.04946967 0.345752093,4.04946967 0.148322395,3.85159098 C-0.0494407985,3.65337859 -0.0494407985,3.33270165 0.148322395,3.13448926 L3.13177861,0.147288442 C3.23316142,0.0458464123 3.36689336,-0.00287245717 3.49995831,0.000130760813 C3.63302326,-0.00287245717 3.7667552,0.0458464123 3.86847152,0.147288442 L6.85192773,3.13448926 C7.04935742,3.33270165 7.04935742,3.65337859 6.85192773,3.85159098 C6.65416453,4.04946967 6.33367477,4.04946967 6.13624507,3.85159098 L6.13624507,3.85159098 Z" id="Arrow-Up-Icon"></path>
                            </g>
                        </g>
                    </g>
                </g>
            </g>
        </g>
    </g>
</svg>