<?xml version="1.0" encoding="UTF-8"?>
<svg width="42px" height="46px" viewBox="0 0 42 46" version="1.1" xmlns="http://www.w3.org/2000/svg" xmlns:xlink="http://www.w3.org/1999/xlink">
    <!-- Generator: sketchtool 60.1 (101010) - https://sketch.com -->
    <title>EACB93A6-8682-4779-A46E-6E52596D2D99</title>
    <desc>Created with sketchtool.</desc>
    <g id="Pages" stroke="none" stroke-width="1" fill="none" fill-rule="evenodd">
        <g id="Home-page-01" transform="translate(-755.000000, -425.000000)" fill="#D9725C" fill-rule="nonzero">
            <g id="guides-48x48-01" transform="translate(755.000000, 425.000000)">
                <path d="M13,24 L25,24 C25.5522847,24 26,23.5522847 26,23 C26,22.4477153 25.5522847,22 25,22 L13,22 C12.4477153,22 12,22.4477153 12,23 C12,23.5522847 12.4477153,24 13,24 Z" id="Path"></path>
                <path d="M13,18 L25,18 C25.5522847,18 26,17.5522847 26,17 C26,16.4477153 25.5522847,16 25,16 L13,16 C12.4477153,16 12,16.4477153 12,17 C12,17.5522847 12.4477153,18 13,18 Z" id="Path"></path>
                <path d="M9,16 L7,16 C6.44771525,16 6,16.4477153 6,17 C6,17.5522847 6.44771525,18 7,18 L9,18 C9.55228475,18 10,17.5522847 10,17 C10,16.4477153 9.55228475,16 9,16 Z" id="Path"></path>
                <path d="M9,22 L7,22 C6.44771525,22 6,22.4477153 6,23 C6,23.5522847 6.44771525,24 7,24 L9,24 C9.55228475,24 10,23.5522847 10,23 C10,22.4477153 9.55228475,22 9,22 Z" id="Path"></path>
                <path d="M9,28 L7,28 C6.44771525,28 6,28.4477153 6,29 C6,29.5522847 6.44771525,30 7,30 L9,30 C9.55228475,30 10,29.5522847 10,29 C10,28.4477153 9.55228475,28 9,28 Z" id="Path"></path>
                <path d="M9,34 L7,34 C6.44771525,34 6,34.4477153 6,35 C6,35.5522847 6.44771525,36 7,36 L9,36 C9.55228475,36 10,35.5522847 10,35 C10,34.4477153 9.55228475,34 9,34 Z" id="Path"></path>
                <path d="M37.707,30.293 C37.3165001,29.9026181 36.6834999,29.9026181 36.293,30.293 L29,37.586 L25.707,34.293 C25.3146211,33.9140278 24.6909152,33.9194476 24.3051814,34.3051814 C23.9194476,34.6909152 23.9140278,35.3146211 24.293,35.707 L28.293,39.707 C28.6834999,40.0973819 29.3165001,40.0973819 29.707,39.707 L37.707,31.707 C38.0973819,31.3165001 38.0973819,30.6834999 37.707,30.293 Z" id="Path"></path>
                <path d="M32,24.051 L32,5 C32,3.34314575 30.6568542,2 29,2 L22,2 L22,1 C22,0.44771525 21.5522847,0 21,0 L11,0 C10.4477153,0 10,0.44771525 10,1 L10,2 L3,2 C1.34314575,2 0,3.34314575 0,5 L0,43 C0,44.6568542 1.34314575,46 3,46 L31,46 C36.8585289,45.9699011 41.6654456,41.3533229 41.9320881,35.5007876 C42.1987305,29.6482524 37.8315209,24.6136995 32,24.051 Z M12,2 L20,2 L20,5 C20,5.55228475 19.5522847,6 19,6 L13,6 C12.4477153,6 12,5.55228475 12,5 L12,2 Z M3,44 C2.44771525,44 2,43.5522847 2,43 L2,5 C2,4.44771525 2.44771525,4 3,4 L10,4 L10,5 C10,6.65685425 11.3431458,8 13,8 L19,8 C20.6568542,8 22,6.65685425 22,5 L22,4 L29,4 C29.2652165,4 29.5195704,4.10535684 29.7071068,4.29289322 C29.8946432,4.4804296 30,4.73478351 30,5 L30,24.051 C27.0799994,24.3168488 24.387331,25.7386094 22.521,28 L13,28 C12.4477153,28 12,28.4477153 12,29 C12,29.5522847 12.4477153,30 13,30 L21.214,30 C20.5727897,31.2461689 20.1779133,32.6042993 20.051,34 L13,34 C12.4477153,34 12,34.4477153 12,35 C12,35.5522847 12.4477153,36 13,36 L20.051,36 C20.3481649,39.2207853 22.0487848,42.1472122 24.7,44 L3,44 Z M31,44 C26.0294373,44 22,39.9705627 22,35 C22,30.0294373 26.0294373,26 31,26 C35.9705627,26 40,30.0294373 40,35 C39.9944889,39.9682782 35.9682782,43.9944889 31,44 Z" id="Shape"></path>
            </g>
        </g>
    </g>
</svg>