<?xml version="1.0" encoding="UTF-8"?>
<svg width="13px" height="17px" viewBox="0 0 13 17" version="1.1" xmlns="http://www.w3.org/2000/svg" xmlns:xlink="http://www.w3.org/1999/xlink">
    <!-- Generator: sketchtool 60.1 (101010) - https://sketch.com -->
    <title>954447B1-1BAF-475A-A8DE-D8B1364964EC</title>
    <desc>Created with sketchtool.</desc>
    <g id="Pages" stroke="none" stroke-width="1" fill="none" fill-rule="evenodd">
        <g id="Concepts---All-2---Collapsed-Nav" transform="translate(-32.000000, -183.000000)" fill="#52627B">
            <g id="Side-Nav-2" transform="translate(30.000000, 0.000000)">
                <g id="Group-3">
                    <g id="guides-icon" transform="translate(2.000000, 183.000000)">
                        <path d="M12,15 C12,15.552 11.552,16 11,16 L2,16 C1.448,16 1,15.552 1,15 L1,3 C1,2.448 1.448,2 2,2 L4,2 L4,3 L5,3 L8,3 L9,3 L9,2 L11,2 C11.552,2 12,2.448 12,3 L12,15 Z M7.5,1 C7.776,1 8,1.224 8,1.5 L8,2 L5,2 L5,1.5 C5,1.224 5.224,1 5.5,1 L7.5,1 Z M11,1 L8.908,1 C8.701,0.419 8.151,0 7.5,0 L5.5,0 C4.849,0 4.299,0.419 4.092,1 L2,1 C0.897,1 0,1.897 0,3 L0,15 C0,16.103 0.897,17 2,17 L11,17 C12.103,17 13,16.103 13,15 L13,3 C13,1.897 12.103,1 11,1 L11,1 Z" id="Fill-1"></path>
                        <path d="M8.6001,7.2002 L5.9461,10.7392 L4.3531,9.1462 C4.1581,8.9512 3.8421,8.9512 3.6461,9.1462 C3.4511,9.3422 3.4511,9.6582 3.6461,9.8532 L5.6461,11.8532 C5.7411,11.9482 5.8681,12.0002 6.0001,12.0002 C6.0121,12.0002 6.0231,11.9992 6.0361,11.9982 C6.1801,11.9882 6.3131,11.9162 6.4001,11.8002 L9.4001,7.8002 C9.5661,7.5792 9.5211,7.2652 9.3001,7.1002 C9.0791,6.9352 8.7661,6.9782 8.6001,7.2002" id="Fill-3"></path>
                    </g>
                </g>
            </g>
        </g>
    </g>
</svg>
