<?xml version="1.0" encoding="UTF-8"?>
<svg width="15px" height="17px" viewBox="0 0 15 17" version="1.1" xmlns="http://www.w3.org/2000/svg" xmlns:xlink="http://www.w3.org/1999/xlink">
    <!-- Generator: sketchtool 60.1 (101010) - https://sketch.com -->
    <title>05202B51-AFE4-46C3-A1ED-DDBC491142A7</title>
    <desc>Created with sketchtool.</desc>
    <g id="Pages" stroke="none" stroke-width="1" fill="none" fill-rule="evenodd">
        <g id="Concepts---All-2---Collapsed-Nav" transform="translate(-31.000000, -111.000000)" fill="#52627B" fill-rule="nonzero">
            <g id="Side-Nav-2" transform="translate(30.000000, 0.000000)">
                <g id="Group-3">
                    <g id="home-icon" transform="translate(1.000000, 111.000000)">
                        <path d="M14.6,5.122 L8.1,0.203 C7.74444444,-0.0636666667 7.25555556,-0.0636666667 6.9,0.203 L0.4,5.122 C0.148194157,5.31085438 0,5.6072427 0,5.922 L0,14.922 C0,16.0265695 0.8954305,16.922 2,16.922 L13,16.922 C14.1045695,16.922 15,16.0265695 15,14.922 L15,5.922 C15,5.6072427 14.8518058,5.31085438 14.6,5.122 Z M6,15.922 L6,8.922 L9,8.922 L9,15.922 L6,15.922 Z M14,14.922 C14,15.4742847 13.5522847,15.922 13,15.922 L10,15.922 L10,8.922 C10,8.36971525 9.55228475,7.922 9,7.922 L6,7.922 C5.44771525,7.922 5,8.36971525 5,8.922 L5,15.922 L2,15.922 C1.44771525,15.922 1,15.4742847 1,14.922 L1,5.922 L7.5,1 L14,5.922 L14,14.922 Z" id="Shape"></path>
                    </g>
                </g>
            </g>
        </g>
    </g>
</svg>