<?xml version="1.0" encoding="UTF-8"?>
<svg width="24px" height="24px" viewBox="0 0 24 24" version="1.1" xmlns="http://www.w3.org/2000/svg" xmlns:xlink="http://www.w3.org/1999/xlink">
    <!-- Generator: sketchtool 61.1 (101010) - https://sketch.com -->
    <title>42DB9258-B460-406A-AEB1-6921D3C7AC8D</title>
    <desc>Created with sketchtool.</desc>
    <g id="Pages" stroke="none" stroke-width="1" fill="none" fill-rule="evenodd">
        <g id="Styles-&amp;-Components" transform="translate(-66.000000, -4847.000000)" fill="#8393AA" fill-rule="nonzero">
            <g id="Gray---Info-Alert-BAr" transform="translate(50.000000, 4831.000000)">
                <g id="Group-8">
                    <g id="info-icon-gray-24x24" transform="translate(16.000000, 16.000000)">
                        <path d="M12,0 C5.372583,0 0,5.372583 0,12 C0,18.627417 5.372583,24 12,24 C18.627417,24 24,18.627417 24,12 C24,8.81740212 22.7357179,5.76515517 20.4852814,3.51471863 C18.2348448,1.26428208 15.1825979,0 12,0 Z M13,18 C13,18.5522847 12.5522847,19 12,19 C11.4477153,19 11,18.5522847 11,18 L11,10 C11,9.44771525 11.4477153,9 12,9 C12.5522847,9 13,9.44771525 13,10 L13,18 Z M12,7.25 C11.3096441,7.25 10.75,6.69035594 10.75,6 C10.75,5.30964406 11.3096441,4.75 12,4.75 C12.6903559,4.75 13.25,5.30964406 13.25,6 C13.25,6.69035594 12.6903559,7.25 12,7.25 L12,7.25 Z" id="Shape"></path>
                    </g>
                </g>
            </g>
        </g>
    </g>
</svg>