<?xml version="1.0" encoding="UTF-8"?>
<svg width="24px" height="24px" viewBox="0 0 24 24" version="1.1" xmlns="http://www.w3.org/2000/svg" xmlns:xlink="http://www.w3.org/1999/xlink">
    <!-- Generator: sketchtool 61.1 (101010) - https://sketch.com -->
    <title>D9DDECC3-80CD-49DD-BD39-CA179833129D</title>
    <desc>Created with sketchtool.</desc>
    <g id="Pages" stroke="none" stroke-width="1" fill="none" fill-rule="evenodd">
        <g id="Styles-&amp;-Components" transform="translate(-649.000000, -7757.000000)">
            <g id="Group-12" transform="translate(50.000000, 7731.000000)">
                <g id="plus-icon-24x24" transform="translate(599.000000, 26.000000)">
                    <g>
                        <circle id="Oval" fill="#F4F7FB" cx="12" cy="12" r="12"></circle>
                        <path d="M18.0869565,12.9130435 L12.9130435,12.9130435 L12.9130435,18.0869565 C12.9130435,18.5915652 12.504,19 12,19 C11.496,19 11.0869565,18.5915652 11.0869565,18.0869565 L11.0869565,12.9130435 L5.91304348,12.9130435 C5.40904348,12.9130435 5,12.504 5,12 C5,11.496 5.40904348,11.0869565 5.91304348,11.0869565 L11.0869565,11.0869565 L11.0869565,5.91304348 C11.0869565,5.40904348 11.496,5 12,5 C12.504,5 12.9130435,5.40904348 12.9130435,5.91304348 L12.9130435,11.0869565 L18.0869565,11.0869565 C18.5909565,11.0869565 19,11.496 19,12 C19,12.504 18.5909565,12.9130435 18.0869565,12.9130435 L18.0869565,12.9130435 Z" id="Plus-Icon-Copy" fill="#8393AA"></path>
                    </g>
                </g>
            </g>
        </g>
    </g>
</svg>