<?xml version="1.0" encoding="UTF-8"?>
<svg width="15px" height="17px" viewBox="0 0 15 17" version="1.1" xmlns="http://www.w3.org/2000/svg" xmlns:xlink="http://www.w3.org/1999/xlink">
    <!-- Generator: sketchtool 60.1 (101010) - https://sketch.com -->
    <title>70110CC4-3D8C-40A6-B355-FF0514D22026</title>
    <desc>Created with sketchtool.</desc>
    <g id="Pages" stroke="none" stroke-width="1" fill="none" fill-rule="evenodd">
        <g id="Concepts---All-2---Collapsed-Nav" transform="translate(-31.000000, -255.000000)" fill="#52627B" fill-rule="nonzero">
            <g id="Side-Nav-2" transform="translate(30.000000, 0.000000)">
                <g id="Group-3">
                    <g id="sdks-tools-icon" transform="translate(1.000000, 255.000000)">
                        <path d="M14.5,3.884 L8,0.134 C7.69059892,-0.044632795 7.30940108,-0.044632795 7,0.134 L0.5,3.884 C0.190606783,4.06262826 0,4.39274349 0,4.75 L0,12.25 C0,12.6072565 0.190606783,12.9373717 0.5,13.116 L7,16.866 C7.30940108,17.0446328 7.69059892,17.0446328 8,16.866 L14.5,13.116 C14.8093932,12.9373717 15,12.6072565 15,12.25 L15,4.75 C15,4.39274349 14.8093932,4.06262826 14.5,3.884 Z M7.5,1 L13.529,4.479 L7.5,7.924 L1.47,4.479 L7.5,1 Z M1,5.362 L7,8.79 L7,15.712 L1,12.25 L1,5.362 Z M8,15.712 L8,8.79 L14,5.361 L14,12.25 L8,15.712 Z" id="Shape"></path>
                    </g>
                </g>
            </g>
        </g>
    </g>
</svg>