<?xml version="1.0" encoding="UTF-8"?>
<svg width="24px" height="24px" viewBox="0 0 24 24" version="1.1" xmlns="http://www.w3.org/2000/svg" xmlns:xlink="http://www.w3.org/1999/xlink">
    <!-- Generator: sketchtool 61.1 (101010) - https://sketch.com -->
    <title>794E0BE7-448B-47B3-B509-B3C4E1B28D76</title>
    <desc>Created with sketchtool.</desc>
    <g id="Pages" stroke="none" stroke-width="1" fill="none" fill-rule="evenodd">
        <g id="Styles-&amp;-Components" transform="translate(-66.000000, -4932.000000)" fill="#F8BA01" fill-rule="nonzero">
            <g id="Yellow---Warning-Alert-BAr" transform="translate(50.000000, 4916.000000)">
                <g id="Group-12">
                    <g id="warning-icon-yellow-24x24" transform="translate(16.000000, 16.000000)">
                        <path d="M12,0 C5.372583,0 0,5.372583 0,12 C0,18.627417 5.372583,24 12,24 C18.627417,24 24,18.627417 24,12 C24,8.81740212 22.7357179,5.76515517 20.4852814,3.51471863 C18.2348448,1.26428208 15.1825979,0 12,0 Z M11,6 C11,5.44771525 11.4477153,5 12,5 C12.5522847,5 13,5.44771525 13,6 L13,14 C13,14.5522847 12.5522847,15 12,15 C11.4477153,15 11,14.5522847 11,14 L11,6 Z M12,19.25 C11.3096441,19.25 10.75,18.6903559 10.75,18 C10.75,17.3096441 11.3096441,16.75 12,16.75 C12.6903559,16.75 13.25,17.3096441 13.25,18 C13.25,18.6903559 12.6903559,19.25 12,19.25 L12,19.25 Z" id="Shape"></path>
                    </g>
                </g>
            </g>
        </g>
    </g>
</svg>