<?xml version="1.0" encoding="UTF-8"?>
<svg id="Layer_1" data-name="Layer 1" xmlns="http://www.w3.org/2000/svg" viewBox="0 0 25 25">
  <defs>
    <style>
      .cls-1 {
        fill: none;
      }

      .cls-2 {
        fill: #D9725C;
      }
    </style>
  </defs>
  <path class="cls-1" d="M9.7,6.23h8.9V1.73H3.66V22.27c.15-.06,.32-.1,.49-.1,.47,0,.95,.22,1.09,.63,.06,.17,.1,.29,.15,.38,.09,.17,.3,.26,.51,.26,.18,0,.35-.08,.47-.2,.09-.61,.61-1.08,1.25-1.08,.47,0,.95,.22,1.09,.63,.06,.17,.1,.29,.15,.38,.09,.17,.3,.26,.51,.26,.18,0,.35-.08,.47-.2,.09-.61,.61-1.08,1.25-1.08,.47,0,.95,.22,1.09,.63,.06,.17,.1,.29,.15,.38,.09,.17,.3,.26,.51,.26,.18,0,.35-.08,.47-.2,.09-.61,.61-1.08,1.25-1.08,.47,0,.95,.22,1.09,.63,.06,.17,.1,.29,.15,.38,.09,.17,.3,.26,.51,.26,.36,0,.73-.65,.73-.65,.22-.38,.62-.63,1.09-.63,.17,0,.34,.04,.5,.1v-7.17H9.7V6.23Zm4.49,11.04h2.84c.22,0,.4,.18,.4,.4s-.18,.4-.4,.4h-2.84c-.22,0-.4-.18-.4-.4s.18-.4,.4-.4Zm0-13.4h2.84c.22,0,.4,.18,.4,.4s-.18,.4-.4,.4h-2.84c-.22,0-.4-.18-.4-.4s.18-.4,.4-.4Zm-9.08,0h7.1c.22,0,.4,.18,.4,.4s-.18,.4-.4,.4H5.1c-.22,0-.4-.18-.4-.4s.18-.4,.4-.4Zm0,2.89h2.84c.22,0,.4,.18,.4,.4s-.18,.4-.4,.4h-2.84c-.22,0-.4-.18-.4-.4s.18-.4,.4-.4Zm0,2.43h2.84c.22,0,.4,.18,.4,.4s-.18,.4-.4,.4h-2.84c-.22,0-.4-.18-.4-.4s.18-.4,.4-.4Zm0,2.49h2.84c.22,0,.4,.18,.4,.4s-.18,.4-.4,.4h-2.84c-.22,0-.4-.18-.4-.4s.18-.4,.4-.4Zm0,2.32h2.84c.22,0,.4,.18,.4,.4s-.18,.4-.4,.4h-2.84c-.22,0-.4-.18-.4-.4s.18-.4,.4-.4Zm7.1,3.26c.22,0,.4,.18,.4,.4s-.18,.4-.4,.4H5.1c-.22,0-.4-.18-.4-.4s.18-.4,.4-.4h7.1Z"/>
  <g>
    <path class="cls-2" d="M19.4,6.23V.93H2.86V23.39h.8v-.37c.12-.14,.29-.24,.49-.24,.21,0,.39,.11,.51,.26,.08,.11,.11,.29,.15,.38,.17,.4,.62,.63,1.09,.63,.63,0,1.16-.47,1.25-1.08,.12-.12,.28-.2,.47-.2,.21,0,.39,.11,.51,.26,.08,.11,.11,.29,.15,.38,.17,.4,.62,.63,1.09,.63,.63,0,1.16-.47,1.25-1.08,.12-.12,.28-.2,.47-.2,.21,0,.39,.11,.51,.26,.08,.11,.11,.29,.15,.38,.17,.4,.62,.63,1.09,.63,.63,0,1.16-.47,1.25-1.08,.12-.12,.28-.2,.47-.2,.21,0,.39,.11,.51,.26,.08,.11,.11,.29,.15,.38,.17,.4,.62,.63,1.09,.63s.87-.26,1.09-.63c0,0,.37-.65,.73-.65,.21,0,.38,.11,.5,.26v.35h.8V15.1h2.74V6.23h-2.74Zm-.8,16.04c-.16-.06-.33-.1-.5-.1-.47,0-.87,.26-1.09,.63,0,0-.37,.65-.73,.65-.21,0-.42-.09-.51-.26-.05-.09-.09-.21-.15-.38-.14-.41-.62-.63-1.09-.63-.63,0-1.16,.47-1.25,1.08-.12,.12-.28,.2-.47,.2-.21,0-.42-.09-.51-.26-.05-.09-.09-.21-.15-.38-.14-.41-.62-.63-1.09-.63-.63,0-1.16,.47-1.25,1.08-.12,.12-.28,.2-.47,.2-.21,0-.42-.09-.51-.26-.05-.09-.09-.21-.15-.38-.14-.41-.62-.63-1.09-.63-.63,0-1.15,.47-1.25,1.08-.12,.12-.28,.2-.47,.2-.21,0-.42-.09-.51-.26-.05-.09-.09-.21-.15-.38-.14-.41-.62-.63-1.09-.63-.17,0-.34,.04-.49,.1V1.73h14.94V6.23H9.7V15.1h8.9v7.17Zm2.74-7.98H10.5V7.04h10.84v7.26Z"/>
    <path class="cls-2" d="M5.1,4.68h7.1c.22,0,.4-.18,.4-.4s-.18-.4-.4-.4H5.1c-.22,0-.4,.18-.4,.4s.18,.4,.4,.4Z"/>
    <path class="cls-2" d="M14.19,4.68h2.84c.22,0,.4-.18,.4-.4s-.18-.4-.4-.4h-2.84c-.22,0-.4,.18-.4,.4s.18,.4,.4,.4Z"/>
    <path class="cls-2" d="M5.1,7.58h2.84c.22,0,.4-.18,.4-.4s-.18-.4-.4-.4h-2.84c-.22,0-.4,.18-.4,.4s.18,.4,.4,.4Z"/>
    <path class="cls-2" d="M5.1,10.01h2.84c.22,0,.4-.18,.4-.4s-.18-.4-.4-.4h-2.84c-.22,0-.4,.18-.4,.4s.18,.4,.4,.4Z"/>
    <path class="cls-2" d="M5.1,12.5h2.84c.22,0,.4-.18,.4-.4s-.18-.4-.4-.4h-2.84c-.22,0-.4,.18-.4,.4s.18,.4,.4,.4Z"/>
    <path class="cls-2" d="M4.7,17.68c0,.22,.18,.4,.4,.4h7.1c.22,0,.4-.18,.4-.4s-.18-.4-.4-.4H5.1c-.22,0-.4,.18-.4,.4Z"/>
    <path class="cls-2" d="M14.19,18.08h2.84c.22,0,.4-.18,.4-.4s-.18-.4-.4-.4h-2.84c-.22,0-.4,.18-.4,.4s.18,.4,.4,.4Z"/>
    <path class="cls-2" d="M5.1,14.82h2.84c.22,0,.4-.18,.4-.4s-.18-.4-.4-.4h-2.84c-.22,0-.4,.18-.4,.4s.18,.4,.4,.4Z"/>
    <g>
      <path class="cls-2" d="M15.25,12.11c-.06,0-.12-.02-.17-.05l-1.86-1.24c-.08-.06-.13-.15-.13-.25s.05-.19,.13-.25l1.86-1.24c.14-.09,.33-.06,.42,.08,.09,.14,.05,.33-.08,.42l-1.48,.99,1.48,.99c.14,.09,.18,.28,.08,.42-.06,.09-.15,.13-.25,.13Z"/>
      <path class="cls-2" d="M17.73,12.11c-.1,0-.19-.05-.25-.13-.09-.14-.05-.33,.08-.42l1.48-.99-1.48-.99c-.14-.09-.18-.28-.08-.42,.09-.14,.28-.18,.42-.08l1.86,1.24c.08,.06,.13,.15,.13,.25s-.05,.19-.13,.25l-1.86,1.24c-.05,.03-.11,.05-.17,.05Z"/>
      <path class="cls-2" d="M15.87,13.35s-.05,0-.07,0c-.16-.04-.26-.2-.22-.37l1.24-4.95c.04-.16,.21-.26,.37-.22,.16,.04,.26,.2,.22,.37l-1.24,4.95c-.03,.14-.16,.23-.29,.23Z"/>
    </g>
  </g>
</svg>
