<?xml version="1.0" encoding="UTF-8"?>
<svg width="48px" height="48px" viewBox="0 0 48 48" version="1.1" xmlns="http://www.w3.org/2000/svg" xmlns:xlink="http://www.w3.org/1999/xlink">
    <!-- Generator: Sketch 61.1 (89650) - https://sketch.com -->
    <title>Shape</title>
    <desc>Created with Sketch.</desc>
    <g id="Pages" stroke="none" stroke-width="1" fill="none" fill-rule="evenodd">
        <g id="SDKs-&amp;-Tools" transform="translate(-675.000000, -1498.000000)" fill="#D9725C" fill-rule="nonzero">
            <path d="M717.979208,1507.32866 C711.342022,1498.73041 699.756472,1495.66338 689.734383,1499.85143 C679.712294,1504.03948 673.753705,1514.43788 675.207726,1525.20208 C676.661748,1535.96627 685.16567,1544.41109 695.939741,1545.79 C696.967524,1545.92237 698.002692,1545.98915 699.038963,1545.98995 C711.090061,1545.96225 721.251898,1537.00204 722.788001,1525.04921 L722.788001,1525.04921 C723.615988,1518.73719 721.884404,1512.35624 717.979208,1507.32866 Z M696.284654,1522.03397 C696.284654,1522.03397 703.027961,1529.4591 703.762777,1530.2549 C700.416199,1531.33904 696.744783,1530.51449 694.183182,1528.10344 C693.654765,1527.54627 693.156512,1526.96125 692.690557,1526.35088 C690.120647,1522.45725 690.681769,1517.28652 694.027083,1514.0348 C697.372397,1510.78309 702.556966,1510.36888 706.376121,1513.04822 L696.284654,1522.03397 Z M708.057699,1514.56284 C708.166671,1514.68681 708.281643,1514.80378 708.384617,1514.93375 C710.129683,1517.10848 710.854223,1519.92913 710.37328,1522.67565 C709.892337,1525.42218 708.252451,1527.82879 705.872247,1529.28115 C705.021461,1528.41736 700.041711,1523.00972 699.361882,1522.22792 L702.535085,1519.30565 L708.057699,1514.56284 Z M690.146195,1542.12592 C689.879596,1542.00795 689.615329,1541.88498 689.353394,1541.75701 L691.269913,1539.8105 C691.010978,1540.41435 690.643071,1541.19615 690.146195,1542.12592 Z M690.807029,1537.18316 L690.494108,1537.60506 L687.455871,1540.71028 C686.227531,1539.94989 685.076948,1539.07054 684.020733,1538.08494 L691.551842,1530.48684 C691.443048,1532.73226 691.194294,1534.96871 690.807029,1537.18316 L690.807029,1537.18316 Z M691.097956,1527.96548 L682.578095,1536.60631 C681.010098,1534.84373 679.734282,1532.84158 678.799044,1530.6758 C679.906012,1529.92685 681.080481,1529.28289 682.307163,1528.75228 C682.357151,1528.73128 687.383889,1526.81676 691.095957,1527.96548 L691.097956,1527.96548 Z M698.946986,1500.0015 C699.89865,1500.0015 700.849339,1500.06238 701.793271,1500.18345 C713.717826,1501.71656 722.17823,1512.53031 720.847818,1524.43422 L720.804499,1524.79527 C719.96941,1531.31811 716.258188,1537.1246 710.689047,1540.62167 C705.119906,1544.11874 698.27772,1544.93912 692.03972,1542.85774 C692.731369,1541.59406 693.303702,1540.26866 693.749291,1538.89873 C694.348566,1537.27676 694.762101,1535.5921 694.981981,1533.87699 L694.981981,1533.86799 C695.127997,1533.00674 695.177957,1532.13193 695.130944,1531.25965 C698.463246,1533.10839 702.488487,1533.21291 705.912237,1531.53958 C706.842004,1531.36562 709.082441,1529.90399 710.733027,1527.49259 C711.57099,1526.20486 712.129544,1524.75569 712.372616,1523.23866 C712.71873,1521.64986 712.74964,1520.00858 712.463593,1518.40788 C711.866859,1516.07116 710.588649,1513.9647 708.791515,1512.35639 L708.163672,1511.86552 C703.954972,1508.46132 697.961978,1508.38388 693.666725,1511.6782 C689.371472,1514.97252 687.892538,1520.78068 690.08921,1525.72804 C687.21022,1525.47962 684.311974,1525.87297 681.60334,1526.87975 C680.367359,1527.38597 679.183157,1528.01038 678.067228,1528.74428 C675.912698,1522.06087 677.078944,1514.75042 681.206032,1509.06913 C685.333119,1503.38784 691.924904,1500.01869 698.946986,1500.0015 Z M707.388,1515.331 L708.9,1519.448 C709.505768,1521.1528 709.309928,1523.03992 708.367,1524.584 L708.367,1524.584 L706.2,1527.613 L707.388,1515.331 Z" id="Shape"></path>
        </g>
    </g>
</svg>