<?xml version="1.0" encoding="UTF-8"?>
<svg width="48px" height="48px" viewBox="0 0 48 48" version="1.1" xmlns="http://www.w3.org/2000/svg" xmlns:xlink="http://www.w3.org/1999/xlink">
    <!-- Generator: sketchtool 61.1 (101010) - https://sketch.com -->
    <title>10B584F5-D898-4EE2-A1EC-0BA499F61043</title>
    <desc>Created with sketchtool.</desc>
    <g id="Pages" stroke="none" stroke-width="1" fill="none" fill-rule="evenodd">
        <g id="SDKs-&amp;-Tools" transform="translate(-421.000000, -1498.000000)" fill="#D9725C" fill-rule="nonzero">
            <g id="sqs-mv-icon-48x48" transform="translate(421.000000, 1498.000000)">
                <path d="M47.858,48 L33.821,48 L17.087,13 L8.858,13 L8.858,0 L25.342,0 L42.342,35 L47.858,35 L47.858,48 Z M35.081,46 L45.858,46 L45.858,37 L41.09,37 L24.09,2 L10.858,2 L10.858,11 L18.346,11 L35.081,46 Z" id="Shape"></path>
                <path d="M14.335,48 L0,48 L14.74,17.664 L21.826,33.018 L14.335,48 Z M3.195,46 L13.095,46 L19.604,32.982 L14.693,22.336 L3.195,46 Z" id="Shape"></path>
            </g>
        </g>
    </g>
</svg>