<?xml version="1.0" encoding="UTF-8"?>
<svg width="49px" height="48px" viewBox="0 0 49 48" version="1.1" xmlns="http://www.w3.org/2000/svg" xmlns:xlink="http://www.w3.org/1999/xlink">
    <!-- Generator: sketchtool 61.1 (101010) - https://sketch.com -->
    <title>EC1035BF-71C5-4FCC-84CC-3F823CC7F4B1</title>
    <desc>Created with sketchtool.</desc>
    <g id="Pages" stroke="none" stroke-width="1" fill="none" fill-rule="evenodd">
        <g id="SDKs-&amp;-Tools" transform="translate(-674.000000, -1200.000000)" fill="#D9725C" fill-rule="nonzero">
            <g id="webhooks-handler-icon-48x48" transform="translate(674.000000, 1200.000000)">
                <path d="M31.153,34.597 L24.353,37.841 L19.63,34.878 L27.723,30.613 L26.038,28.838 C24.2676019,26.9257886 21.4306705,26.4472849 19.131,27.673 L14.02,30.364 L7.52,27.264 L0,44.173 L6.663,47.346 L7.706,45.002 L26.333,45.002 L41.28,37.254 L37.501,34.821 C35.724,33.573 33.661,33.495 31.153,34.597 Z M5.671,44.657 L2.619,43.204 L8.512,29.951 L11.563,31.404 L5.671,44.657 Z M25.844,43 L8.595,43 L12.964,33.173 L20.064,29.433 C21.5092435,28.6676964 23.2838057,28.9275068 24.449,30.075 L14.804,35.157 L15.734,36.928 L17.586,35.952 L24.22,40.117 L31.988,36.412 C33.817,35.612 35.165,35.622 36.388,36.476 L37.298,37.062 L25.844,43 Z M48.459,21.766 C48.3419068,22.8991733 47.6864787,23.906694 46.698,24.473 C46.3827131,24.6412721 46.0016039,24.6285584 45.6982325,24.439648 C45.3948612,24.2507376 45.215317,23.9143305 45.2272325,23.557148 C45.2391481,23.1999655 45.4407131,22.8762721 45.756,22.708 C46.1739049,22.4347863 46.4410773,21.9828474 46.479,21.485 C46.5582503,20.7104676 46.3976755,19.9302837 46.019,19.25 C45.271,17.85 43.887,17.068 43,17.55 C42.8251918,17.6367816 42.6284898,17.6695072 42.435,17.644 C42.3564426,17.8079353 42.2334433,17.946526 42.08,18.044 C41.8521799,18.1797942 41.579746,18.2195238 41.3226327,18.1544484 C41.0655193,18.089373 40.8447885,17.9248235 40.709,17.697 L33.446,5.511 C33.1632302,5.03631126 33.3188113,4.42226983 33.7935,4.13950005 C34.2681888,3.85673027 34.8822302,4.01231129 35.165,4.487 L41.953,15.873 C41.9862448,15.8412384 42.0216641,15.8118337 42.059,15.785 C43.971,14.769 46.483,15.879 47.783,18.315 C48.3643486,19.3660912 48.6008135,20.573252 48.459,21.766 Z M24.439,20.504 L31.218,8.636 C29.3260013,6.97274435 28.9937643,4.15002401 30.447874,2.09292811 C31.9019836,0.0358322 34.6738214,-0.592695297 36.873,0.636 C37.3081762,0.926510917 37.4458319,1.50337359 37.1887248,1.95908278 C36.9316177,2.41479197 36.3666831,2.59525943 35.893,2.373 C34.9804074,1.8385758 33.8504542,1.83818948 32.9374964,2.37198956 C32.0245386,2.90578964 31.4706763,3.89069119 31.4888152,4.94809624 C31.5069541,6.00550129 32.0942709,6.97082685 33.025,7.473 L33.025,7.473 L33.025,7.473 C33.064892,7.50335188 33.1023403,7.53678788 33.137,7.573 C33.2054042,7.61917405 33.2678727,7.6735821 33.323,7.735 C33.3380509,7.76161905 33.3517353,7.78898788 33.364,7.817 C33.4201288,7.89773899 33.4639411,7.98637473 33.494,8.08 C33.494,8.092 33.494,8.105 33.494,8.117 C33.553956,8.35975281 33.5200258,8.61619325 33.399,8.835 L33.391,8.846 L26.175,21.496 C25.8944818,21.9610043 25.2941142,22.1171324 24.8226019,21.8476968 C24.3510895,21.5782611 24.1807978,20.9817563 24.439,20.504 L24.439,20.504 Z M44.753,20.633 C44.753,21.1852847 44.3052847,21.633 43.753,21.633 L30.311,21.633 C29.7993678,24.1081975 27.497743,25.7947815 24.9834051,25.5369536 C22.4690672,25.2791257 20.557638,23.1605222 20.5589993,20.633 C20.5589993,20.0807153 21.0067153,19.633 21.5589993,19.633 C22.1112847,19.633 22.5589993,20.0807153 22.5589993,20.633 C22.5394338,21.6914322 23.0929026,22.6779456 24.0064098,23.2128907 C24.919917,23.7478357 26.051083,23.7478357 26.9645902,23.2128907 C27.8780974,22.6779456 28.4315662,21.6914322 28.412,20.633 C28.412,20.0807153 28.8597153,19.633 29.412,19.633 L43.753,19.633 C44.3052847,19.633 44.753,20.0807153 44.753,20.633 Z" id="Shape"></path>
            </g>
        </g>
    </g>
</svg>