<?xml version="1.0" encoding="UTF-8"?>
<svg width="47px" height="48px" viewBox="0 0 47 48" version="1.1" xmlns="http://www.w3.org/2000/svg" xmlns:xlink="http://www.w3.org/1999/xlink">
    <!-- Generator: sketchtool 61.1 (101010) - https://sketch.com -->
    <title>7ABA5883-D2E2-4B8D-9E88-BCC33EDCAE38</title>
    <desc>Created with sketchtool.</desc>
    <g id="Pages" stroke="none" stroke-width="1" fill="none" fill-rule="evenodd">
        <g id="SDKs-&amp;-Tools" transform="translate(-422.000000, -1200.000000)" fill="#D9725C" fill-rule="nonzero">
            <g id="webhook-provisioner-icon-48x48" transform="translate(421.000000, 1200.000000)">
                <path d="M30.004,40.459 C30.3943819,40.8494999 30.3943819,41.4825001 30.004,41.873 L24.726,47.151 C24.3355001,47.5413819 23.7024999,47.5413819 23.312,47.151 L18.033,41.873 C17.6425347,41.4822585 17.6427586,40.8489653 18.0335,40.4585 C18.4242415,40.0680347 19.0575347,40.0682586 19.448,40.459 L23.248,44.259 L23.248,27.301 L23.248,27.286 L7.538,17.086 L8.648,22.344 C8.76315135,22.8844106 8.41841061,23.4158486 7.87799999,23.531 C7.33758938,23.6461513 6.80615138,23.3014106 6.691,22.761 L5.148,15.459 C5.09257317,15.1994743 5.14257808,14.92856 5.28700179,14.7059224 C5.43142549,14.4832848 5.65842266,14.3271843 5.918,14.272 L13.216,12.722 C13.565763,12.6476888 13.9286019,12.7656187 14.1678389,13.0313667 C14.4070758,13.2971147 14.486365,13.6703074 14.3758389,14.0103667 C14.2653128,14.350426 13.981763,14.6056888 13.632,14.68 L9.012,15.662 L24.26,25.562 L39.507,15.662 L34.887,14.68 C34.3463132,14.5651248 34.0011248,14.0336868 34.116,13.493 C34.2308752,12.9523132 34.7623132,12.6071248 35.303,12.722 L42.603,14.275 C42.8625773,14.3301843 43.0895745,14.4862848 43.2339982,14.7089224 C43.3784219,14.93156 43.4284268,15.2024743 43.373,15.462 L41.822,22.762 C41.7475101,23.1115844 41.4921776,23.3948738 41.1521837,23.5051559 C40.8121898,23.6154379 40.4391877,23.5359582 40.1736837,23.2966559 C39.9081797,23.0573535 39.7905101,22.6945844 39.865,22.345 L40.983,17.086 L25.274,27.286 C25.263,27.308 25.26,27.332 25.247,27.353 L25.247,43.8 L28.588,40.459 C28.7756085,40.2709166 29.0303455,40.1652124 29.296,40.1652124 C29.5616545,40.1652124 29.8163915,40.2709166 30.004,40.459 Z M46.581,31.195 C44.7296513,27.7386516 40.5950865,26.2007272 36.935,27.607 L35.125,24.322 C34.8585226,23.8381986 34.2503014,23.6620226 33.7665,23.9285 C33.2826986,24.1949774 33.1065226,24.8031986 33.373,25.287 L35.629,29.381 C35.7570354,29.6133959 35.9721808,29.7853812 36.2270688,29.8590905 C36.4819567,29.9327998 36.7556893,29.9021899 36.988,29.774 C36.988,29.774 36.996,29.766 37.001,29.763 L37.009,29.763 C38.8280178,28.7914162 41.0271932,28.8640702 42.7781183,29.9535939 C44.5290434,31.0431176 45.565711,32.9839864 45.4976183,35.0450939 C45.4295257,37.1062014 44.2670178,38.9744162 42.448,39.946 C42.1227573,40.1085518 41.9113752,40.4348325 41.8959597,40.7981069 C41.8805442,41.1613812 42.0635246,41.5043967 42.3738271,41.6939178 C42.6841296,41.883439 43.07285,41.889597 43.389,41.71 C47.1695956,39.684127 48.597413,34.9806496 46.581,31.195 L46.581,31.195 Z M39.726,38.7560051 C37.9595415,38.7498982 36.4177597,37.5572532 35.968,35.849 L28.248,35.805 C27.6957153,35.8036193 27.2491193,35.3547847 27.2504968,34.8025 C27.2518807,34.2502153 27.7007153,33.8036193 28.253,33.805 L28.259,33.805 L35.975,33.849 C36.4998024,31.8985117 38.4285527,30.6728287 40.4172922,31.0260105 C42.4060317,31.3791922 43.7948122,33.194038 43.6159275,35.2059581 C43.4370428,37.2178782 41.7498544,38.7592321 39.73,38.7560051 L39.726,38.7560051 Z M41.626,34.856 C41.626,33.806659 40.775341,32.956 39.726,32.956 C38.676659,32.956 37.826,33.806659 37.826,34.856 C37.826,35.905341 38.676659,36.7560003 39.726,36.7560003 C40.2304313,36.7562658 40.7142641,36.5559304 41.0708572,36.1991498 C41.4274502,35.8423692 41.6275311,35.3584311 41.6270011,34.854 L41.626,34.856 Z M19.554,13.956 L17.41,17.264 C17.1094095,17.7271146 17.241017,18.3462069 17.704,18.647 C17.8653851,18.7525606 18.0541583,18.808532 18.247,18.8080038 C18.5862184,18.8083102 18.9024652,18.6366334 19.087,18.352 L21.767,14.218 L21.767,14.204 C21.776,14.19 21.789,14.18 21.797,14.165 C21.8257488,14.1008467 21.8475399,14.0337972 21.862,13.965 C21.8804882,13.9184064 21.8958554,13.8706342 21.908,13.822 C21.9165036,13.7455691 21.9165036,13.6684309 21.908,13.592 C21.9071895,13.5410935 21.9028457,13.4903048 21.895,13.44 C21.8741223,13.3704051 21.8456159,13.3033312 21.81,13.24 C21.7893692,13.1890704 21.7646205,13.1399076 21.736,13.093 C21.6897273,13.0364265 21.637041,12.9854181 21.579,12.941 C21.5460396,12.9026974 21.5099119,12.8672388 21.471,12.835 C21.463,12.829 21.453,12.829 21.444,12.824 C21.435,12.819 21.429,12.808 21.419,12.803 C19.6212395,11.7922957 18.4992447,9.89927253 18.4756601,7.83701412 C18.4520755,5.7747557 19.5304842,3.85656812 21.3046601,2.80501408 C23.078836,1.75346003 25.2792395,1.72829561 27.077,2.739 C27.5585923,3.0096195 28.1683804,2.83859227 28.439,2.35699998 C28.7096195,1.87540769 28.5385923,1.26561954 28.057,0.995 C24.497736,-1.00342066 19.9988994,0.0942590348 17.7600084,3.50738256 C15.5211174,6.92050609 16.3062371,11.4842785 19.557,13.953 L19.554,13.956 Z M26.979,10.556 L31.101,17.29 C31.345919,17.7557993 31.1879063,18.3317146 30.739573,18.6073077 C30.2912397,18.8829008 29.7060274,18.7638503 29.401,18.335 L25.24,11.535 C24.916745,11.62384 24.5832342,11.6698994 24.248,11.672 C22.3753783,11.6781556 20.7604687,10.3576653 20.3945969,8.52112295 C20.0287251,6.68458062 21.0142974,4.84602815 22.7463119,4.13407633 C24.4783265,3.42212451 26.4719985,4.03604619 27.5034958,5.59898041 C28.534993,7.16191463 28.3156029,9.23640153 26.98,10.549 L26.979,10.556 Z M24.248,9.672 C25.297341,9.672 26.148,8.82134102 26.148,7.772 C26.148,6.72265898 25.297341,5.872 24.248,5.872 C23.198659,5.872 22.348,6.72265898 22.348,7.772 C22.3512938,8.81997365 23.2000263,9.66870619 24.248,9.672 L24.248,9.672 Z M15.126,25.286 L11.436,32.022 C12.9078874,33.3897024 13.133519,35.638367 11.9627099,37.2712382 C10.7919008,38.9041095 8.58975358,39.4119966 6.82206072,38.4568398 C5.05436786,37.501683 4.27236279,35.3813364 4.99656349,33.5071443 C5.72076419,31.6329523 7.72533751,30.5893587 9.676,31.071 L13.376,24.328 C13.5476661,24.0146781 13.8734474,23.8167394 14.2306252,23.8087457 C14.587803,23.8007519 14.9221136,23.9839175 15.1076252,24.2892457 C15.2931369,24.5945739 15.3016661,24.9756781 15.13,25.289 L15.126,25.286 Z M10.674,34.854 C10.674,33.804659 9.82334102,32.954 8.774,32.954 C7.72465898,32.954 6.874,33.804659 6.874,34.854 C6.874,35.903341 7.72465898,36.754 8.774,36.754 C9.82334102,36.754 10.674,35.903341 10.674,34.854 L10.674,34.854 Z M21.2480517,34.795 C21.242516,34.2466245 20.796403,33.805 20.248,33.805 L20.238,33.805 L15.532,33.854 C14.9836245,33.859484 14.5419726,34.305597 14.542,34.854 C14.5004318,38.0118845 11.9286581,40.550028 8.7705,40.550028 C5.61234193,40.550028 3.04056821,38.0118845 2.99899961,34.854 C2.99899961,34.3017153 2.55128475,33.854 1.99899961,33.854 C1.44671525,33.854 0.998999613,34.3017153 0.998999613,34.854 C0.997718572,38.9547181 4.18263946,42.3508816 8.27499838,42.6125854 C12.3673573,42.8742891 15.9589305,39.911478 16.48,35.844 L20.259,35.805 C20.8109043,35.7989566 21.2535525,35.3469095 21.2480517,34.795 Z" id="Shape"></path>
            </g>
        </g>
    </g>
</svg>