<?xml version="1.0" encoding="UTF-8"?>
<svg width="48px" height="43px" viewBox="0 0 48 43" version="1.1" xmlns="http://www.w3.org/2000/svg" xmlns:xlink="http://www.w3.org/1999/xlink">
    <!-- Generator: sketchtool 61.1 (101010) - https://sketch.com -->
    <title>CCBB2F31-E28D-4486-A040-CA90FA2C0CEA</title>
    <desc>Created with sketchtool.</desc>
    <g id="Pages" stroke="none" stroke-width="1" fill="none" fill-rule="evenodd">
        <g id="SDKs-&amp;-Tools" transform="translate(-928.000000, -1203.000000)" fill="#D9725C" fill-rule="nonzero">
            <g id="webhook-receiver-icon-48x48" transform="translate(928.000000, 1202.000000)">
                <path d="M36.25,21.315 C34.8338178,21.3154711 33.4311983,21.5909007 32.12,22.126 L25.966,11.566 C27.4606768,10.1557207 27.6710415,7.85304512 26.4566515,6.19527454 C25.2422615,4.53750397 22.9833429,4.04368725 21.1879842,5.04350394 C19.3926255,6.04332063 18.6229544,8.22372761 19.3928151,10.129052 C20.1626757,12.0343763 22.2310244,13.06806 24.217,12.54 L30.343,23.051 C26.3782284,25.5514156 24.4523673,30.3038854 25.558,34.859 L14.542,34.859 C13.9897153,34.859 13.542,35.3067153 13.542,35.859 C13.542,39.0462353 10.9582353,41.63 7.771,41.63 C4.58376471,41.63 1.99999854,39.0462353 1.99999854,35.859 C1.99999854,35.3067153 1.55228475,34.859 0.999998536,34.859 C0.44771525,34.859 -1.46398083e-06,35.3067153 -1.46398083e-06,35.859 C-0.00249303939,39.9581112 3.17939225,43.3542744 7.2699757,43.6185581 C11.3605592,43.8828418 14.9530047,40.9243535 15.478,36.859 L26.243,36.859 C28.5047903,41.8452792 34.0894456,44.4089945 39.3450625,42.8736881 C44.6006795,41.3383816 47.9270271,36.1715235 47.1489489,30.7518123 C46.3708708,25.3321011 41.725276,21.3097311 36.25,21.315 L36.25,21.315 Z M21.346,8.775 C21.346,7.72565898 22.196659,6.875 23.246,6.875 C24.295341,6.875 25.146,7.72565898 25.146,8.775 C25.146,9.82434102 24.295341,10.675 23.246,10.675 C22.1980263,10.6717062 21.3492938,9.82297365 21.346,8.775 L21.346,8.775 Z M36.25,41.315 C31.2794373,41.315 27.25,37.2855627 27.25,32.315 C27.25,27.3444373 31.2794373,23.315 36.25,23.315 C41.2205627,23.315 45.25,27.3444373 45.25,32.315 C45.2444889,37.2832782 41.2182782,41.3094889 36.25,41.315 Z M7.772,39.7610079 C9.36871999,39.7642091 10.8055043,38.7920861 11.3964202,37.3087307 C11.9873361,35.8253752 11.6125548,34.1315891 10.451,33.036 L20.793,15.179 L20.802,15.167 C20.8516367,15.0731935 20.8854255,14.9718272 20.902,14.867 C20.902,14.842 20.923,14.819 20.926,14.793 C20.9315114,14.7045917 20.9254603,14.6158421 20.908,14.529 C20.9067389,14.4891864 20.903401,14.4494657 20.898,14.41 C20.8720599,14.3398861 20.8385271,14.2728204 20.798,14.21 C20.7772947,14.1599239 20.752894,14.1114569 20.725,14.065 C20.6760024,14.0119493 20.6217215,13.9640347 20.563,13.922 C20.5228278,13.8791835 20.4786236,13.8403373 20.431,13.806 L20.431,13.806 L20.431,13.806 C18.5736284,12.8285987 17.3933384,10.9198592 17.3487733,8.82148924 C17.3042082,6.72311928 18.4023949,4.76598951 20.2165944,3.71061151 C22.0307939,2.65523351 24.2749435,2.6680191 26.077,3.744 C26.5588684,4.01461953 27.1688805,3.84336844 27.4395,3.3615 C27.7101195,2.87963156 27.5388684,2.26961953 27.057,1.999 C23.4887125,-0.00944124898 18.974109,1.09683025 16.7386234,4.52744479 C14.5031379,7.95805933 15.3144841,12.5348704 18.593,14.988 L8.695,32.079 C8.39344854,32.0007788 8.08351205,31.9594763 7.772,31.956 C5.61670876,31.956 3.8695,33.7032088 3.8695,35.8585 C3.8695,38.0137912 5.61670876,39.7610079 7.772,39.7610079 Z M7.772,33.961 C8.82134102,33.961 9.672,34.811659 9.672,35.861 C9.672,36.910341 8.82134102,37.761 7.772,37.761 C6.72265898,37.761 5.87199341,36.910341 5.87199341,35.861 C5.87067163,35.3562229 6.07026306,34.871665 6.42672625,34.5142637 C6.78318945,34.1568625 7.26722117,33.956 7.772,33.956 L7.772,33.961 Z M40.525,28.247 L41.966,29.634 L34.734,37.144 L30.514,32.623 L31.977,31.258 L34.757,34.238 L40.525,28.247 Z" id="Shape"></path>
            </g>
        </g>
    </g>
</svg>