<svg width="1400" height="412" viewBox="0 0 1400 412" fill="none" xmlns="http://www.w3.org/2000/svg" style="background-color:#2D2D48">
<path fill-rule="evenodd" clip-rule="evenodd" d="M-1.11287 -75L-102 -16.7528V99.7416L-1.11287 157.989L99.7743 99.7416V-16.7528L-1.11287 -75ZM95.1145 -15.856L50.884 -41.3925V9.6805L95.1145 -15.856ZM47.7774 11.474V-43.1861L-50.0032 13.2676V126.175L-2.66613 98.8449V40.5977L47.7774 11.474ZM-2.66613 102.432L-46.8966 127.968L-2.66613 153.505V102.432ZM0.440392 153.505V42.3912L96.6677 -13.1657V97.9481L0.440392 153.505ZM44.6709 -44.9796L0.440392 -70.5161V-19.4431L44.6709 -44.9796ZM-2.66613 -17.6496L-53.1097 11.474V69.7213L-98.8935 96.1545V-14.9592L-2.66613 -70.5161V-17.6496ZM-97.3402 98.8449L-53.1097 73.3084V124.381L-97.3402 98.8449Z" fill="url(#paint0_linear_1_11)"/>
<path fill-rule="evenodd" clip-rule="evenodd" d="M197.704 -75L96.8172 -16.7528V99.7416L197.704 157.989L298.591 99.7416V-16.7528L197.704 -75ZM293.932 -15.856L249.701 -41.3925V9.6805L293.932 -15.856ZM246.595 11.474V-43.1861L148.814 13.2676V126.175L196.151 98.8449V40.5977L246.595 11.474ZM196.151 102.432L151.921 127.968L196.151 153.505V102.432ZM199.258 153.505V42.3912L295.485 -13.1657V97.9481L199.258 153.505ZM243.488 -44.9796L199.258 -70.5161V-19.4431L243.488 -44.9796ZM196.151 -17.6496L145.707 11.474V69.7213L99.9237 96.1545V-14.9592L196.151 -70.5161V-17.6496ZM101.477 98.8449L145.707 73.3084V124.381L101.477 98.8449Z" fill="url(#paint1_linear_1_11)"/>
<path fill-rule="evenodd" clip-rule="evenodd" d="M98.2957 96.6351L-2.59142 154.882V271.377L98.2957 329.624L199.183 271.377V154.882L98.2957 96.6351ZM194.523 155.779L150.293 130.243V181.316L194.523 155.779ZM147.186 183.109V128.449L49.4054 184.903V297.81L96.7424 270.48V212.233L147.186 183.109ZM96.7424 274.067L52.5119 299.604L96.7424 325.14V274.067ZM99.849 325.14V214.026L196.076 158.469V269.583L99.849 325.14ZM144.079 126.656L99.849 101.119V152.192L144.079 126.656ZM96.7424 153.986L46.2989 183.109V241.356L0.515099 267.79V156.676L96.7424 101.119V153.986ZM2.06835 270.48L46.2989 244.943V296.017L2.06835 270.48Z" fill="url(#paint2_linear_1_11)"/>
<path fill-rule="evenodd" clip-rule="evenodd" d="M297.113 97.4117L196.226 155.659V272.153L297.113 330.401L398 272.153V155.659L297.113 97.4117ZM393.34 156.556L349.11 131.019V182.092L393.34 156.556ZM346.003 183.886V129.226L248.223 185.679V298.587L295.56 271.257V213.009L346.003 183.886ZM295.56 274.844L251.329 300.38L295.56 325.917V274.844ZM298.666 325.917V214.803L394.893 159.246V270.36L298.666 325.917ZM342.897 127.432L298.666 101.896V152.969L342.897 127.432ZM295.56 154.762L245.116 183.886V242.133L199.332 268.566V157.452L295.56 101.896V154.762ZM200.885 271.257L245.116 245.72V296.793L200.885 271.257Z" fill="url(#paint3_linear_1_11)"/>
<path fill-rule="evenodd" clip-rule="evenodd" d="M1103.89 91L1003 149.247V265.742L1103.89 323.989L1204.77 265.742V149.247L1103.89 91ZM1200.11 150.144L1155.88 124.607V175.681L1200.11 150.144ZM1152.78 177.474V122.814L1055 179.268V292.175L1102.33 264.845V206.598L1152.78 177.474ZM1102.33 268.432L1058.1 293.968L1102.33 319.505V268.432ZM1105.44 319.505V208.391L1201.67 152.834V263.948L1105.44 319.505ZM1149.67 121.02L1105.44 95.4839V146.557L1149.67 121.02ZM1102.33 148.35L1051.89 177.474V235.721L1006.11 262.155V151.041L1102.33 95.4839V148.35ZM1007.66 264.845L1051.89 239.308V290.381L1007.66 264.845Z" fill="url(#paint4_linear_1_11)"/>
<path fill-rule="evenodd" clip-rule="evenodd" d="M1302.7 91L1201.82 149.247V265.742L1302.7 323.989L1403.59 265.742V149.247L1302.7 91ZM1398.93 150.144L1354.7 124.607V175.681L1398.93 150.144ZM1351.59 177.474V122.814L1253.81 179.268V292.175L1301.15 264.845V206.598L1351.59 177.474ZM1301.15 268.432L1256.92 293.968L1301.15 319.505V268.432ZM1304.26 319.505V208.391L1400.48 152.834V263.948L1304.26 319.505ZM1348.49 121.02L1304.26 95.4839V146.557L1348.49 121.02ZM1301.15 148.35L1250.71 177.474V235.721L1204.92 262.155V151.041L1301.15 95.4839V148.35ZM1206.48 264.845L1250.71 239.308V290.381L1206.48 264.845Z" fill="url(#paint5_linear_1_11)"/>
<path fill-rule="evenodd" clip-rule="evenodd" d="M1203.3 262.635L1102.41 320.882V437.377L1203.3 495.624L1304.18 437.377V320.882L1203.3 262.635ZM1299.52 321.779L1255.29 296.243V347.316L1299.52 321.779ZM1252.19 349.109V294.449L1154.41 350.903V463.81L1201.74 436.48V378.233L1252.19 349.109ZM1201.74 440.067L1157.51 465.604L1201.74 491.14V440.067ZM1204.85 491.14V380.026L1301.08 324.469V435.583L1204.85 491.14ZM1249.08 292.656L1204.85 267.119V318.192L1249.08 292.656ZM1201.74 319.986L1151.3 349.109V407.356L1105.52 433.79V322.676L1201.74 267.119V319.986ZM1107.07 436.48L1151.3 410.943V462.017L1107.07 436.48Z" fill="url(#paint6_linear_1_11)"/>
<path fill-rule="evenodd" clip-rule="evenodd" d="M1402.11 263.412L1301.23 321.659V438.153L1402.11 496.401L1503 438.153V321.659L1402.11 263.412ZM1498.34 322.556L1454.11 297.019V348.092L1498.34 322.556ZM1451 349.886V295.226L1353.22 351.679V464.587L1400.56 437.257V379.009L1451 349.886ZM1400.56 440.844L1356.33 466.38L1400.56 491.917V440.844ZM1403.67 491.917V380.803L1499.89 325.246V436.36L1403.67 491.917ZM1447.9 293.432L1403.67 267.896V318.969L1447.9 293.432ZM1400.56 320.762L1350.12 349.886V408.133L1304.33 434.566V323.452L1400.56 267.896V320.762ZM1305.89 437.257L1350.12 411.72V462.793L1305.89 437.257Z" fill="url(#paint7_linear_1_11)"/>
<defs>
  <linearGradient id="paint0_linear_1_11" x1="-85.5035" y1="294.642" x2="235.908" y2="-154.934" gradientUnits="userSpaceOnUse">
    <stop stop-color="#F3904A"/>
    <stop offset="0.999" stop-color="#AA437F"/>
  </linearGradient>
  <linearGradient id="paint1_linear_1_11" x1="-85.5035" y1="294.642" x2="235.908" y2="-154.934" gradientUnits="userSpaceOnUse">
    <stop stop-color="#F3904A"/>
    <stop offset="0.999" stop-color="#AA437F"/>
  </linearGradient>
  <linearGradient id="paint2_linear_1_11" x1="-85.5035" y1="294.642" x2="235.908" y2="-154.934" gradientUnits="userSpaceOnUse">
    <stop stop-color="#F3904A"/>
    <stop offset="0.999" stop-color="#AA437F"/>
  </linearGradient>
  <linearGradient id="paint3_linear_1_11" x1="-85.5035" y1="294.642" x2="235.908" y2="-154.934" gradientUnits="userSpaceOnUse">
    <stop stop-color="#F3904A"/>
    <stop offset="0.999" stop-color="#AA437F"/>
  </linearGradient>
  <linearGradient id="paint4_linear_1_11" x1="1019.5" y1="460.642" x2="1340.91" y2="11.0659" gradientUnits="userSpaceOnUse">
    <stop stop-color="#F3904A"/>
    <stop offset="0.999" stop-color="#AA437F"/>
  </linearGradient>
  <linearGradient id="paint5_linear_1_11" x1="1019.5" y1="460.642" x2="1340.91" y2="11.0659" gradientUnits="userSpaceOnUse">
    <stop stop-color="#F3904A"/>
    <stop offset="0.999" stop-color="#AA437F"/>
  </linearGradient>
  <linearGradient id="paint6_linear_1_11" x1="1019.5" y1="460.642" x2="1340.91" y2="11.0659" gradientUnits="userSpaceOnUse">
    <stop stop-color="#F3904A"/>
    <stop offset="0.999" stop-color="#AA437F"/>
  </linearGradient>
  <linearGradient id="paint7_linear_1_11" x1="1019.5" y1="460.642" x2="1340.91" y2="11.0659" gradientUnits="userSpaceOnUse">
    <stop stop-color="#F3904A"/>
    <stop offset="0.999" stop-color="#AA437F"/>
  </linearGradient>
</defs>
</svg>

