<svg id="Layer_1" data-name="Layer 1" xmlns="http://www.w3.org/2000/svg" width="48" height="48" viewBox="0 0 48 48">
  <defs>
    <style>
      .cls-1 {
        fill: none;
        stroke: #d9725c;
        stroke-linecap: round;
        stroke-linejoin: round;
        stroke-width: 2px;
      }
    </style>
  </defs>
  <title>icon-add-bank-dwolla-js-48x48</title>
  <g>
    <path class="cls-1" d="M16,24h6v8a4,4,0,0,1-4,4h0a4,4,0,0,1-4-4h0"/>
    <path class="cls-1" d="M34,26a2,2,0,0,0-2-2H28.472A2.472,2.472,0,0,0,26,26.472h0a2.47,2.47,0,0,0,1.367,2.211l5.266,2.634A2.47,2.47,0,0,1,34,33.528h0A2.472,2.472,0,0,1,31.528,36H28a2,2,0,0,1-2-2"/>
    <g>
      <g>
        <polyline class="cls-1" points="40 20 40 2 18 2 8 12 8 20"/>
        <polyline class="cls-1" points="40 40 40 46 8 46 8 40"/>
        <polygon class="cls-1" points="8 12 18 12 18 2 8 12"/>
      </g>
      <rect class="cls-1" x="4" y="20" width="40" height="20"/>
    </g>
  </g>
</svg>
