<svg id="Layer_1" data-name="Layer 1" xmlns="http://www.w3.org/2000/svg" width="48" height="48" viewBox="0 0 48 48">
  <defs>
    <style>
      .cls-1 {
        fill: #d9725c;
      }
    </style>
  </defs>
  <title>icon-add-verify-bank-iav-48x48</title>
  <g>
    <path class="cls-1" d="M35.2,15.4,22.247,32.568l-9.614-7.855a1,1,0,0,0-1.266,1.549l10.42,8.512a1,1,0,0,0,.632.226.966.966,0,0,0,.12-.007,1.006,1.006,0,0,0,.679-.39l13.58-18a1,1,0,0,0-1.6-1.2v0Z"/>
    <path class="cls-1" d="M24,1A23,23,0,1,0,47,24,23,23,0,0,0,24,1Zm0,44A21,21,0,1,1,45,24,21,21,0,0,1,24,45Z"/>
  </g>
</svg>
