<?xml version="1.0" encoding="UTF-8"?>
<svg width="34px" height="46px" viewBox="0 0 34 46" version="1.1" xmlns="http://www.w3.org/2000/svg" xmlns:xlink="http://www.w3.org/1999/xlink">
    <!-- Generator: sketchtool 61.1 (101010) - https://sketch.com -->
    <title>3059E434-7E5B-44E4-A642-F89CB0CCA3F8</title>
    <desc>Created with sketchtool.</desc>
    <g id="Pages" stroke="none" stroke-width="1" fill="none" fill-rule="evenodd">
        <g id="Home-page-01" transform="translate(-428.000000, -715.000000)" fill="#D9725C" fill-rule="nonzero">
            <g id="Group-7" transform="translate(391.000000, 684.000000)">
                <g id="api-reference-icon-48x48" transform="translate(37.000000, 31.000000)">
                    <path d="M33.988,10.939 C33.9822842,10.8504094 33.9647972,10.7629743 33.936,10.679 C33.925,10.647 33.917,10.617 33.903,10.586 C33.8543283,10.4771943 33.7865961,10.3779666 33.703,10.293 L23.703,0.293 C23.6180766,0.211103832 23.5191851,0.145063241 23.411,0.098 C23.3783829,0.0843797515 23.3449917,0.0726928402 23.311,0.063 C23.229558,0.0353473064 23.1448302,0.0185362181 23.059,0.013 C23.0396213,0.00744978402 23.0199168,0.00310809843 23,0 L1,0 C0.44771525,0 0,0.44771525 0,1 L0,45 C0,45.5522847 0.44771525,46 1,46 L33,46 C33.5522847,46 34,45.5522847 34,45 L34,11 C34,10.979 33.989,10.96 33.988,10.939 Z M24,3.414 L30.586,10 L24,10 L24,3.414 Z M32,44 L2,44 L2,2 L22,2 L22,11 C22,11.5522847 22.4477153,12 23,12 L32,12 L32,44 Z" id="Shape"></path>
                    <path d="M20.352,16.063 C20.1035083,15.9693842 19.8279859,15.9784454 19.586182,16.0881857 C19.3443782,16.197926 19.1561502,16.3993334 19.063,16.648 L13.063,32.648 C12.9693842,32.8964917 12.9784454,33.1720141 13.0881857,33.413818 C13.197926,33.6556218 13.3993334,33.8438498 13.648,33.937 C13.7608053,33.9782049 13.8799056,33.9995211 14,34.0000005 C14.4168678,34.0004168 14.7902627,33.7421885 14.937,33.352 L20.937,17.352 C21.0306158,17.1035083 21.0215546,16.8279859 20.9118143,16.586182 C20.802074,16.3443782 20.6006666,16.1561502 20.352,16.063 Z" id="Path"></path>
                    <path d="M12.9,20.553 C12.7815321,20.3155515 12.5735446,20.1349258 12.3218386,20.0508988 C12.0701326,19.9668717 11.7953497,19.9863341 11.558,20.105 L3.558,24.105 C3.21858549,24.2741635 3.00406614,24.6207659 3.00406614,25 C3.00406614,25.3792341 3.21858549,25.7258365 3.558,25.895 L11.558,29.895 C11.8777527,30.0546977 12.2584141,30.0316785 12.5565927,29.8346134 C12.8547714,29.6375483 13.0251668,29.2963762 13.0035928,28.9396134 C12.9820187,28.5828505 12.7717527,28.2646977 12.452,28.105 L6.236,25 L12.447,21.9 C12.6866347,21.7824431 12.8693276,21.5739637 12.9544098,21.3209708 C13.039492,21.0679779 13.0199018,20.79147 12.9,20.553 L12.9,20.553 Z" id="Path"></path>
                    <path d="M21.105,20.553 C20.9863341,20.7903497 20.9668717,21.0651326 21.0508988,21.3168386 C21.1349258,21.5685446 21.3155515,21.7765321 21.553,21.895 L27.764,25 L21.553,28.105 C21.0587052,28.3518713 20.8581287,28.9527051 21.105,29.447 C21.3518713,29.9412948 21.9527052,30.1418713 22.447,29.895 L30.447,25.895 C30.7864145,25.7258365 31.0009339,25.3792341 31.0009339,25 C31.0009339,24.6207659 30.7864145,24.2741635 30.447,24.105 L22.447,20.105 C22.2096503,19.9863341 21.9348674,19.9668717 21.6831614,20.0508988 C21.4314554,20.1349258 21.2234679,20.3155515 21.105,20.553 L21.105,20.553 Z" id="Path"></path>
                </g>
            </g>
        </g>
    </g>
</svg>