<svg xmlns="http://www.w3.org/2000/svg" viewBox="0 0 46 46"><g transform="translate(1 1)" fill="none" fill-rule="evenodd"><circle stroke="#D9725C" stroke-width="2" cx="22" cy="22" r="22"/><circle stroke="#D9725C" stroke-width="2" cx="22" cy="22" r="17"/><path d="M22.223 13a5.425 5.425 0 014.117 1.384 4.753 4.753 0 011.306 3.391 6.543 6.543 0 01-1.406 4 13.256 13.256 0 01-3.548 3.235H27.8v4H16.265v-3.737a44.106 44.106 0 004.63-3.927 4.741 4.741 0 001.707-3.08c0-.743-.26-1.114-.781-1.115a.656.656 0 00-.636.39A3.8 3.8 0 0021 19h-4.8a6.768 6.768 0 01.9-3.414 5.061 5.061 0 012.175-1.964A6.876 6.876 0 0122.223 13m0-2a8.9 8.9 0 00-3.791.812 7.049 7.049 0 00-3.026 2.717 8.748 8.748 0 00-1.207 4.41L14.133 21h4.214a52.004 52.004 0 01-3.288 2.675l-.794.6V31H29.8v-8h-1.987l.027-.035a8.528 8.528 0 001.806-5.195 6.719 6.719 0 00-1.846-4.759A7.331 7.331 0 0022.223 11z" fill="#D9725C" fill-rule="nonzero"/></g></svg>