<svg id="Layer_1" data-name="Layer 1" xmlns="http://www.w3.org/2000/svg" width="48" height="48" viewBox="0 0 48 48">
  <defs>
    <style>
      .cls-1 {
        fill: #d9725c;
      }
    </style>
  </defs>
  <title>bank-icon-48x48</title>
  <path class="cls-1" d="M47.9,46.553l-2-4-2-4A1,1,0,0,0,43,38H42V20h3a1,1,0,0,0,1-1V15l0-.013a.98.98,0,0,0-.07-.351c-.014-.034-.035-.063-.052-.095a.972.972,0,0,0-.137-.2,29.642,29.642,0,0,0-.183-.171l-21-14a1,1,0,0,0-1.11,0l-21,14a.937.937,0,0,0-.086.081,1.023,1.023,0,0,0-.1.089.976.976,0,0,0-.138.206.805.805,0,0,0-.05.091A.961.961,0,0,0,2,14.987L2,15v4a1,1,0,0,0,1,1H6V38H5a1,1,0,0,0-.895.553l-2,4-2,4A1,1,0,0,0,1,48H47a1,1,0,0,0,.9-1.447ZM40,38H36V20h4ZM28,38V20h6V38ZM14,38V20h6V38Zm8-18h4V38H22ZM24,2.2,41.7,14H6.3ZM4,16H44v2H4Zm4,4h4V38H8ZM5.618,40H42.382l1,2H4.618Zm-3,6,1-2H44.382l1,2Z" transform="translate(0 0)"/>
</svg>
