<?xml version="1.0" encoding="UTF-8"?>
<svg id="Layer_1" data-name="Layer 1" xmlns="http://www.w3.org/2000/svg" viewBox="0 0 48 48">
  <defs>
    <style>
      .cls-1 {
        fill: #e37c53;
      }
    </style>
  </defs>
  <g>
    <path class="cls-1" d="M33.8,32.2c0,0-.1,0-.2,0-.3,0-.4-.4-.3-.6l3.1-8.3c0-.3,.4-.4,.6-.3,.3,0,.4,.4,.3,.6l-3.1,8.3c0,.2-.3,.3-.5,.3Z"/>
    <path class="cls-1" d="M32.8,30.1c0,0-.2,0-.2,0l-4.1-2.1c-.2,0-.3-.3-.3-.4s.1-.4,.3-.4l4.1-2.1c.2-.1,.5,0,.7,.2,.1,.2,0,.5-.2,.7l-3.2,1.6,3.2,1.6c.2,.1,.3,.4,.2,.7,0,.2-.3,.3-.4,.3Z"/>
    <path class="cls-1" d="M38,30.1c-.2,0-.4-.1-.4-.3-.1-.2,0-.5,.2-.7l3.2-1.6-3.2-1.6c-.2-.1-.3-.4-.2-.7,.1-.2,.4-.3,.7-.2l4.1,2.1c.2,0,.3,.3,.3,.4s-.1,.4-.3,.4l-4.1,2.1c0,0-.1,0-.2,0Z"/>
  </g>
  <g>
    <path class="cls-1" d="M12.3,13.1H4.3c-.5,0-.9-.4-.9-.9s.4-.9,.9-.9h8c.5,0,.9,.4,.9,.9s-.4,.9-.9,.9Z"/>
    <path class="cls-1" d="M37.5,13.1H15.8c-.5,0-.9-.4-.9-.9s.4-.9,.9-.9h21.7c.5,0,.9,.4,.9,.9s-.4,.9-.9,.9Z"/>
  </g>
  <path class="cls-1" d="M20.5,26.2H4.3c-.5,0-.9-.4-.9-.9s.4-.9,.9-.9H20.5c.5,0,.9,.4,.9,.9s-.4,.9-.9,.9Z"/>
  <path class="cls-1" d="M12.3,21.8H4.3c-.5,0-.9-.4-.9-.9s.4-.9,.9-.9h8c.5,0,.9,.4,.9,.9s-.4,.9-.9,.9Z"/>
  <path class="cls-1" d="M23.4,22h-7.7c-.6,0-1-.4-1-1s.4-1,1-1h7.7c.6,0,1,.4,1,1s-.4,1-1,1Z"/>
  <g>
    <path class="cls-1" d="M15.5,17.5H4.3c-.5,0-.9-.4-.9-.9s.4-.9,.9-.9H15.5c.5,0,.9,.4,.9,.9s-.4,.9-.9,.9Z"/>
    <path class="cls-1" d="M28.7,17.5h-9.5c-.5,0-.9-.4-.9-.9s.4-.9,.9-.9h9.5c.5,0,.9,.4,.9,.9s-.4,.9-.9,.9Z"/>
  </g>
  <g>
    <path class="cls-1" d="M11,30.5H4.3c-.5,0-.9-.4-.9-.9s.4-.9,.9-.9h6.7c.5,0,.9,.4,.9,.9s-.4,.9-.9,.9Z"/>
    <path class="cls-1" d="M21.6,30.5h-6.7c-.5,0-.9-.4-.9-.9s.4-.9,.9-.9h6.7c.5,0,.9,.4,.9,.9s-.4,.9-.9,.9Z"/>
  </g>
  <path class="cls-1" d="M47.2,43.4l-4.6-8.3c1.3-1.3,2.2-2.8,2.7-4.7,.9-3.2,.2-6.5-1.6-9.1V4.1h0v-.4c0-1.5-1.2-2.6-2.6-2.6H3.4C1.9,1.1,.7,2.3,.7,3.7v4.5h0v24.7c0,1.7,1.3,3,3,3H28.3c1.1,.9,2.4,1.6,3.8,2,1.8,.5,3.7,.5,5.4,0l4.6,8.3c.3,.6,.9,1,1.5,1.2,.7,.2,1.4,.1,2-.2l.6-.3c.6-.3,1-.9,1.2-1.5,.2-.7,.1-1.4-.2-2ZM2,4.1c0-1,.8-1.8,1.8-1.8H40.7c1,0,1.8,.8,1.8,1.8v3.5H2v-3.5Zm1.8,30.5c-1,0-1.8-.8-1.8-1.8V8.8H42.5v11.1c-1.2-1.2-2.8-2.2-4.6-2.7-5.7-1.6-11.6,1.7-13.2,7.4-1,3.6,0,7.4,2.3,10H3.7Zm28.8,1.7c-4.8-1.4-7.7-6.4-6.3-11.3,1.4-4.8,6.4-7.7,11.3-6.3,2.1,.6,3.9,1.9,5,3.6h0s0,0,0,0c1.5,2.2,2,4.9,1.3,7.6-1.4,4.8-6.4,7.7-11.3,6.3Zm13.4,8.6c0,.3-.2,.5-.5,.6l-.6,.3c-.5,.3-1.1,0-1.4-.4h0l-4.4-7.8,2.3-1.3,4.4,7.8c.1,.2,.2,.5,0,.8Z"/>
  <circle class="cls-1" cx="4.9" cy="5.3" r="1.2"/>
  <circle class="cls-1" cx="8.7" cy="5.3" r="1.2"/>
  <circle class="cls-1" cx="12.4" cy="5.3" r="1.2"/>
</svg>