<svg xmlns="http://www.w3.org/2000/svg" viewBox="0 0 30 48"><g fill="#D9725C" fill-rule="nonzero"><path d="M29.557 11.5C27.544 4.722 21.592 0 15.077 0h-.041A15.63 15.63 0 00.899 10.144l-.067.172a9.2 9.2 0 00-.391 1.163 15.154 15.154 0 002.068 12c.35.551.689 1.11 1.016 1.677a19.05 19.05 0 011.895 4.173c.313 1.305.472 2.641.476 3.983.025.572.052 1.142.1 1.706V41a3 3 0 003 3h1.381l1.724 3.447a1 1 0 00.898.553h4a1 1 0 00.894-.553L19.617 44h1.382a3 3 0 003-3v-5.985c.045-.562.073-1.133.1-1.707.004-1.34.163-2.677.474-3.981a19.059 19.059 0 011.9-4.173c.327-.567.665-1.127 1.016-1.678A15.158 15.158 0 0029.557 11.5zM21.999 38h-14v-2h14v2zm-5.619 8h-2.763l-1-2h4.763l-1 2zm4.619-4h-12a1 1 0 01-1-1v-1h14v1a1 1 0 01-1 1zm4.8-19.595c-.366.577-.72 1.16-1.061 1.752a20.909 20.909 0 00-2.086 4.622 19.217 19.217 0 00-.553 4.441c-.012.26-.023.521-.037.78H7.935c-.014-.259-.024-.519-.036-.779a19.1 19.1 0 00-.55-4.443 20.888 20.888 0 00-2.085-4.621c-.34-.593-.7-1.175-1.06-1.752a13.4 13.4 0 01-1.832-10.394 8.3 8.3 0 01.332-.976l.07-.181A13.6 13.6 0 0115.042 2h.033c5.549 0 10.83 4.228 12.57 10.082.828 3.548.16 7.282-1.846 10.323z"/><path d="M14.617 4.011a11.562 11.562 0 00-9.977 7.561 1 1 0 001.871.707 9.666 9.666 0 018.2-6.27 1.001 1.001 0 10-.1-2l.006.002z"/></g></svg>