<?xml version="1.0" encoding="UTF-8"?>
<svg width="30px" height="48px" viewBox="0 0 30 48" version="1.1" xmlns="http://www.w3.org/2000/svg" xmlns:xlink="http://www.w3.org/1999/xlink">
    <!-- Generator: sketchtool 61.1 (101010) - https://sketch.com -->
    <title>42AC9901-71F9-4EAF-AD69-35A4EF0F9C8D</title>
    <desc>Created with sketchtool.</desc>
    <g id="Pages" stroke="none" stroke-width="1" fill="none" fill-rule="evenodd">
        <g id="Home-page-01" transform="translate(-1090.000000, -423.000000)" fill="#D9725C" fill-rule="nonzero">
            <g id="concepts-articles-48x48-02" transform="translate(1089.000000, 423.000000)">
                <path d="M30.557,11.5 C28.544,4.722 22.592,0 16.077,0 L16.036,0 C9.70317463,0.203343679 4.11965081,4.20979948 1.899,10.144 L1.832,10.316 C1.67593229,10.694534 1.54530853,11.0830645 1.441,11.479 C0.422244118,15.5922037 1.17221537,19.9440678 3.509,23.479 C3.859,24.0303333 4.19766667,24.5893333 4.525,25.156 C5.32230048,26.4656701 5.95857066,27.8668075 6.42,29.329 C6.73268943,30.6336972 6.89243126,31.9703604 6.896,33.312 C6.921,33.884 6.948,34.454 6.996,35.018 L6.996,41 C6.996,42.6568542 8.33914575,44 9.996,44 L11.377,44 L13.101,47.447 C13.2709062,47.787021 13.6188939,48.0013163 13.999,48 L17.999,48 C18.3776657,48 18.7237365,47.7857294 18.893,47.447 L20.617,44 L21.999,44 C23.6558542,44 24.999,42.6568542 24.999,41 L24.999,35.015 C25.044,34.453 25.072,33.882 25.099,33.308 C25.1031834,31.9671753 25.2622375,30.6313216 25.573,29.327 C26.0360936,27.8646077 26.6740424,26.4634707 27.473,25.154 C27.7996667,24.5866667 28.1383333,24.0273333 28.489,23.476 C30.8185432,19.9471752 31.5682228,15.6057039 30.557,11.5 L30.557,11.5 Z M22.999,38 L8.999,38 L8.999,36 L22.999,36 L22.999,38 Z M17.38,46 L14.617,46 L13.617,44 L18.38,44 L17.38,46 Z M21.999,42 L9.999,42 C9.44671525,42 8.999,41.5522847 8.999,41 L8.999,40 L22.999,40 L22.999,41 C22.999,41.5522847 22.5512847,42 21.999,42 Z M26.799,22.405 C26.433,22.9816667 26.0793333,23.5656667 25.738,24.157 C24.8577259,25.6073314 24.1572424,27.1594094 23.652,28.779 C23.2953358,30.232744 23.1097443,31.7231815 23.099,33.22 C23.087,33.48 23.076,33.741 23.062,34 L8.935,34 C8.921,33.741 8.911,33.481 8.899,33.221 C8.89046894,31.7235603 8.70586784,30.232319 8.349,28.778 C7.84419356,27.1587272 7.14403814,25.6069679 6.264,24.157 C5.924,23.564 5.564,22.982 5.204,22.405 C3.19716078,19.3368325 2.53506838,15.5803978 3.372,12.011 C3.46233582,11.6791015 3.57321631,11.3531396 3.704,11.035 L3.774,10.854 C5.69286941,5.69052324 10.5369363,2.19448738 16.042,2 L16.075,2 C21.624,2 26.905,6.228 28.645,12.082 C29.4734364,15.630496 28.8058809,19.3635268 26.799,22.405 Z" id="Shape"></path>
                <path d="M15.617,4.011 C11.0965585,4.35726567 7.195627,7.31355944 5.64,11.572 C5.51370661,11.906222 5.575312,12.2824325 5.80161001,12.5589168 C6.02790803,12.835401 6.38451862,12.9701545 6.73711002,12.9124168 C7.08970142,12.8546791 7.38470662,12.613222 7.511,12.279 C8.80613875,8.78229981 11.9970874,6.34239151 15.711,6.009 C16.0682656,5.99113673 16.3888627,5.78403145 16.5520254,5.46569873 C16.7151882,5.14736601 16.6961283,4.76616816 16.5020254,4.46569872 C16.3079226,4.16522929 15.9682656,3.99113672 15.611,4.009 L15.617,4.011 Z" id="Path"></path>
            </g>
        </g>
    </g>
</svg>