<svg xmlns="http://www.w3.org/2000/svg" viewBox="0 0 48 42"><g fill="#D9725C" fill-rule="nonzero"><path d="M47 0H17a1 1 0 00-1 1v9H1a1 1 0 00-1 1v22a1 1 0 001 1h3v7a1 1 0 001.707.707L13.414 34H31a1 1 0 001-1v-9h2.586l7.707 7.707A1 1 0 0044 31v-7h3a1 1 0 001-1V1a1 1 0 00-1-1zM30 32H13a1 1 0 00-.707.293L6 38.586V33a1 1 0 00-1-1H2V12h14v11a1 1 0 001 1h13v8zm16-10h-3a1 1 0 00-1 1v5.586l-6.293-6.293A1 1 0 0035 22H18V2h28v20z"/><path d="M40 14a2 2 0 100-4 2 2 0 000 4zM32 14a2 2 0 100-4 2 2 0 000 4zM24 14a2 2 0 100-4 2 2 0 000 4z"/></g></svg>