<svg id="Layer_1" data-name="Layer 1" xmlns="http://www.w3.org/2000/svg" width="48" height="48" viewBox="0 0 48 48"><defs><style>.cls-1,.cls-2,.cls-3,.cls-4,.cls-5{fill:none;stroke:#d9725c;stroke-linecap:round;stroke-linejoin:round;}.cls-1{stroke-width:1.97px;}.cls-2,.cls-3,.cls-4,.cls-5{stroke-width:2px;}.cls-3{stroke-dasharray:3 3;}.cls-4{stroke-dasharray:3.67 3.67;}.cls-5{stroke-dasharray:2.67 2.67;}</style></defs><path class="cls-1" d="M3.88,1H33.12A2.84,2.84,0,0,1,36,3.79V36.21A2.84,2.84,0,0,1,33.12,39H3.88A2.84,2.84,0,0,1,1,36.21V3.79A2.84,2.84,0,0,1,3.88,1Z"/><polyline class="cls-2" points="17 33.5 17 35 15.5 35"/><line class="cls-3" x1="12.5" y1="35" x2="8" y2="35"/><polyline class="cls-2" points="6.5 35 5 35 5 33.5"/><line class="cls-4" x1="5" y1="29.83" x2="5" y2="24.33"/><polyline class="cls-2" points="5 22.5 5 21 6.5 21"/><line class="cls-3" x1="9.5" y1="21" x2="14" y2="21"/><polyline class="cls-2" points="15.5 21 17 21 17 22.5"/><line class="cls-4" x1="17" y1="26.17" x2="17" y2="31.67"/><polyline class="cls-2" points="32 15.5 32 17 30.5 17"/><line class="cls-5" x1="27.83" y1="17" x2="7.83" y2="17"/><polyline class="cls-2" points="6.5 17 5 17 5 15.5"/><line class="cls-3" x1="5" y1="12.5" x2="5" y2="8"/><polyline class="cls-2" points="5 6.5 5 5 6.5 5"/><line class="cls-5" x1="9.17" y1="5" x2="29.17" y2="5"/><polyline class="cls-2" points="30.5 5 32 5 32 6.5"/><line class="cls-3" x1="32" y1="9.5" x2="32" y2="14"/><polyline class="cls-2" points="32 24.5 32 26 30.5 26"/><line class="cls-5" x1="27.83" y1="26" x2="23.83" y2="26"/><polyline class="cls-2" points="22.5 26 21 26 21 24.5"/><polyline class="cls-2" points="21 22.5 21 21 22.5 21"/><line class="cls-5" x1="25.17" y1="21" x2="29.17" y2="21"/><polyline class="cls-2" points="30.5 21 32 21 32 22.5"/><polyline class="cls-2" points="32 33.5 32 35 30.5 35"/><line class="cls-5" x1="27.83" y1="35" x2="23.83" y2="35"/><polyline class="cls-2" points="22.5 35 21 35 21 33.5"/><polyline class="cls-2" points="21 31.5 21 30 22.5 30"/><line class="cls-5" x1="25.17" y1="30" x2="29.17" y2="30"/><polyline class="cls-2" points="30.5 30 32 30 32 31.5"/><line class="cls-2" x1="32" y1="11" x2="41" y2="11"/><line class="cls-2" x1="32" y1="23" x2="41" y2="23"/><line class="cls-2" x1="32" y1="33" x2="41" y2="33"/><circle class="cls-2" cx="44" cy="11" r="3"/><circle class="cls-2" cx="44" cy="23" r="3"/><circle class="cls-2" cx="44" cy="33" r="3"/><circle class="cls-2" cx="44" cy="44" r="3"/><path class="cls-2" d="M11,35v7a2,2,0,0,0,2,2H41"/></svg>