<svg xmlns="http://www.w3.org/2000/svg" viewBox="0 0 42 46">
  <g fill="#D9725C" fill-rule="nonzero">
    <path d="M13 24h12a1 1 0 000-2H13a1 1 0 000 2zM13 18h12a1 1 0 000-2H13a1 1 0 000 2zM9 16H7a1 1 0 000 2h2a1 1 0 000-2zM9 22H7a1 1 0 000 2h2a1 1 0 000-2zM9 28H7a1 1 0 000 2h2a1 1 0 000-2zM9 34H7a1 1 0 000 2h2a1 1 0 000-2zM37.707 30.293a1 1 0 00-1.414 0L29 37.586l-3.293-3.293a1 1 0 00-1.414 1.414l4 4a1 1 0 001.414 0l8-8a1 1 0 000-1.414z"/>
    <path d="M32 24.051V5a3 3 0 00-3-3h-7V1a1 1 0 00-1-1H11a1 1 0 00-1 1v1H3a3 3 0 00-3 3v38a3 3 0 003 3h28a11 11 0 001-21.949zM12 2h8v3a1 1 0 01-1 1h-6a1 1 0 01-1-1V2zM3 44a1 1 0 01-1-1V5a1 1 0 011-1h7v1a3 3 0 003 3h6a3 3 0 003-3V4h7a1 1 0 011 1v19.051A10.989 10.989 0 0022.521 28H13a1 1 0 000 2h8.214a10.9 10.9 0 00-1.163 4H13a1 1 0 000 2h7.051a10.992 10.992 0 004.649 8H3zm28 0a9 9 0 119-9 9.01 9.01 0 01-9 9z"/>
  </g>
</svg>