<svg xmlns="http://www.w3.org/2000/svg" viewBox="4 4 40 40">
  <path fill="#D9725C" d="M24 44C13 44 4 35 4 24S13 4 24 4s20 9 20 20-9 20-20 20zm0-38C14.1 6 6 14.1 6 24s8.1 18 18 18 18-8.1 18-18S33.9 6 24 6z"/>
  <path fill="#D9725C" d="M24 39c-8.3 0-15-6.7-15-15S15.7 9 24 9s15 6.7 15 15-6.7 15-15 15zm0-28c-7.2 0-13 5.8-13 13s5.8 13 13 13 13-5.8 13-13-5.8-13-13-13z"/>
  <path fill="#D9725C" d="M28.5 31.7c-1.2 0-2.2-.7-2.6-1.9l-.6-1.8h-2.7l-.6 1.8c-.4 1.1-1.4 1.9-2.6 1.9-.3 0-.6 0-.8-.1-1.4-.4-2.2-1.9-1.8-3.4l3.5-11.1c.4-1.1 1.4-1.9 2.6-1.9h1.9c1.2 0 2.2.8 2.6 1.9l3.7 11c.5 1.4-.3 3-1.7 3.4-.3.2-.6.2-.9.2zM21.2 26h5.6l1.1 3.2c.1.4.5.6.9.4.4-.1.6-.5.4-.9l-3.7-11c-.1-.3-.4-.5-.7-.5H23c-.3 0-.6.2-.7.5l-3.5 11c-.1.4.1.8.5.9h.2c.3 0 .6-.2.7-.5l1-3.1z"/>
</svg>