<?xml version="1.0" encoding="UTF-8"?>
<svg width="122px" height="28px" viewBox="0 0 122 28" version="1.1" xmlns="http://www.w3.org/2000/svg" xmlns:xlink="http://www.w3.org/1999/xlink">
    <!-- Generator: sketchtool 61.1 (101010) - https://sketch.com -->
    <title>EC8B62F8-3652-44FD-8BCD-FAF83C140765</title>
    <desc>Created with sketchtool.</desc>
    <defs>
        <linearGradient x1="-16.835945%" y1="91.9396677%" x2="76.2190511%" y2="-1.11603514%" id="linearGradient-1">
            <stop stop-color="#C757BC" offset="10.8%"></stop>
            <stop stop-color="#CD5CA9" offset="17.3%"></stop>
            <stop stop-color="#E8744F" offset="49.2%"></stop>
            <stop stop-color="#F88316" offset="71.6%"></stop>
            <stop stop-color="#FF8900" offset="82.3%"></stop>
        </linearGradient>
        <linearGradient x1="31.9147883%" y1="71.4808182%" x2="77.2714743%" y2="48.9028175%" id="linearGradient-2">
            <stop stop-color="#00AFFF" offset="29.6%"></stop>
            <stop stop-color="#5282FF" offset="69.4%"></stop>
            <stop stop-color="#945DFF" offset="100%"></stop>
        </linearGradient>
        <linearGradient x1="3.50656059%" y1="52.2743702%" x2="59.7461762%" y2="-7.9890766%" id="linearGradient-3">
            <stop stop-color="#00AFFF" offset="29.6%"></stop>
            <stop stop-color="#5282FF" offset="69.4%"></stop>
            <stop stop-color="#945DFF" offset="100%"></stop>
        </linearGradient>
    </defs>
    <g id="Pages" stroke="none" stroke-width="1" fill="none" fill-rule="evenodd">
        <g id="Styles-&amp;-Components" transform="translate(-770.000000, -14919.000000)" fill-rule="nonzero">
            <g id="Full-Color-Logos" transform="translate(49.000000, 14905.000000)">
                <g id="kotlin-logo" transform="translate(721.000000, 14.000000)">
                    <g id="Group" transform="translate(33.845161, 0.000000)" fill="#000400">
                        <polygon id="Path" points="0.0104855844 1.09708298 5.63871338 1.09708298 5.63871338 12.2867867 16.0179956 1.09708298 22.8157276 1.09708298 12.3999266 11.9575714 23.2908331 26.6944799 16.5296198 26.6944799 8.5990831 15.7974522 5.63871338 18.8689228 5.63871338 26.694299 0.0104855844 26.694299"></polygon>
                        <path d="M20.2997297,17.0037913 L20.2997297,16.9310745 C20.2997297,11.2995025 24.8316716,6.72847412 30.9350049,6.72847412 C37.0018193,6.72847412 41.4972425,11.2264239 41.4972425,16.857815 L41.4972425,16.9310745 C41.4972425,22.5624656 36.9653006,27.1331322 30.8619673,27.1331322 C24.7951529,27.1331322 20.2997297,22.6353633 20.2997297,17.0037913 L20.2997297,17.0037913 Z M36.0150897,17.0037913 L36.0150897,16.9310745 C36.0150897,14.0419386 33.9318933,11.5189191 30.8619673,11.5189191 C27.6823043,11.5189191 25.7818825,13.9686791 25.7818825,16.857815 L25.7818825,16.9310745 C25.7818825,19.8198486 27.8650789,22.3428682 30.9350049,22.3428682 C34.1146679,22.3428682 36.0150897,19.8929272 36.0150897,17.0037913 L36.0150897,17.0037913 Z" id="Shape"></path>
                        <path d="M43.0306688,21.1361673 L43.0306688,11.8479535 L40.6916603,11.8479535 L40.6916603,7.09440963 L43.0306688,7.09440963 L43.0306688,2.08436722 L48.5858591,2.08436722 L48.5858591,7.09422875 L53.1908385,7.09422875 L53.1908385,11.8479535 L48.5858591,11.8479535 L48.5858591,20.2221425 C48.5858591,21.5017411 49.134002,22.1236324 50.3767246,22.1236324 C51.3344948,22.1282653 52.2777019,21.8890475 53.1176201,21.4284816 L53.1176201,25.8898921 C51.9481159,26.5846812 50.5960179,27.0235143 48.7321149,27.0235143 C45.3333393,27.0235143 43.0306688,25.6704755 43.0306688,21.1361673 Z M54.7853704,0 L60.3405607,0 L60.3405607,26.694299 L54.7853704,26.694299 L54.7853704,0 Z M62.3485501,0 L68.1958905,0 L68.1958905,4.93660207 L62.3485501,4.93660207 L62.3485501,0 Z M62.4949867,7.09422875 L68.0499962,7.09422875 L68.0499962,26.694299 L62.4948059,26.694299 L62.4949867,7.09422875 Z M70.163203,7.09422875 L75.7183933,7.09422875 L75.7183933,9.87320415 C76.9976346,8.22767012 78.6422443,6.72847412 81.4561774,6.72847412 C85.6592696,6.72847412 88.1078344,9.50763041 88.1078344,14.0055802 L88.1078344,26.694299 L82.5526441,26.694299 L82.5526441,15.7607321 C82.5526441,13.1279138 81.3099216,11.7748749 79.1902064,11.7748749 C77.0703105,11.7748749 75.7183933,13.1279138 75.7183933,15.7607321 L75.7183933,26.694299 L70.1630222,26.694299 L70.163203,7.09422875 Z" id="Shape"></path>
                    </g>
                    <polygon id="Path" fill="url(#linearGradient-1)" points="12.8433885 1.18064516 0 14.6870407 0 26.7612903 12.8247657 13.9139242 25.5806452 1.18064516"></polygon>
                    <polygon id="Path" fill="url(#linearGradient-2)" points="0 26.5645161 12.8247657 13.7741935 25.5806452 26.5645161"></polygon>
                    <polygon id="Path" fill="url(#linearGradient-3)" points="0 0.983870968 12.7903226 0.983870968 0 14.5612903"></polygon>
                </g>
            </g>
        </g>
    </g>
</svg>