<?xml version="1.0" encoding="utf-8"?>
<!-- Generator: Adobe Illustrator 24.0.1, SVG Export Plug-In . SVG Version: 6.00 Build 0)  -->
<svg version="1.1" id="Layer_1" xmlns="http://www.w3.org/2000/svg" xmlns:xlink="http://www.w3.org/1999/xlink" x="0px" y="0px"
	 width="48px" height="48px" viewBox="0 0 48 48" style="enable-background:new 0 0 48 48;" xml:space="preserve">
<style type="text/css">
	.st0{fill:none;stroke:#D9725C;stroke-width:2;stroke-linecap:round;stroke-linejoin:round;stroke-miterlimit:10;}
	.st1{fill:none;stroke:#D9725C;stroke-width:2;stroke-miterlimit:10;}
	.st2{fill:none;stroke:#D9725C;stroke-width:2;stroke-linecap:round;stroke-miterlimit:10;}
	.st3{fill:#D9725C;}
	.st4{fill:none;stroke:#D9725C;stroke-width:2;stroke-linecap:round;stroke-linejoin:round;}
</style>
<g>
	<path class="st3" d="M47.974,10.849c-0.004-0.052-0.013-0.104-0.026-0.155c-0.03-0.079-0.07-0.153-0.119-0.221
		c-0.019-0.042-0.041-0.082-0.065-0.121c-0.006-0.007-0.015-0.009-0.02-0.016s-0.007-0.014-0.013-0.021
		c-0.067-0.063-0.142-0.115-0.224-0.157c-0.029-0.024-0.061-0.046-0.093-0.065c-0.126-0.057-0.262-0.087-0.4-0.087l-0.009-0.003h-34
		c-0.057,0.005-0.114,0.016-0.169,0.031c-0.05,0.005-0.1,0.014-0.149,0.027c-0.097,0.034-0.188,0.083-0.27,0.146
		c-0.016,0.012-0.036,0.015-0.052,0.028v0.005c-0.096,0.081-0.175,0.18-0.234,0.291c-0.018,0.043-0.033,0.086-0.045,0.131
		c-0.028,0.061-0.05,0.124-0.065,0.189l-4,26c0,0.011,0,0.022,0,0.034c-0.009,0.1-0.002,0.202,0.019,0.3
		c0.002,0.034,0.005,0.067,0.011,0.1c0.039,0.133,0.105,0.257,0.194,0.363l0,0l0,0c0.094,0.11,0.212,0.198,0.344,0.258
		c0.122,0.054,0.254,0.083,0.388,0.085c0.009,0,0.017,0.006,0.027,0.006h34.001c0.111-0.001,0.221-0.021,0.326-0.059
		c0.036-0.016,0.072-0.033,0.106-0.053c0.051-0.02,0.1-0.045,0.146-0.073c0.012-0.008,0.018-0.022,0.03-0.031
		c0.066-0.054,0.124-0.117,0.174-0.186c0.027-0.029,0.052-0.059,0.075-0.091c0.045-0.08,0.078-0.167,0.1-0.256
		c0.008-0.031,0.026-0.059,0.032-0.091v-0.008l4-26c0-0.02-0.005-0.039,0-0.058C47.997,11.01,47.991,10.929,47.974,10.849z
		 M13.656,13.349l8.965,10.754l-12.216,10.4L13.656,13.349z M23.905,25.641l3.335,4c0.177,0.212,0.434,0.341,0.71,0.357l0.055,0.005
		c0.256,0,0.502-0.098,0.688-0.274l4.729-4.481l7.645,10.755H11.724L23.905,25.641z M28.095,27.541l-3.3-3.957l-0.006-0.012
		l-0.009-0.007l-9.64-11.562h29.356L28.095,27.541z M42.395,34.41l-7.5-10.555l10.683-10.12L42.395,34.41z"/>
	<path class="st3" d="M1.005,16.003h8c0.552,0,1-0.448,1-1s-0.448-1-1-1h-8c-0.552,0-1,0.448-1,1S0.453,16.003,1.005,16.003z"/>
	<path class="st3" d="M7.005,20.003h-6c-0.552,0-1,0.448-1,1s0.448,1,1,1h6c0.552,0,1-0.448,1-1S7.557,20.003,7.005,20.003z"/>
	<path class="st3" d="M5.005,26.003h-4c-0.552,0-1,0.448-1,1s0.448,1,1,1h4c0.552,0,1-0.448,1-1S5.557,26.003,5.005,26.003z"/>
	<path class="st3" d="M3.005,32.003h-2c-0.552,0-1,0.448-1,1s0.448,1,1,1h2c0.552,0,1-0.448,1-1S3.557,32.003,3.005,32.003z"/>
</g>
</svg>
