<svg xmlns="http://www.w3.org/2000/svg" viewBox="0 0 44 46"><g fill="#D9725C" fill-rule="nonzero"><path d="M33.445 28.55a1 1 0 00-.074-1.412 19.962 19.962 0 00-8.031-4.4 12 12 0 10-10.662.011A20.021 20.021 0 000 42.009v3a1 1 0 002 0v-3a18 18 0 0130.033-13.385 1 1 0 001.412-.074zM10 12.009c0-5.523 4.477-10 10-10s10 4.477 10 10-4.477 10-10 10a10 10 0 01-10-10z"/><path d="M43.638 23.24a1 1 0 00-1.408.127L29.56 38.568l-5.894-5.3a1 1 0 00-1.338 1.486l6.667 6a1 1 0 00.669.257h.071a1 1 0 00.7-.356l13.333-16a1 1 0 00-.122-1.408l-.008-.007z"/></g></svg>