<?xml version="1.0" encoding="UTF-8"?>
<svg width="90px" height="47px" viewBox="0 0 90 47" version="1.1" xmlns="http://www.w3.org/2000/svg" xmlns:xlink="http://www.w3.org/1999/xlink">
    <!-- Generator: sketchtool 61.1 (101010) - https://sketch.com -->
    <title>1CD76069-717A-44F5-9AA1-702EA622EE81</title>
    <desc>Created with sketchtool.</desc>
    <g id="Pages" stroke="none" stroke-width="1" fill="none" fill-rule="evenodd">
        <g id="Styles-&amp;-Components" transform="translate(-547.000000, -14909.000000)" fill="#777BB3" fill-rule="nonzero">
            <g id="Full-Color-Logos" transform="translate(49.000000, 14905.000000)">
                <g id="php-logo" transform="translate(498.000000, 4.000000)">
                    <path d="M44.7,0 C20,0 0,10.5 0,23.5 C0,36.5 20,47 44.7,47 C69.4,47 89.4,36.5 89.4,23.5 C89.4,10.5 69.4,0 44.7,0 Z M32.6,27.7 C31.6173373,28.6187999 30.4615217,29.332686 29.2,29.8 C27.6381078,30.23444 26.020773,30.4366069 24.4,30.4 L20,30.4 L18.8,36.7 L13.7,36.7 L18.3,13.1 L28.2,13.1 C31.2,13.1 33.3,13.9 34.7,15.4 C36.1,17 36.5,19.1 35.9,21.9 C35.7004787,23.0169921 35.3294277,24.0964132 34.8,25.1 C34.1466472,26.031294 33.4103074,26.9015138 32.6,27.7 Z M47.5,30.4 L49.5,20 C49.7,18.8 49.6,18 49.2,17.6 C48.4296969,17.103213 47.5101005,16.8909984 46.6,17 L42.5,17 L39.9,30.5 L34.8,30.5 L39.4,6.9 L44.5,6.9 L43.4,13.1 L47.9,13.1 C50.8,13.1 52.7,13.6 53.8,14.6 C54.9,15.6 55.2,17.2 54.8,19.4 L52.7,30.4 L47.5,30.4 Z M75.9,22 C75.7004787,23.1169921 75.3294277,24.1964132 74.8,25.2 C74.2767587,26.1956545 73.5632883,27.0789988 72.7,27.8 C71.7173373,28.7187999 70.5615217,29.432686 69.3,29.9 C67.7381078,30.33444 66.120773,30.5366069 64.5,30.5 L60.1,30.5 L58.9,36.8 L53.8,36.8 L58.4,13.2 L68.3,13.2 C71.3,13.2 73.4,14 74.8,15.5 C76,17 76.4,19.2 75.9,22 Z" id="Shape"></path>
                    <path d="M66.2,16.8 L62.7,16.8 L60.8,26.7 L63.9,26.7 C65.524735,26.8296371 67.145638,26.4067928 68.5,25.5 C69.625107,24.478176 70.3662425,23.1017814 70.6,21.6 C70.9,19.8 70.8,18.6 70.1,17.9 C69.4,17.2 68.1,16.8 66.2,16.8 Z M26.1,16.8 L22.6,16.8 L20.7,26.7 L23.8,26.7 C25.424735,26.8296371 27.045638,26.4067928 28.4,25.5 C29.525107,24.478176 30.2662425,23.1017814 30.5,21.6 C30.8,19.8 30.7,18.6 30,17.9 C29.4,17.2 28.1,16.8 26.1,16.8 Z" id="Shape"></path>
                </g>
            </g>
        </g>
    </g>
</svg>