<?xml version="1.0" encoding="UTF-8"?>
<svg width="126px" height="31px" viewBox="0 0 126 31" version="1.1" xmlns="http://www.w3.org/2000/svg" xmlns:xlink="http://www.w3.org/1999/xlink">
    <!-- Generator: sketchtool 61.1 (101010) - https://sketch.com -->
    <title>813F39E9-818F-4C13-A3AF-2C1EA0105A4D</title>
    <desc>Created with sketchtool.</desc>
    <defs>
        <linearGradient x1="0.959176447%" y1="9.14856261e-08%" x2="74.0505936%" y2="64.1103734%" id="linearGradient-1">
            <stop stop-color="#5A9FD4" offset="0%"></stop>
            <stop stop-color="#306998" offset="100%"></stop>
        </linearGradient>
        <linearGradient x1="49.9999998%" y1="82.2756107%" x2="24.2424815%" y2="44.914431%" id="linearGradient-2">
            <stop stop-color="#FFD43B" offset="0%"></stop>
            <stop stop-color="#FFE873" offset="100%"></stop>
        </linearGradient>
    </defs>
    <g id="Pages" stroke="none" stroke-width="1" fill="none" fill-rule="evenodd">
        <g id="Styles-&amp;-Components" transform="translate(-380.000000, -14917.000000)" fill-rule="nonzero">
            <g id="Full-Color-Logos" transform="translate(49.000000, 14905.000000)">
                <g id="python-logo" transform="translate(331.000000, 12.000000)">
                    <path d="M47.5447341,15.598949 C47.5447341,11.7442623 46.4456065,9.76531579 44.2473512,9.6569505 C43.3726915,9.61566962 42.5186762,9.75499491 41.6878782,10.0775099 C41.02479,10.3148796 40.5784324,10.5496711 40.3436409,10.7870408 L40.3436409,19.9877196 C41.7498009,20.8701193 42.9985774,21.2803552 44.0873841,21.2158543 C46.3914238,21.0636273 47.5447341,19.1930461 47.5447341,15.598949 Z M50.2564315,15.7589161 C50.2564315,17.7172208 49.7971721,19.3426923 48.8734915,20.6353279 C47.8440265,22.0982514 46.4172247,22.851644 44.5930862,22.8929276 C43.2178862,22.9367893 41.8014053,22.505909 40.3436409,21.6028702 L40.3436409,29.9650129 L37.9854185,29.1238968 L37.9854185,10.5625702 C38.3724344,10.0878308 38.8703965,9.68017315 39.4741429,9.33443815 C40.8777247,8.51654197 42.5831771,8.09598256 44.5905053,8.07534344 L44.6240462,8.10888432 C46.4585056,8.08566168 47.8724082,8.83905697 48.8657515,10.3664814 C49.7920103,11.7674823 50.2564315,13.5632417 50.2564315,15.7589161 Z" id="path46" fill="#646464"></path>
                    <path d="M64.6689362,21.2468143 C64.6689362,23.873369 64.4057656,25.6923476 63.8794244,26.7037518 C63.3504997,27.7151559 62.3442574,28.5227312 60.8581112,29.1238968 C59.6531991,29.5986362 58.3502426,29.8566476 56.9518226,29.9005094 L56.5622259,28.4143659 C57.9838659,28.2208579 58.9849518,28.0273474 59.5654756,27.8338394 C60.708465,27.4468235 61.4928203,26.8533979 61.9236979,26.0587218 C62.2694329,25.4111143 62.4397209,24.1752423 62.4397209,22.345942 L62.4397209,21.7318773 C60.8271512,22.4646281 59.1371762,22.828424 57.3698012,22.828424 C56.2087509,22.828424 55.184445,22.4646281 54.3020479,21.7318773 C53.3112829,20.9346202 52.8159018,19.9232161 52.8159018,18.6976649 L52.8159018,8.88291874 L55.1741241,8.07534344 L55.1741241,17.9545905 C55.1741241,19.0098564 55.5147,19.8225934 56.1958491,20.392799 C56.8769982,20.963002 57.7593979,21.2364934 58.8404647,21.2158543 C59.9215315,21.1926317 61.0800009,20.7746531 62.3107138,19.9567596 L62.3107138,8.43139932 L64.6689362,8.43139932 L64.6689362,21.2468143 Z" id="path48" fill="#646464"></path>
                    <path d="M73.8747768,22.7639205 C73.5935453,22.7871405 73.3355338,22.7974614 73.0981641,22.7974614 C71.764245,22.7974614 70.7244591,22.4801081 69.9813874,21.8428208 C69.2408938,21.2055334 68.8693606,20.3257146 68.8693606,19.203367 L68.8693606,9.91496197 L67.25421,9.91496197 L67.25421,8.43139932 L68.8693606,8.43139932 L68.8693606,4.49156726 L71.2250021,3.65302932 L71.2250021,8.43139932 L73.8747768,8.43139932 L73.8747768,9.91496197 L71.2250021,9.91496197 L71.2250021,19.1388634 C71.2250021,20.0238414 71.4623718,20.6508079 71.9371138,21.0171846 C72.3447715,21.3190579 72.9923797,21.4919267 73.8747768,21.5357884 L73.8747768,22.7639205 Z" id="path50" fill="#646464"></path>
                    <path d="M88.1531153,22.5704126 L85.7948929,22.5704126 L85.7948929,13.4677781 C85.7948929,12.5415167 85.5781624,11.7442623 85.1472874,11.0785931 C84.6493253,10.3252005 83.9578526,9.94850285 83.0702965,9.94850285 C81.9892271,9.94850285 80.6372471,10.5187084 79.0143618,11.6591196 L79.0143618,22.5704126 L76.6561368,22.5704126 L76.6561368,0.812327532 L79.0143618,0.0692557676 L79.0143618,9.9794655 C80.5211471,8.88291874 82.167255,8.33335491 83.9552718,8.33335491 C85.2040482,8.33335491 86.2154524,8.75391168 86.9894841,9.59244962 C87.7660994,10.4309849 88.1531153,11.4759299 88.1531153,12.7247037 L88.1531153,22.5704126 L88.1531153,22.5704126 Z" id="path52" fill="#646464"></path>
                    <path d="M100.687299,15.2274131 C100.687299,13.7464287 100.40607,12.5234558 99.8461826,11.5559134 C99.1805162,10.3768023 98.1458921,9.75499491 96.7474694,9.69049138 C94.1621982,9.84014021 92.8721435,11.6926605 92.8721435,15.2428931 C92.8721435,16.8709455 93.1404732,18.2306629 93.6822944,19.3220505 C94.3737671,20.7127305 95.4109721,21.3990414 96.7939121,21.3758214 C99.3895041,21.3551796 100.687299,19.3065705 100.687299,15.2274131 Z M103.269994,15.2428931 C103.269994,17.3508467 102.730751,19.1053226 101.654844,20.5063234 C100.470574,22.0750314 98.8347812,22.8619649 96.7474694,22.8619649 C94.6782212,22.8619649 93.0656515,22.0750314 91.9020203,20.5063234 C90.8467544,19.1053226 90.3204106,17.3508467 90.3204106,15.2428931 C90.3204106,13.2613684 90.8906162,11.5946161 92.0310247,10.237477 C93.2359394,8.79777344 94.8201274,8.07534344 96.7784294,8.07534344 C98.7367368,8.07534344 100.331243,8.79777344 101.55938,10.237477 C102.699786,11.5946161 103.269994,13.2613684 103.269994,15.2428931 Z" id="path54" fill="#646464"></path>
                    <path d="M116.789779,22.5704126 L114.431556,22.5704126 L114.431556,12.9517552 C114.431556,11.8964893 114.114203,11.073434 113.479496,10.4800058 C112.844787,9.88916109 111.998512,9.60276785 110.943246,9.6259905 C109.823479,9.64663226 108.75789,10.0130064 107.746489,10.7225373 L107.746489,22.5704126 L105.388266,22.5704126 L105.388266,10.4309849 C106.745405,9.44280344 107.994179,8.79777344 109.134585,8.49590021 C110.210495,8.21466874 111.159977,8.07534344 111.977873,8.07534344 C112.537758,8.07534344 113.064099,8.12952609 113.55948,8.23788874 C114.485741,8.45203844 115.239131,8.84937521 115.819658,9.43248256 C116.467264,10.0775099 116.789779,10.8515443 116.789779,11.7571614 L116.789779,22.5704126 Z" id="path56" fill="#646464"></path>
                    <path d="M14.6938648,0.899463415 C13.4805449,0.9051012 12.3218516,1.00857986 11.3023207,1.18898547 C8.29891059,1.71958942 7.75360774,2.83018897 7.75360747,4.87832374 L7.75360747,7.58328697 L14.8510339,7.58328697 L14.8510339,8.48494138 L7.75360747,8.48494138 L5.09000453,8.48494138 C3.02729479,8.48494138 1.22112709,9.72474882 0.656180947,12.083287 C0.00452271176,14.7867191 -0.0243818735,16.4737048 0.656180947,19.2965223 C1.16069138,21.3977184 2.36553062,22.8948679 4.42823982,22.8948679 L6.86849718,22.8948679 L6.86849718,19.6522208 C6.86849718,17.3095997 8.89538824,15.243214 11.3023207,15.2432134 L18.3914751,15.2432134 C20.3648445,15.2432134 21.9401884,13.6184053 21.9401884,11.6365958 L21.9401884,4.87832374 C21.9401884,2.95488106 20.3175466,1.51000028 18.3914751,1.18898547 C17.1722433,0.986028776 15.9071847,0.893825629 14.6938648,0.899463415 Z M10.8556295,3.07501491 C11.5887449,3.07501491 12.187431,3.68348003 12.187431,4.43163256 C12.187431,5.17713326 11.5887449,5.77997815 10.8556295,5.77997815 C10.1198859,5.77997815 9.52382806,5.177133 9.52382806,4.43163256 C9.52382806,3.68348029 10.1198859,3.07501491 10.8556295,3.07501491 Z" id="path1948" fill="url(#linearGradient-1)"></path>
                    <path d="M22.8252986,8.48494138 L22.8252986,11.6365958 C22.8252986,14.0800309 20.7537382,16.1365955 18.3914751,16.1365958 L11.3023207,16.1365958 C9.36048256,16.1365958 7.75360747,17.7985472 7.75360747,19.7432134 L7.75360747,26.5014847 C7.75360747,28.4249276 9.42617488,29.5562753 11.3023207,30.1081024 C13.5489671,30.768705 15.7033834,30.8880926 18.3914751,30.1081024 C20.1782809,29.5907638 21.9401891,28.5496174 21.9401884,26.5014847 L21.9401884,23.7965223 L14.8510339,23.7965223 L14.8510339,22.8948679 L21.9401884,22.8948679 L25.4889026,22.8948679 C27.5516126,22.8948679 28.3202629,21.4560834 29.0376132,19.2965223 C29.7786124,17.0732877 29.7470832,14.9352874 29.0376132,12.083287 C28.5278479,10.0298467 27.5542359,8.48494138 25.4889026,8.48494138 L22.8252986,8.48494138 Z M18.8381663,25.5998311 C19.5739105,25.5998311 20.1699678,26.2026768 20.1699678,26.9481759 C20.1699678,27.6963274 19.5739097,28.3047935 18.8381663,28.3047935 C18.1050501,28.3047935 17.5063648,27.6963274 17.5063648,26.9481759 C17.5063648,26.2026768 18.1050493,25.5998311 18.8381663,25.5998311 Z" id="path1950" fill="url(#linearGradient-2)"></path>
                    <path d="M121.382047,6.32895432 L121.795504,6.32895432 L121.795504,3.73583197 L122.774951,3.73583197 L122.774951,3.4267455 L120.402601,3.4267455 L120.402601,3.73583197 L121.382047,3.73583197 L121.382047,6.32895432 M123.141552,6.32895432 L123.494794,6.32895432 L123.494794,3.96062285 L124.261491,6.32865679 L124.654762,6.32865679 L125.453687,3.96865138 L125.453687,6.32895432 L125.839043,6.32895432 L125.839043,3.4267455 L125.329249,3.4267455 L124.456166,5.91309 L123.711557,3.4267455 L123.141552,3.4267455 L123.141552,6.32895432" id="text3004" fill="#646464"></path>
                </g>
            </g>
        </g>
    </g>
</svg>