<svg width="48" height="48" viewBox="0 0 48 48" fill="none" xmlns="http://www.w3.org/2000/svg">
<mask id="path-1-inside-1" fill="white">
<path d="M48 24C48 37.2548 37.2548 48 24 48C10.7452 48 0 37.2548 0 24C0 10.7452 10.7452 0 24 0C37.2548 0 48 10.7452 48 24Z"/>
</mask>
<path d="M46 24C46 36.1503 36.1503 46 24 46V50C38.3594 50 50 38.3594 50 24H46ZM24 46C11.8497 46 2 36.1503 2 24H-2C-2 38.3594 9.6406 50 24 50V46ZM2 24C2 11.8497 11.8497 2 24 2V-2C9.6406 -2 -2 9.6406 -2 24H2ZM24 2C36.1503 2 46 11.8497 46 24H50C50 9.6406 38.3594 -2 24 -2V2Z" fill="#D9725C" mask="url(#path-1-inside-1)"/>
<path d="M24.6161 23.1483C25.2506 23.5388 25.2506 24.4612 24.6161 24.8517L14.5241 31.0621C13.8578 31.4721 13 30.9928 13 30.2104L13 17.7896C13 17.0072 13.8578 16.5279 14.5241 16.9379L24.6161 23.1483Z" fill="#D9725C"/>
<path d="M37.6161 23.1483C38.2506 23.5388 38.2506 24.4612 37.6161 24.8517L27.5241 31.0621C26.8578 31.4721 26 30.9928 26 30.2104L26 17.7896C26 17.0072 26.8578 16.5279 27.5241 16.9379L37.6161 23.1483Z" fill="#D9725C"/>
</svg>
