<?xml version="1.0" encoding="utf-8"?>
<!-- Generator: Adobe Illustrator 24.0.1, SVG Export Plug-In . SVG Version: 6.00 Build 0)  -->
<svg version="1.1" id="Layer_1" xmlns="http://www.w3.org/2000/svg" xmlns:xlink="http://www.w3.org/1999/xlink" x="0px" y="0px"
	 width="48px" height="48px" viewBox="0 0 48 48" style="enable-background:new 0 0 48 48;" xml:space="preserve">
<style type="text/css">
	.st0{fill:none;stroke:#D9725C;stroke-width:2;stroke-linecap:round;stroke-linejoin:round;stroke-miterlimit:10;}
	.st1{fill:none;stroke:#D9725C;stroke-width:2;stroke-miterlimit:10;}
	.st2{fill:none;stroke:#D9725C;stroke-width:2;stroke-linecap:round;stroke-miterlimit:10;}
	.st3{fill:#D9725C;}
	.st4{fill:none;stroke:#D9725C;stroke-width:2;stroke-linecap:round;stroke-linejoin:round;}
</style>
<g>
	<path class="st3" d="M45,6h-9V5c0-1.657-1.343-3-3-3c-1.657,0-3,1.343-3,3v1H18V5c0-1.657-1.343-3-3-3s-3,1.343-3,3v1.051
		C6.34,6.572,2.008,11.316,2,17v28c0,0.552,0.448,1,1,1h32c6.072-0.007,10.993-4.928,11-11V7C46,6.448,45.552,6,45,6z M32,5
		c0-0.552,0.448-1,1-1s1,0.448,1,1v4c0,0.552-0.448,1-1,1s-1-0.448-1-1V5z M14,5c0-0.552,0.448-1,1-1s1,0.448,1,1v4
		c0,0.552-0.448,1-1,1s-1-0.448-1-1V5z M12,8.055V9c0,1.657,1.343,3,3,3s3-1.343,3-3V8h12v1c0,1.657,1.343,3,3,3
		c1.657,0,3-1.343,3-3V8h8v8H4.061C4.532,11.825,7.825,8.53,12,8.055z M35,44H4V18h40v17C43.994,39.968,39.968,43.994,35,44z"/>
	<path class="st3" d="M32.2,22.4L20.892,37.478l-5.185-5.185c-0.397-0.384-1.03-0.373-1.414,0.025c-0.374,0.388-0.374,1.002,0,1.389
		l6,6C20.48,39.895,20.735,40,21,40h0.071c0.29-0.021,0.556-0.167,0.729-0.4l12-16c0.331-0.442,0.241-1.069-0.201-1.4
		C33.157,21.87,32.531,21.959,32.2,22.4z"/>
</g>
</svg>
