<?xml version="1.0" encoding="UTF-8"?>
<svg id="Layer_1" data-name="Layer 1" xmlns="http://www.w3.org/2000/svg" viewBox="0 0 48 48">
  <defs>
    <style>
      .cls-1 {
        fill: #ca4c2f;
      }
    </style>
  </defs>
  <path class="cls-1" d="M34.5,1.2c-2.9,0-5.7,1-7.9,2.8-2.7-.6-5.5-1-8.3-.9C8.8,3.1,1.3,6.4,1.3,10.7v28.5c0,4.3,7.3,7.6,17.1,7.6s17.1-3.3,17.1-7.6v-13.3c6.8-.6,11.8-6.6,11.2-13.4-.6-6.3-5.8-11.2-12.2-11.3Zm-16.1,3.8c2.2,0,4.5,.2,6.7,.6-2.5,2.9-3.4,6.8-2.6,10.5-1.4,.2-2.7,.2-4.1,.3-8.9,0-15.2-3-15.2-5.7s6.2-5.7,15.2-5.7Zm15.2,24.7c0,2.7-6.2,5.7-15.2,5.7s-15.2-3-15.2-5.7v-6c2.8,2.4,8.5,4.1,15.2,4.1,4.3,.1,8.6-.7,12.6-2.4,.8,.2,1.7,.4,2.6,.5v3.8Zm-15.2-3.8c-8.9,0-15.2-3-15.2-5.7v-6c2.8,2.4,8.5,4.1,15.2,4.1,1.5,0,3.1-.1,4.6-.3,1,2.7,3,4.9,5.5,6.3-3.3,1.1-6.7,1.6-10.2,1.6Zm0,19c-8.9,0-15.2-3-15.2-5.7v-5.9c2.8,2.4,8.4,4,15.2,4s12.4-1.6,15.2-4v5.9c0,2.7-6.2,5.7-15.2,5.7Zm16.1-20.9c-5.8,0-10.4-4.7-10.4-10.4S28.7,3.1,34.5,3.1s10.4,4.7,10.4,10.4-4.7,10.4-10.4,10.4h0Z"/>
  <path class="cls-1" d="M33.1,18.3c-.3,0-.5-.1-.7-.3l-4.3-4.6c-.4-.4-.3-1,0-1.3s1-.3,1.3,0l3.6,3.8,6.4-6.9c.4-.4,1-.4,1.3,0,.4,.4,.4,1,0,1.3l-7.1,7.6c-.2,.2-.4,.3-.7,.3Z"/>
</svg>