<svg id="Layer_1" data-name="Layer 1" xmlns="http://www.w3.org/2000/svg" width="48" height="48" viewBox="0 0 48 48">
  <defs>
    <style>
      .cls-1 {
        fill: #d9725c;
      }
    </style>
  </defs>
  <g>
    <path class="cls-1" d="M13.446,9.848a3.224,3.224,0,1,0,3.209,3.224v0A3.219,3.219,0,0,0,13.446,9.848Zm21.108,6.446a3.224,3.224,0,1,0-3.209-3.224A3.216,3.216,0,0,0,34.554,16.294Z"/>
    <ellipse class="cls-1" cx="2.891" cy="13.376" rx="1.78" ry="1.788"/>
    <ellipse class="cls-1" cx="24" cy="13.376" rx="3.46" ry="3.476"/>
    <ellipse class="cls-1" cx="45.109" cy="13.376" rx="1.78" ry="1.788"/>
    <ellipse class="cls-1" cx="13.446" cy="2.753" rx="1.78" ry="1.788"/>
    <ellipse class="cls-1" cx="24" cy="2.753" rx="2.74" ry="2.753"/>
    <ellipse class="cls-1" cx="34.554" cy="2.753" rx="1.78" ry="1.788"/>
    <path class="cls-1" d="M34.705,31.706a3.224,3.224,0,1,0,3.209,3.224h0A3.22,3.22,0,0,0,34.705,31.706Zm-21.41,0A3.224,3.224,0,1,0,16.5,34.93h0A3.219,3.219,0,0,0,13.3,31.706Z"/>
    <ellipse class="cls-1" cx="45.26" cy="34.624" rx="1.78" ry="1.788"/>
    <path class="cls-1" d="M24.152,31.148c-.052,0-.1.012-.152.015s-.1-.015-.152-.015a3.476,3.476,0,0,0,0,6.952c.052,0,.1-.013.152-.016s.1.016.152.016a3.476,3.476,0,0,0,0-6.952Z"/>
    <ellipse class="cls-1" cx="2.74" cy="34.624" rx="1.78" ry="1.788"/>
    <ellipse class="cls-1" cx="34.705" cy="45.247" rx="1.78" ry="1.788"/>
    <path class="cls-1" d="M24.152,42.5c-.052,0-.1.011-.152.015s-.1-.015-.152-.015a2.753,2.753,0,0,0,0,5.505c.052,0,.1-.013.152-.015s.1.015.152.015a2.753,2.753,0,0,0,0-5.505Z"/>
    <ellipse class="cls-1" cx="13.295" cy="45.247" rx="1.78" ry="1.788"/>
    <path class="cls-1" d="M45.26,21.247A2.753,2.753,0,1,0,48,24h0A2.749,2.749,0,0,0,45.26,21.247Zm-42.52,0A2.753,2.753,0,1,0,5.48,24h0A2.75,2.75,0,0,0,2.74,21.247Z"/>
    <path class="cls-1" d="M34.705,20.776A3.224,3.224,0,1,0,37.914,24,3.216,3.216,0,0,0,34.705,20.776Z"/>
    <path class="cls-1" d="M23.848,20.025A3.975,3.975,0,1,0,27.805,24,3.966,3.966,0,0,0,23.848,20.025Z"/>
    <path class="cls-1" d="M13.3,20.776A3.224,3.224,0,1,0,16.5,24,3.217,3.217,0,0,0,13.3,20.776Z"/>
  </g>
</svg>
