<?xml version="1.0" encoding="utf-8"?>
<!-- Generator: Adobe Illustrator 24.1.2, SVG Export Plug-In . SVG Version: 6.00 Build 0)  -->
<svg version="1.1" id="Layer_1" xmlns="http://www.w3.org/2000/svg" xmlns:xlink="http://www.w3.org/1999/xlink" x="0px" y="0px"
	 viewBox="0 0 48 48" style="enable-background:new 0 0 48 48;" xml:space="preserve">
<style type="text/css">
	.st0{fill:#D9725C;}
</style>
<g>
	<path class="st0" d="M45,6h-9V5c0-1.7-1.3-3-3-3c-1.7,0-3,1.3-3,3v1H18V5c0-1.7-1.3-3-3-3s-3,1.3-3,3v1.1C6.3,6.6,2,11.3,2,17v28
		c0,0.6,0.4,1,1,1h32c6.8,0,11-3.4,11-9V7C46,6.4,45.6,6,45,6z M18,30V18h12v12H18z M30,32v12H18V32H30z M4,18h12v12H4V18z M32,18
		h12v12H32V18z M32,5c0-0.6,0.4-1,1-1s1,0.4,1,1v4c0,0.6-0.4,1-1,1s-1-0.4-1-1V5z M14,5c0-0.6,0.4-1,1-1s1,0.4,1,1v4
		c0,0.6-0.4,1-1,1s-1-0.4-1-1V5z M12,8.1V9c0,1.7,1.3,3,3,3s3-1.3,3-3V8h12v1c0,1.7,1.3,3,3,3c1.7,0,3-1.3,3-3V8h8v8H4.1
		C4.5,11.8,7.8,8.5,12,8.1z M4,32h12v12H4V32z M35,44h-3V32h12v5C44,43.5,37.1,44,35,44z"/>
</g>
</svg>
