<svg id="Layer_1" data-name="Layer 1" xmlns="http://www.w3.org/2000/svg" width="48" height="48" viewBox="0 0 48 48">
  <defs>
    <style>
      .cls-1 {
        fill: none;
        stroke: #d9725c;
        stroke-linecap: round;
        stroke-linejoin: round;
        stroke-width: 2px;
      }
    </style>
  </defs>
  <title>Artboard 1 copy</title>
  <g>
    <polyline class="cls-1" points="43 8 43 15 37 15"/>
    <polyline class="cls-1" points="11 33 5 33 5 40"/>
    <polyline class="cls-1" points="11 33 5 33 5 40"/>
    <path class="cls-1" d="M3,24a21,21,0,0,1,39.983-8.991"/>
    <path class="cls-1" d="M45,24A21,21,0,0,1,5.2,33.369"/>
  </g>
  <path class="cls-1" d="M29.653,17.059a5.123,5.123,0,0,0-.946-1.59,4.427,4.427,0,0,0-1.4-1.074A3.911,3.911,0,0,0,25.6,14H22.4a3.911,3.911,0,0,0-1.708.395,4.427,4.427,0,0,0-1.4,1.074,5.123,5.123,0,0,0-.946,1.59A5.549,5.549,0,0,0,18,19h0a5.544,5.544,0,0,0,.347,1.941,5.123,5.123,0,0,0,.946,1.59,4.441,4.441,0,0,0,1.4,1.074A3.911,3.911,0,0,0,22.4,24h3.2a3.911,3.911,0,0,1,1.708.395,4.427,4.427,0,0,1,1.4,1.074,5.123,5.123,0,0,1,.946,1.59A5.549,5.549,0,0,1,30,29h0a5.544,5.544,0,0,1-.347,1.941,5.123,5.123,0,0,1-.946,1.59,4.441,4.441,0,0,1-1.4,1.074A3.911,3.911,0,0,1,25.6,34H22.4a3.911,3.911,0,0,1-1.708-.4,4.441,4.441,0,0,1-1.4-1.074,5.123,5.123,0,0,1-.946-1.59"/>
  <line class="cls-1" x1="24" y1="12" x2="24" y2="36"/>
</svg>
