<svg id="Layer_1" data-name="Layer 1" xmlns="http://www.w3.org/2000/svg" viewBox="0 0 48 48">
  <defs>
    <style>
      .cls-1 {
        fill: #e37c53;
      }

      .cls-2 {
        fill: none;
        stroke: #e37c53;
        stroke-linecap: round;
        stroke-miterlimit: 10;
        stroke-width: 2px;
      }
    </style>
  </defs>
  <g>
    <g>
      <path class="cls-1" d="M36,21.33l-6.93-4a.3.3,0,0,0-.44.26v1.9a.29.29,0,0,1-.29.29h-.45a.29.29,0,0,0-.29.29v3a.29.29,0,0,0,.29.29h.45a.3.3,0,0,1,.29.3v1.9a.3.3,0,0,0,.44.25l6.93-4A.3.3,0,0,0,36,21.33Z"/>
      <rect class="cls-1" x="24.15" y="19.78" width="2.84" height="3.61" rx="0.67"/>
      <rect class="cls-1" x="21.48" y="19.78" width="2.15" height="3.61" rx="0.67"/>
      <rect class="cls-1" x="18.93" y="19.78" width="1.83" height="3.61" rx="0.67"/>
      <rect class="cls-1" x="16.33" y="19.78" width="1.55" height="3.61" rx="0.67"/>
      <path class="cls-1" d="M14.89,23.39h-.13a.51.51,0,0,1-.52-.51V20.3a.52.52,0,0,1,.52-.52h.13a.52.52,0,0,1,.52.52v2.58A.51.51,0,0,1,14.89,23.39Z"/>
    </g>
    <g>
      <path class="cls-1" d="M13.34,29.24l6.93,4a.29.29,0,0,0,.44-.25v-1.9A.29.29,0,0,1,21,30.8h.45a.29.29,0,0,0,.29-.29v-3a.29.29,0,0,0-.29-.3H21a.29.29,0,0,1-.29-.29V25a.3.3,0,0,0-.44-.25l-6.93,4A.29.29,0,0,0,13.34,29.24Z"/>
      <rect class="cls-1" x="22.31" y="27.18" width="2.84" height="3.61" rx="0.67" transform="translate(47.46 57.98) rotate(180)"/>
      <rect class="cls-1" x="25.67" y="27.18" width="2.15" height="3.61" rx="0.67" transform="translate(53.49 57.98) rotate(180)"/>
      <rect class="cls-1" x="28.54" y="27.18" width="1.83" height="3.61" rx="0.67" transform="translate(58.91 57.98) rotate(180)"/>
      <rect class="cls-1" x="31.43" y="27.18" width="1.55" height="3.61" rx="0.67" transform="translate(64.4 57.98) rotate(180)"/>
      <path class="cls-1" d="M34.41,27.18h.13a.52.52,0,0,1,.52.52v2.58a.52.52,0,0,1-.52.52h-.13a.52.52,0,0,1-.52-.52V27.7A.52.52,0,0,1,34.41,27.18Z"/>
    </g>
  </g>
  <g>
    <g>
      <g>
        <polyline class="cls-2" points="25.3 9 21.61 5.58 25.03 1.89"/>
        <path class="cls-1" d="M8,37.33a1.1,1.1,0,0,0,.2-1.44A19.19,19.19,0,0,1,17.79,7.7a1.1,1.1,0,0,0,.71-1.26h0A1.11,1.11,0,0,0,17,5.64,21.45,21.45,0,0,0,3.09,25.7,21.18,21.18,0,0,0,6.38,37.06,1.11,1.11,0,0,0,8,37.33Z"/>
        <g>
          <path class="cls-1" d="M24.5,6.49A19.18,19.18,0,0,1,42.87,31.28a1.1,1.1,0,0,0,.63,1.36h0A1.09,1.09,0,0,0,45,32,21.35,21.35,0,0,0,24.5,4.29c-.56,0-1.11,0-1.66.08a1.1,1.1,0,0,0-1,1.33h0A1.09,1.09,0,0,0,23,6.55C23.5,6.51,24,6.49,24.5,6.49Z"/>
          <path class="cls-1" d="M41.93,35.72a1.1,1.1,0,0,0-1.34.44A19.16,19.16,0,0,1,11.69,40a1.11,1.11,0,0,0-1.46,0h0a1.11,1.11,0,0,0,0,1.67,21.36,21.36,0,0,0,32.2-4.28,1.11,1.11,0,0,0-.5-1.64Z"/>
        </g>
      </g>
      <polyline class="cls-2" points="8.93 32.46 8.05 37.41 3.09 36.53"/>
    </g>
    <polyline class="cls-2" points="37.09 36.97 41.99 35.82 43.13 40.72"/>
  </g>
</svg>
