<svg xmlns="http://www.w3.org/2000/svg" viewBox="0 0 48 36"><g transform="translate(1 1)" stroke="#D9725C" stroke-width="2" fill="none" fill-rule="evenodd" stroke-linecap="round" stroke-linejoin="round"><path d="M21.653 10.637a4.646 4.646 0 00-.945-1.457 4.431 4.431 0 00-1.4-.985 4.209 4.209 0 00-1.708-.362h-3.2c-.588 0-1.17.123-1.708.362a4.431 4.431 0 00-1.4.985 4.646 4.646 0 00-.945 1.457 4.7 4.7 0 00-.347 1.78h0a4.67 4.67 0 001.292 3.237c.398.416.874.75 1.4.984.538.239 1.12.362 1.708.362h3.2c.588 0 1.17.123 1.708.362a4.429 4.429 0 011.4.984A4.67 4.67 0 0122 21.583h0a4.7 4.7 0 01-.347 1.78 4.646 4.646 0 01-.945 1.457c-.398.416-.874.75-1.4.985a4.209 4.209 0 01-1.708.362h-3.2c-.588 0-1.17-.123-1.708-.362a4.431 4.431 0 01-1.4-.985 4.646 4.646 0 01-.945-1.457M16 6v22"/><circle cx="17" cy="17" r="17"/><path d="M23 0c9.389 0 17 7.611 17 17s-7.611 17-17 17"/><path d="M17 0h12c9.389 0 17 7.611 17 17s-7.611 17-17 17H17"/></g></svg>