<svg id="Layer_1" data-name="Layer 1" xmlns="http://www.w3.org/2000/svg" viewBox="0 0 25 25">
  <defs>
    <style>
      .cls-1 {
        fill: #ca4c2f;
      }
    </style>
  </defs>
  <g>
    <circle class="cls-1" cx="12.6" cy="1.87" r="1.17"/>
    <circle class="cls-1" cx="19.44" cy="4.22" r="1.17"/>
    <circle class="cls-1" cx="22.89" cy="9.44" r="1.17"/>
    <circle class="cls-1" cx="22.89" cy="16.03" r="1.17"/>
    <circle class="cls-1" cx="19.44" cy="21.45" r="1.17"/>
    <circle class="cls-1" cx="12.6" cy="23.13" r="1.17"/>
    <circle class="cls-1" cx="5.92" cy="21.45" r="1.17"/>
    <circle class="cls-1" cx="2.11" cy="16.03" r="1.17"/>
    <circle class="cls-1" cx="2.11" cy="9.44" r="1.17"/>
    <circle class="cls-1" cx="5.92" cy="4.22" r="1.17"/>
    <path class="cls-1" d="M18.75,17.76l-.51-1-.52-1a.26.26,0,0,0-.23-.14h-.25V11H18a.26.26,0,0,0,.25-.26v-1h0a.15.15,0,0,0,0-.09v0l0-.05-.05-.05L12.77,5.87a.26.26,0,0,0-.29,0L7.1,9.45l0,0,0,0,0,.05,0,0a.29.29,0,0,0,0,.09H7v1a.26.26,0,0,0,.26.26H8v4.61H7.75a.29.29,0,0,0-.23.14l-.51,1-.51,1a.26.26,0,0,0,.11.34.27.27,0,0,0,.12,0H18.52a.26.26,0,0,0,.26-.26A.2.2,0,0,0,18.75,17.76Zm-2-2.2h-1V11h1Zm-3.07,0V11h1.54v4.61Zm-3.59,0V11H11.6v4.61Zm2-4.61h1v4.61h-1Zm.51-4.56,4.54,3H8.09ZM7.5,9.92H17.75v.52H7.5Zm1,1h1v4.61h-1Zm-.61,5.13h9.43l.25.51H7.66Zm-.77,1.53.26-.51H17.85l.25.51Z"/>
  </g>
</svg>
