<?xml version="1.0" encoding="utf-8"?>
<!-- Generator: Adobe Illustrator 24.0.1, SVG Export Plug-In . SVG Version: 6.00 Build 0)  -->
<svg version="1.1" id="Layer_1" xmlns="http://www.w3.org/2000/svg" xmlns:xlink="http://www.w3.org/1999/xlink" x="0px" y="0px"
	 width="48px" height="48px" viewBox="0 0 48 48" style="enable-background:new 0 0 48 48;" xml:space="preserve">
<style type="text/css">
	.st0{fill:none;stroke:#D9725C;stroke-width:2;stroke-linecap:round;stroke-linejoin:round;stroke-miterlimit:10;}
	.st1{fill:none;stroke:#D9725C;stroke-width:2;stroke-miterlimit:10;}
	.st2{fill:none;stroke:#D9725C;stroke-width:2;stroke-linecap:round;stroke-miterlimit:10;}
	.st3{fill:#D9725C;}
	.st4{fill:none;stroke:#D9725C;stroke-width:2;stroke-linecap:round;stroke-linejoin:round;}
</style>
<g>
	<path class="st3" d="M46.332,33.887c-1.856-3.455-5.999-4.981-9.652-3.554l-9.965-17.081c1.538-1.504,1.565-3.969,0.061-5.507
		c-1.504-1.538-3.969-1.565-5.507-0.061c-1.538,1.504-1.565,3.969-0.061,5.507c0.734,0.751,1.74,1.173,2.79,1.171
		c0.328-0.004,0.654-0.05,0.97-0.137l10.43,17.869c0.132,0.211,0.342,0.363,0.584,0.423l0.051,0.013
		c0.073,0.029,0.15,0.049,0.228,0.06c0.033,0,0.064-0.023,0.1-0.026c0.134-0.009,0.264-0.045,0.384-0.105
		c0.007,0,0.016,0,0.023-0.006l0,0c2.845-1.437,6.317-0.296,7.754,2.55c1.392,2.757,0.368,6.121-2.324,7.634
		c-0.487,0.26-0.672,0.866-0.411,1.354s0.866,0.672,1.354,0.411C46.919,42.375,48.346,37.673,46.332,33.887z M22.098,10.46
		c0-1.049,0.851-1.9,1.9-1.9s1.9,0.851,1.9,1.9s-0.851,1.9-1.9,1.9l0,0C22.948,12.36,22.098,11.509,22.098,10.46z"/>
	<path class="st3" d="M43.377,37.545c0.008-2.149-1.729-3.898-3.878-3.906c-1.775-0.006-3.329,1.189-3.779,2.906H15.298
		c-0.552,0-1,0.448-1,1c-0.042,3.188-2.66,5.737-5.847,5.696c-3.128-0.041-5.654-2.567-5.696-5.696c0-0.552-0.448-1-1-1
		s-1,0.448-1,1c-0.003,4.292,3.474,7.773,7.766,7.776c3.909,0.002,7.211-2.899,7.712-6.776H35.72
		c0.549,2.079,2.679,3.319,4.758,2.77C42.188,40.864,43.379,39.315,43.377,37.545z M39.477,39.445c-1.049,0-1.9-0.851-1.9-1.9
		s0.851-1.9,1.9-1.9c1.049,0,1.9,0.851,1.9,1.9c0.001,1.049-0.849,1.901-1.898,1.902c-0.001,0-0.001,0-0.002,0V39.445z"/>
	<path class="st3" d="M8.521,41.447c2.149,0.004,3.895-1.735,3.899-3.885c0.002-1.075-0.44-2.102-1.222-2.839l10.343-17.86l0,0
		l0.007-0.007c0.047-0.092,0.079-0.191,0.095-0.293c0.005-0.025,0.021-0.049,0.024-0.074c0.011-0.108,0.003-0.218-0.022-0.324
		c0-0.019,0-0.039-0.005-0.058c-0.03-0.101-0.077-0.197-0.137-0.283c-0.013-0.019-0.017-0.043-0.031-0.062
		c-0.065-0.077-0.141-0.144-0.225-0.2c-0.026-0.018-0.042-0.046-0.07-0.062l0,0l-0.007-0.006c-2.779-1.562-3.766-5.081-2.204-7.86
		c1.562-2.779,5.081-3.766,7.86-2.204c0.482,0.271,1.092,0.1,1.363-0.382c0.271-0.482,0.1-1.092-0.382-1.363l0,0
		C24.08,1.577,19.35,2.89,17.243,6.616c-1.923,3.399-1.016,7.698,2.115,10.032L9.445,33.765c-0.302-0.078-0.612-0.12-0.924-0.123
		c-2.155,0-3.903,1.747-3.903,3.903S6.365,41.447,8.521,41.447z M8.521,35.647c1.049,0,1.9,0.851,1.9,1.9c0,1.049-0.851,1.9-1.9,1.9
		s-1.9-0.851-1.9-1.9c0.001-1.05,0.85-1.902,1.9-1.905V35.647z"/>
</g>
</svg>
