<?xml version="1.0" encoding="UTF-8"?>
<svg id="Layer_1" data-name="Layer 1" xmlns="http://www.w3.org/2000/svg" viewBox="0 0 48 48">
  <defs>
    <style>
      .cls-1 {
      fill: #01a2ae;
      }

      .cls-2 {
      fill: #fff;
      }
    </style>
  </defs>
  <path class="cls-2" d="m40.7,12.9L25.3,4c-.8-.5-1.8-.5-2.5,0L7.3,12.9c-.8.5-1.3,1.3-1.3,2.2v17.8c0,.9.5,1.8,1.3,2.2l15.4,8.9c.4.2.8.3,1.3.3s.9-.1,1.3-.3l15.4-8.9c.8-.5,1.3-1.3,1.3-2.2V15.1c0-.9-.5-1.8-1.3-2.2Zm-.4,2.9l-9.5-5.5c-.8-.5-1.8-.5-2.6,0l-2.9,1.7,1.7,1,2-1.2c.1,0,.3-.1.4-.1s.3,0,.4.1l9.9,5.7c.3.2.4.4.4.7v11.4c0,.3-.2.6-.4.7l-9.9,5.7c-.3.2-.6.2-.9,0l-9.9-5.7c-.3-.2-.4-.4-.4-.7v-11.4c0-.3.2-.6.4-.7l3.6-2.1-1.7-1-2.7,1.6c-.8.5-1.3,1.3-1.3,2.2v11.4c0,.9.5,1.8,1.3,2.2l9.9,5.7c.4.2.8.3,1.3.3s.9-.1,1.3-.3l9.5-5.5v.7c0,.3-.2.6-.4.7l-15.4,8.9c-.3.2-.6.2-.8,0l-15.4-8.9c-.3-.2-.4-.4-.4-.7v-.7l9.5,5.5c.4.2.8.3,1.3.3s.9-.1,1.3-.3l2.9-1.7-1.7-1-2,1.2c-.3.2-.6.2-.9,0l-9.9-5.7c-.3-.2-.4-.4-.4-.7v-11.4c0-.3.2-.6.4-.7l9.9-5.7c.1,0,.3-.1.4-.1s.3,0,.4.1l9.9,5.7c.3.2.4.4.4.7v11.4c0,.3-.2.6-.4.7l-3.6,2.1,1.7,1,2.7-1.6c.8-.5,1.3-1.3,1.3-2.2v-11.4c0-.9-.5-1.8-1.3-2.2l-3.2-1.8h0s-3.4-2-3.4-2h0s-3.3-1.9-3.3-1.9c-.8-.5-1.8-.5-2.6,0l-9.5,5.5v-.7c0-.3.2-.6.4-.7l15.4-8.9c.1,0,.3-.1.4-.1s.3,0,.4.1l15.4,8.9c.3.2.4.4.4.7v.7Z"/>
</svg>
