<?xml version="1.0" encoding="UTF-8"?>
<svg id="Layer_1" data-name="Layer 1" xmlns="http://www.w3.org/2000/svg" viewBox="0 0 48 48">
  <defs>
    <style>
      .cls-1 {
        fill: none;
      }

      .cls-2 {
        fill: #fff;
      }

      .cls-3 {
        fill: #e23c7b;
      }
    </style>
  </defs>
  <polygon class="cls-3" points="44.5 12.2 44.5 35.8 24 47.6 3.5 35.8 3.5 12.2 24 .4 44.5 12.2"/>
  <g>
    <path class="cls-2" d="m27.2,25.3l-1.4-.9h0c0,.3-.2.6-.4.8l-9.5,5.7c-.2.1-.5.1-.8,0h-.2c0-.1,0,1.7,0,1.7.2,0,.4,0,.6,0,.4,0,.8-.1,1.2-.3l9.5-5.7c.5-.3.8-.8,1-1.3Z"/>
    <path class="cls-2" d="m22.8,25.3h-.2c-.2-.3-.4-.5-.4-.8v-11.4c0-.3.2-.6.4-.7h.2c0-.1-1.5-1-1.5-1-.4.5-.7,1.1-.7,1.7v11.4c0,.7.3,1.3.7,1.7l1.5-.9Z"/>
    <path class="cls-2" d="m24,22.1c.1,0,.3,0,.4.1l9.5,5.7c.2.1.4.4.4.7h0s1.4-.8,1.4-.8c-.2-.5-.5-1-1-1.3l-9.5-5.7c-.5-.3-1.2-.4-1.8-.3v1.8h.2c.1-.2.3-.2.4-.2Z"/>
    <g>
      <path class="cls-1" d="m26.8,27.7l-1.6.9,6.1,3.7c.4.2.8.3,1.2.3s.8-.1,1.2-.3l6.5-3.9v3.7c0,.7-.4,1.4-1,1.7l-3.3,1.9v-3.4l-1.6.9v3.3l-9.3,5.3c-.6.4-1.4.4-2,0l-9.3-5.3v-8.1c0-.3.1-.6.4-.7l5.3-3.2v-1.9l-6.1,3.7c-.7.4-1.2,1.3-1.2,2.1v7.2l-3.3-1.9c-.6-.4-1-1-1-1.7v-3.7l3.1,1.9v-1.9l-3.1-1.9v-10.7c0-.7.4-1.4,1-1.7l9.8-5.7,6.7,4c.2.1.4.4.4.7v6.6l1.6,1v-7.5c0-.9-.4-1.7-1.2-2.1l-5.9-3.5,2.7-1.6c.3-.2.6-.3,1-.3s.7,0,1,.3l2.7,1.6-2.5,1.5,1.6.9,2.6-1.5,9.8,5.7c.6.3,1,1,1,1.7v10.7l-7.3,4.4c-.2.1-.5.1-.8,0l-5.3-3.2Z"/>
      <path class="cls-2" d="m40,12.7l-14.2-8.2c-1.1-.6-2.5-.6-3.7,0l-14.2,8.2c-1.1.7-1.8,1.9-1.8,3.2v16.4c0,1.3.7,2.5,1.8,3.2l14.2,8.2c.6.3,1.2.5,1.8.5s1.3-.2,1.8-.5l14.2-8.2c1.1-.6,1.8-1.9,1.8-3.2V15.8c0-1.3-.7-2.5-1.8-3.2Zm.2,13.9l-7.3,4.4c-.2.1-.5.1-.8,0l-5.3-3.2-1.6.9,6.1,3.7c.4.2.8.3,1.2.3s.8-.1,1.2-.3l6.5-3.9v3.7c0,.7-.4,1.4-1,1.7l-3.3,1.9v-3.4l-1.6.9v3.3l-9.3,5.3c-.6.4-1.4.4-2,0l-9.3-5.3v-8.1c0-.3.1-.6.4-.7l5.3-3.2v-1.9l-6.1,3.7c-.7.4-1.2,1.3-1.2,2.1v7.2l-3.3-1.9c-.6-.4-1-1-1-1.7v-3.7l3.1,1.9v-1.9l-3.1-1.9v-10.7c0-.7.4-1.4,1-1.7l9.8-5.7,6.7,4c.2.1.4.4.4.7v6.6l1.6,1v-7.5c0-.9-.4-1.7-1.2-2.1l-5.9-3.5,2.7-1.6c.3-.2.6-.3,1-.3s.7,0,1,.3l2.7,1.6-2.5,1.5,1.6.9,2.6-1.5,9.8,5.7c.6.3,1,1,1,1.7v10.7Z"/>
    </g>
  </g>
</svg>