<svg xmlns="http://www.w3.org/2000/svg" width="152px" height="50px" viewBox="0 0 152 50">
  <defs>
    <linearGradient x1="12.593%" y1="91.179%" x2="88.6%" y2="7.509%" id="a">
      <stop stop-color="#F3904A" offset="0%"/>
      <stop stop-color="#AA437F" offset="99.93%"/>
    </linearGradient>
  </defs>
  <g fill-rule="nonzero" fill="none">
    <g fill="#2D2D48">
      <path d="M51.746 9.532c2.99.072 5.243.899 6.756 2.48 1.514 1.582 2.27 3.981 2.27 7.198 0 3.218-.756 5.617-2.27 7.198-1.513 1.582-3.765 2.408-6.756 2.48H44.95V9.533h6.796zm-.935 17.784c1.412 0 2.628-.149 3.646-.447 1.018-.298 1.858-.773 2.518-1.423.66-.651 1.146-1.492 1.458-2.522.312-1.03.468-2.268.468-3.714 0-1.445-.156-2.684-.468-3.714-.312-1.03-.798-1.87-1.458-2.522-.66-.65-1.5-1.124-2.518-1.422-1.018-.298-2.234-.448-3.646-.448h-3.99v16.212h3.99zM63.276 9.532l4.458 16.944h.055l4.788-16.944h2.338l4.816 16.944h.055l4.486-16.944h1.87l-5.42 19.357H78.74l-4.98-17.324h-.055L68.75 28.89h-2.036L61.267 9.532zM87.189 15.388a9.49 9.49 0 011.733-3.213c.77-.93 1.738-1.671 2.904-2.223 1.164-.551 2.517-.827 4.058-.827s2.89.276 4.045.827c1.156.552 2.12 1.293 2.89 2.223a9.499 9.499 0 011.733 3.213c.385 1.211.578 2.485.578 3.822 0 1.338-.193 2.613-.578 3.823a9.354 9.354 0 01-1.734 3.198c-.77.922-1.733 1.66-2.889 2.21-1.155.551-2.504.827-4.045.827-1.54 0-2.894-.276-4.058-.827-1.166-.55-2.133-1.288-2.904-2.21a9.349 9.349 0 01-1.733-3.198 12.523 12.523 0 01-.578-3.823c0-1.337.192-2.61.578-3.822zm1.72 6.926a8.267 8.267 0 001.32 2.738 6.617 6.617 0 002.298 1.94c.936.487 2.055.731 3.357.731 1.303 0 2.417-.244 3.344-.732a6.65 6.65 0 002.283-1.939 8.277 8.277 0 001.322-2.738c.284-1.02.426-2.055.426-3.104 0-1.066-.142-2.105-.426-3.117a8.295 8.295 0 00-1.322-2.725 6.662 6.662 0 00-2.283-1.938c-.927-.488-2.041-.732-3.344-.732-1.302 0-2.421.244-3.357.732a6.62 6.62 0 00-2.297 1.938 8.293 8.293 0 00-1.321 2.725 11.443 11.443 0 00-.427 3.117c0 1.049.142 2.084.427 3.104zM109.367 9.532v17.784h11.007v1.573h-12.878V9.532zM124.143 9.532v17.784h11.007v1.573h-12.878V9.532z"/>
      <path d="M144.342 9.532l7.704 19.357h-2.01l-2.393-6.019H138.7l-2.367 6.019h-1.98l7.897-19.357h2.092zm2.668 11.766l-3.797-9.922-3.935 9.922h7.732z"/>
    </g>
    <path d="M33.218 8.774L18.324.302a2.313 2.313 0 00-2.286 0L1.143 8.774A2.247 2.247 0 000 10.724v16.944c0 .805.436 1.55 1.143 1.951l14.894 8.472a2.313 2.313 0 002.287 0l14.894-8.472a2.247 2.247 0 001.143-1.95V10.724c0-.805-.435-1.549-1.143-1.951zM7.417 14.96v9.79l-5.13 2.917V10.725l14.894-8.472v5.853L8.56 13.01a2.247 2.247 0 00-1.144 1.952zm8.62 2.284a2.247 2.247 0 00-1.143 1.952v9.755l-5.19 2.952V14.961l14.894-8.472v5.887l-8.56 4.87zm16.037 10.423L17.181 36.14V19.197l14.894-8.472v16.943z" fill="url(#a)"/>
    <path d="M97.828 47.3c1.169 0 2.14-.36 2.913-1.083.773-.721 1.244-1.688 1.411-2.899l.057-.417c.088-.739.025-1.406-.188-2.002a2.804 2.804 0 00-1.054-1.403c-.49-.339-1.073-.508-1.751-.508l-2.16-.006-1.445 8.318h2.217zm.068-.891l-1.057-.006 1.131-6.518 1.274.005c.564.016 1.013.19 1.349.523.335.333.53.795.588 1.385.042.492-.004 1.088-.137 1.789-.168.876-.532 1.565-1.094 2.068-.562.502-1.246.754-2.054.754zm7.73 1.005c.502.008.958-.094 1.368-.305.41-.212.743-.504 1.002-.877l-.594-.503c-.518.564-1.081.838-1.69.823-.503-.016-.881-.22-1.135-.612-.253-.392-.345-.868-.277-1.428h4.04l.062-.474c.027-.248.034-.495.023-.743-.034-.697-.232-1.249-.594-1.656-.362-.408-.86-.62-1.497-.635a2.553 2.553 0 00-1.394.369c-.43.257-.795.639-1.094 1.145a4.113 4.113 0 00-.546 1.68l-.028.246c-.069.86.114 1.567.548 2.119.435.552 1.036.836 1.806.851zm1.788-3.765l-3.005-.005c.186-.594.439-1.042.757-1.343.318-.3.69-.445 1.117-.434.4.011.707.176.922.494.215.318.293.717.232 1.197l-.023.091zm4.056 3.651l3.113-6.181h-1.09l-2.229 4.736-.777-4.736h-1.017l1.212 6.181h.788zm5.776.114c.502.008.958-.094 1.368-.305.41-.212.744-.504 1.003-.877l-.595-.503c-.518.564-1.081.838-1.69.823-.503-.016-.881-.22-1.135-.612-.253-.392-.345-.868-.277-1.428h4.04l.062-.474c.027-.248.034-.495.023-.743-.034-.697-.232-1.249-.594-1.656-.362-.408-.86-.62-1.497-.635a2.553 2.553 0 00-1.394.369c-.43.257-.795.639-1.094 1.145a4.113 4.113 0 00-.545 1.68l-.03.246c-.068.86.115 1.567.55 2.119.434.552 1.035.836 1.805.851zm1.788-3.765l-3.005-.005c.186-.594.439-1.042.757-1.343.318-.3.69-.445 1.117-.434.4.011.707.176.922.494.215.318.293.717.232 1.197l-.023.091zm2.725 3.651l1.525-8.775h-1.034l-1.52 8.775h1.029zm4.307.114a2.703 2.703 0 001.491-.383c.454-.27.823-.648 1.109-1.134.285-.485.464-1.029.537-1.63l.011-.126a3.512 3.512 0 00-.18-1.58c-.177-.482-.45-.86-.82-1.134-.369-.274-.813-.415-1.33-.423a2.67 2.67 0 00-1.506.397c-.455.28-.827.676-1.117 1.186a4.212 4.212 0 00-.52 1.725c-.05.568.012 1.088.183 1.56.171.472.443.845.814 1.12.371.274.814.415 1.328.422zm.04-.857c-.384-.011-.692-.15-.922-.417-.23-.266-.365-.624-.403-1.074a3.51 3.51 0 010-.748l.011-.132c.088-.696.318-1.26.692-1.69.373-.43.826-.64 1.36-.629.384.015.692.156.925.423.232.266.371.63.417 1.091.019.24.013.535-.017.885a3.452 3.452 0 01-.383 1.217c-.198.366-.442.64-.731.82-.29.181-.606.266-.949.254zm4.496 3.12l.555-2.983c.38.469.929.71 1.645.726.472.011.902-.108 1.291-.357.388-.25.714-.626.977-1.128a4.904 4.904 0 00.508-1.697l.017-.12c.023-.229.033-.465.029-.708-.019-.743-.194-1.326-.526-1.749-.33-.422-.794-.641-1.388-.657-.712-.015-1.323.252-1.834.8l.115-.691-.937.006-1.486 8.558h1.034zm1.937-3.12c-.602-.015-1.019-.297-1.251-.845l.52-2.965c.434-.583.95-.867 1.548-.851.4.015.706.17.917.465.211.295.317.721.317 1.277l-.029.48c-.114.811-.35 1.423-.71 1.837-.36.413-.798.614-1.312.602zm6.541.857c.503.008.96-.094 1.369-.305.409-.212.743-.504 1.002-.877l-.594-.503c-.518.564-1.082.838-1.691.823-.503-.016-.88-.22-1.134-.612-.253-.392-.346-.868-.277-1.428h4.039l.063-.474c.026-.248.034-.495.023-.743-.035-.697-.233-1.249-.595-1.656-.361-.408-.86-.62-1.496-.635a2.553 2.553 0 00-1.394.369c-.43.257-.795.639-1.094 1.145a4.113 4.113 0 00-.546 1.68l-.028.246c-.069.86.114 1.567.548 2.119.434.552 1.036.836 1.805.851zm1.788-3.765l-3.005-.005c.187-.594.44-1.042.757-1.343.318-.3.69-.445 1.117-.434.4.011.708.176.923.494.215.318.292.717.231 1.197l-.023.091zm2.64 3.651l.76-4.393c.38-.598.902-.897 1.565-.897l.486.051.114-.982a1.897 1.897 0 00-.491-.086c-.595-.015-1.11.265-1.549.84l.155-.72-1 .006-1.074 6.181h1.034zm5.21.114c.43.012.836-.058 1.217-.208.38-.15.685-.369.914-.654.228-.286.354-.621.377-1.006a1.364 1.364 0 00-.411-1.091c-.297-.293-.8-.531-1.509-.714l-.52-.143c-.487-.164-.706-.425-.656-.783a.962.962 0 01.417-.674c.259-.183.567-.27.925-.263.335.008.604.109.806.303.201.194.299.446.29.754l1.03.006c.014-.571-.173-1.035-.563-1.391-.39-.356-.898-.538-1.523-.546-.636-.007-1.19.163-1.66.512-.47.348-.718.795-.745 1.34-.03.723.407 1.241 1.314 1.553l1.074.314c.526.176.76.477.703.903-.038.29-.195.517-.469.683-.274.165-.6.245-.977.237-.384 0-.687-.105-.908-.314-.221-.21-.331-.488-.331-.834l-1.034-.006c-.016.59.19 1.073.617 1.448.426.375.967.567 1.622.574z" fill="#8393AA"/>
  </g>
</svg>