<?xml version="1.0" encoding="UTF-8"?>
<svg id="Layer_1" data-name="Layer 1" xmlns="http://www.w3.org/2000/svg" xmlns:xlink="http://www.w3.org/1999/xlink" viewBox="0 0 152 50">
  <defs>
    <style>
      .cls-1 {
        fill: #fff;
      }

      .cls-2 {
        fill: #aab7c8;
      }

      .cls-3 {
        fill: url(#New_Gradient_Swatch_5);
      }
    </style>
    <linearGradient id="New_Gradient_Swatch_5" data-name="New Gradient Swatch 5" x1="3.1" y1="34.6" x2="22.7" y2="15" gradientTransform="matrix(1, 0, 0, 1, 0, 0)" gradientUnits="userSpaceOnUse">
      <stop offset="0" stop-color="#f3904c"/>
      <stop offset="1" stop-color="#ab447f"/>
    </linearGradient>
  </defs>
  <g>
    <g>
      <path class="cls-1" d="M33.4,19.1c1.8,0,3.1,.5,4.1,1.5,.9,1,1.4,2.4,1.4,4.4s-.5,3.4-1.4,4.4c-.9,1-2.3,1.5-4.1,1.5h-4.1v-11.8h4.1Zm-.6,10.8c.8,0,1.6,0,2.2-.3,.6-.2,1.1-.5,1.5-.9,.4-.4,.7-.9,.9-1.5,.2-.6,.3-1.4,.3-2.3s0-1.6-.3-2.3c-.2-.6-.5-1.1-.9-1.5-.4-.4-.9-.7-1.5-.9-.6-.2-1.3-.3-2.2-.3h-2.4v9.9h2.4Z"/>
      <path class="cls-1" d="M40.3,19.1l2.7,10.3h0l2.9-10.3h1.4l2.9,10.3h0l2.7-10.3h1.1l-3.3,11.8h-1.2l-3-10.5h0l-3,10.5h-1.2l-3.3-11.8h1.2Z"/>
      <path class="cls-1" d="M54.7,22.7c.2-.7,.6-1.4,1-2,.5-.6,1-1,1.7-1.4,.7-.3,1.5-.5,2.4-.5s1.7,.2,2.4,.5c.7,.3,1.3,.8,1.7,1.4,.5,.6,.8,1.2,1,2,.2,.7,.3,1.5,.3,2.3s-.1,1.6-.3,2.3c-.2,.7-.6,1.4-1,1.9-.5,.6-1,1-1.7,1.3-.7,.3-1.5,.5-2.4,.5s-1.7-.2-2.4-.5c-.7-.3-1.3-.8-1.7-1.3-.5-.6-.8-1.2-1-1.9-.2-.7-.3-1.5-.3-2.3s.1-1.6,.3-2.3Zm1,4.2c.2,.6,.4,1.2,.8,1.7,.4,.5,.8,.9,1.4,1.2,.6,.3,1.2,.4,2,.4s1.4-.1,2-.4c.6-.3,1-.7,1.4-1.2,.4-.5,.6-1,.8-1.7,.2-.6,.3-1.3,.3-1.9s0-1.3-.3-1.9c-.2-.6-.4-1.2-.8-1.7-.4-.5-.8-.9-1.4-1.2-.6-.3-1.2-.4-2-.4s-1.5,.1-2,.4c-.6,.3-1,.7-1.4,1.2-.4,.5-.6,1-.8,1.7-.2,.6-.3,1.2-.3,1.9s0,1.3,.3,1.9Z"/>
      <path class="cls-1" d="M68,19.1v10.8h6.6v1h-7.7v-11.8h1.1Z"/>
      <path class="cls-1" d="M76.9,19.1v10.8h6.6v1h-7.7v-11.8h1.1Z"/>
      <path class="cls-1" d="M89,19.1l4.6,11.8h-1.2l-1.4-3.7h-5.4l-1.4,3.7h-1.2l4.7-11.8h1.3Zm1.6,7.2l-2.3-6-2.4,6h4.6Z"/>
    </g>
    <path class="cls-3" d="M22.3,18.7l-8.9-5.2c-.2-.1-.4-.2-.7-.2s-.5,0-.7,.2L3.1,18.7c-.4,.2-.7,.7-.7,1.2v10.3c0,.5,.3,.9,.7,1.2l8.9,5.2c.2,.1,.4,.2,.7,.2s.5,0,.7-.2l8.9-5.2c.4-.2,.7-.7,.7-1.2v-10.3c0-.5-.3-.9-.7-1.2Zm-15.5,3.8v6l-3.1,1.8v-10.3l8.9-5.2v3.6l-5.2,3c-.4,.2-.7,.7-.7,1.2Zm5.2,1.4c-.4,.2-.7,.7-.7,1.2v5.9l-3.1,1.8v-10.3l8.9-5.2v3.6l-5.1,3Zm9.6,6.3l-8.9,5.2v-10.3l8.9-5.2v10.3Z"/>
  </g>
  <g>
    <path class="cls-1" d="M106.1,28.5v-6.6h1.8c.5,0,1,.1,1.4,.4,.4,.2,.8,.6,1,1.1,.2,.5,.4,1,.4,1.6v.6c0,.6-.1,1.1-.4,1.6-.2,.5-.6,.8-1,1.1-.4,.2-.9,.4-1.5,.4h-1.8Zm.6-6.1v5.6h1.2c.7,0,1.2-.2,1.7-.7,.4-.5,.6-1.1,.6-1.9v-.6c0-.8-.2-1.4-.6-1.8-.4-.5-1-.7-1.6-.7h-1.3Z"/>
    <path class="cls-1" d="M113.9,28.6c-.4,0-.8-.1-1.1-.3-.3-.2-.6-.5-.8-.9-.2-.4-.3-.8-.3-1.2v-.2c0-.5,0-.9,.3-1.3,.2-.4,.4-.7,.8-.9,.3-.2,.7-.3,1.1-.3,.6,0,1.1,.2,1.4,.6,.3,.4,.5,1,.5,1.7v.3h-3.5c0,.7,.2,1.1,.5,1.5,.3,.4,.7,.6,1.2,.6s.5,0,.8-.2c.2-.1,.4-.3,.6-.5l.3,.3c-.4,.6-1,.9-1.7,.9Zm0-4.6c-.4,0-.7,.1-1,.4-.3,.3-.4,.7-.5,1.2h2.9c0-.5-.1-.9-.4-1.2-.3-.3-.6-.4-1-.4Z"/>
    <path class="cls-1" d="M118.3,27.7l1.5-4.1h.6l-1.8,4.9h-.4l-1.8-4.9h.6l1.5,4.1Z"/>
    <path class="cls-1" d="M123,28.6c-.4,0-.8-.1-1.1-.3-.3-.2-.6-.5-.8-.9s-.3-.8-.3-1.2v-.2c0-.5,0-.9,.3-1.3,.2-.4,.4-.7,.8-.9,.3-.2,.7-.3,1.1-.3,.6,0,1.1,.2,1.4,.6,.3,.4,.5,1,.5,1.7v.3h-3.5c0,.7,.2,1.1,.5,1.5,.3,.4,.7,.6,1.2,.6s.5,0,.8-.2c.2-.1,.4-.3,.6-.5l.3,.3c-.4,.6-1,.9-1.7,.9Zm0-4.6c-.4,0-.7,.1-1,.4s-.4,.7-.5,1.2h2.9c0-.5-.1-.9-.4-1.2-.3-.3-.6-.4-1-.4Z"/>
    <path class="cls-1" d="M126.5,28.5h-.5v-6.9h.5v6.9Z"/>
    <path class="cls-1" d="M127.7,26c0-.5,0-.9,.3-1.3,.2-.4,.4-.7,.8-.9,.3-.2,.7-.3,1.1-.3,.6,0,1.2,.2,1.6,.7s.6,1.1,.6,1.8h0c0,.6,0,1-.3,1.4-.2,.4-.4,.7-.8,.9-.3,.2-.7,.3-1.1,.3-.6,0-1.2-.2-1.6-.7s-.6-1.1-.6-1.8h0Zm.5,0c0,.6,.2,1.1,.5,1.4s.7,.6,1.2,.6,.9-.2,1.2-.6,.5-.9,.5-1.5h0c0-.5,0-.8-.2-1.1-.1-.3-.3-.5-.6-.7-.2-.2-.5-.3-.9-.3-.5,0-.9,.2-1.2,.6-.3,.4-.5,.9-.5,1.5h0Z"/>
    <path class="cls-1" d="M137.1,26.1c0,.8-.2,1.4-.5,1.8s-.8,.7-1.4,.7-1.2-.2-1.5-.7v2.5h-.5v-6.8h.5v.7c.4-.5,.9-.8,1.6-.8s1,.2,1.4,.7,.5,1.1,.5,1.8h0Zm-.5,0c0-.6-.1-1.1-.4-1.5s-.6-.5-1.1-.5-.6,0-.9,.2c-.2,.2-.4,.4-.5,.7v2.3c.1,.3,.3,.5,.6,.6,.2,.1,.5,.2,.9,.2s.8-.2,1.1-.5c.3-.4,.4-.9,.4-1.6Z"/>
    <path class="cls-1" d="M140.2,28.6c-.4,0-.8-.1-1.1-.3-.3-.2-.6-.5-.8-.9s-.3-.8-.3-1.2v-.2c0-.5,0-.9,.3-1.3,.2-.4,.4-.7,.8-.9,.3-.2,.7-.3,1.1-.3,.6,0,1.1,.2,1.4,.6,.3,.4,.5,1,.5,1.7v.3h-3.5c0,.7,.2,1.1,.5,1.5,.3,.4,.7,.6,1.2,.6s.5,0,.8-.2c.2-.1,.4-.3,.6-.5l.3,.3c-.4,.6-1,.9-1.7,.9Zm0-4.6c-.4,0-.7,.1-1,.4s-.4,.7-.5,1.2h2.9c0-.5-.1-.9-.4-1.2-.3-.3-.6-.4-1-.4Z"/>
    <path class="cls-1" d="M145.3,24c-.1,0-.2,0-.4,0-.3,0-.6,0-.9,.3-.2,.2-.4,.5-.5,.8v3.3h-.5v-4.9h.5v.8c.3-.6,.8-.9,1.4-.9s.3,0,.4,0v.5Z"/>
    <path class="cls-1" d="M149.1,27.2c0-.3-.1-.5-.3-.6s-.5-.3-1-.4c-.4,0-.8-.2-1-.3-.2-.1-.4-.3-.5-.4s-.2-.4-.2-.6c0-.4,.2-.7,.5-1,.3-.3,.7-.4,1.2-.4s1,.1,1.3,.4c.3,.3,.5,.6,.5,1.1h-.5c0-.3-.1-.5-.4-.7s-.5-.3-.9-.3-.6,0-.9,.2-.3,.4-.3,.6,0,.4,.3,.6c.2,.1,.5,.3,1,.4,.5,.1,.8,.2,1.1,.4s.4,.3,.5,.5c.1,.2,.2,.4,.2,.6,0,.4-.2,.7-.5,1-.3,.2-.8,.4-1.3,.4s-1-.1-1.4-.4-.5-.6-.5-1h.5c0,.3,.2,.6,.4,.7s.6,.3,1,.3,.7,0,.9-.2c.2-.2,.3-.4,.3-.6Z"/>
  </g>
  <rect class="cls-2" x="99" y="19.1" width=".7" height="12"/>
</svg>