<?xml version="1.0" encoding="UTF-8"?>
<svg width="122px" height="27px" viewBox="0 0 122 27" version="1.1" xmlns="http://www.w3.org/2000/svg" xmlns:xlink="http://www.w3.org/1999/xlink">
    <!-- Generator: sketchtool 61.1 (101010) - https://sketch.com -->
    <title>26579016-ADAF-401E-A480-0BA3EC09302C</title>
    <desc>Created with sketchtool.</desc>
    <defs>
        <linearGradient x1="-3.81559071%" y1="83.101861%" x2="95.114466%" y2="-21.1433293%" id="linearGradient-1">
            <stop stop-color="#8393AA" offset="0.1%"></stop>
            <stop stop-color="#ABB9C9" offset="99.9%"></stop>
        </linearGradient>
        <linearGradient x1="79.0964898%" y1="48.4139382%" x2="28.7698725%" y2="68.2075947%" id="linearGradient-2">
            <stop stop-color="#8393AA" offset="0.1%"></stop>
            <stop stop-color="#ABB9C9" offset="100%"></stop>
        </linearGradient>
        <linearGradient x1="0.956007833%" y1="53.9092196%" x2="66.8182224%" y2="-13.5350675%" id="linearGradient-3">
            <stop stop-color="#ABB9C9" offset="0%"></stop>
            <stop stop-color="#8393AA" offset="99.9%"></stop>
        </linearGradient>
    </defs>
    <g id="Pages" stroke="none" stroke-width="1" fill="none" fill-rule="evenodd">
        <g id="Home-page-01---Ruby-SDK-Hover" transform="translate(-1169.000000, -989.000000)" fill-rule="nonzero">
            <g id="koltin-gray-02" transform="translate(1169.000000, 989.000000)">
                <polygon id="Path" fill="#8393AA" points="33.598 1.09 39.189 1.09 39.189 12.2 49.501 1.09 56.255 1.09 45.907 11.871 56.727 26.504 50.009 26.504 42.13 15.684 39.189 18.734 39.189 26.504 33.598 26.504"></polygon>
                <path d="M53.755,16.884 L53.755,16.812 C53.7745522,14.102093 54.8701221,11.5110128 56.8005663,9.60907611 C58.7310105,7.70713938 61.338102,6.65023654 64.048,6.671 C64.1393333,6.671 64.2303333,6.673 64.321,6.677 C70.348,6.677 74.814,11.143 74.814,16.735 L74.814,16.808 C74.7939198,19.5178244 73.6980121,22.1086455 71.7674379,24.010338 C69.8368636,25.9120305 67.2298192,26.9687647 64.52,26.948 L64.248,26.942 C58.221,26.942 53.755,22.476 53.755,16.884 Z M69.368,16.884 L69.368,16.812 C69.480106,13.9583476 67.2576518,11.5541213 64.404,11.442 C64.352,11.442 64.304,11.442 64.248,11.442 C62.9261207,11.4227659 61.6507556,11.9295054 60.7025414,12.8507136 C59.7543271,13.7719217 59.2109583,15.0321167 59.192,16.354 C59.192,16.484 59.192,16.613 59.201,16.742 L59.201,16.815 C59.1471722,18.1854407 59.6400852,19.5211122 60.5712556,20.5280516 C61.502426,21.5349909 62.7955396,22.1306743 64.166,22.184 C64.218,22.184 64.266,22.184 64.321,22.184 C65.6430501,22.2032328 66.9185651,21.6963565 67.8668081,20.7749329 C68.8150511,19.8535092 69.3583045,18.5930578 69.377,17.271 C69.379,17.142 69.376,17.013 69.368,16.884 Z" id="Shape" fill="#8393AA"></path>
                <path d="M76.338,20.987 L76.338,11.765 L74.014,11.765 L74.014,7.045 L76.338,7.045 L76.338,2.071 L81.861,2.071 L81.861,7.045 L86.436,7.045 L86.436,11.771 L81.861,11.771 L81.861,20.081 C81.861,21.351 82.405,21.969 83.64,21.969 C84.5915979,21.9734696 85.5286772,21.7356723 86.363,21.278 L86.363,25.708 C85.045523,26.4857634 83.5353442,26.876046 82.006,26.834 C78.63,26.834 76.342,25.49 76.342,20.988 L76.338,20.987 Z M88.016,0 L93.535,0 L93.535,26.506 L88.016,26.506 L88.016,0 Z M95.53,0 L101.339,0 L101.339,4.9 L95.53,4.9 L95.53,0 Z M95.676,7.044 L101.194,7.044 L101.194,26.506 L95.675,26.506 L95.676,7.044 Z M103.294,7.044 L108.813,7.044 L108.813,9.804 C110.070915,7.87499841 112.210194,6.70289867 114.513,6.681 C118.689,6.681 121.122,9.441 121.122,13.907 L121.122,26.507 L115.603,26.507 L115.603,15.65 C115.603,13.035 114.368,11.692 112.262,11.692 C110.156,11.692 108.813,13.035 108.813,15.65 L108.813,26.506 L103.294,26.506 L103.294,7.044 Z" id="Shape" fill="#8393AA"></path>
                <polygon id="Path" fill="url(#linearGradient-1)" points="12.761 1.077 0 14.494 0 26.494 12.74 13.731 25.412 1.077"></polygon>
                <polygon id="Path" fill="url(#linearGradient-2)" points="0 26.489 12.74 13.726 25.412 26.489"></polygon>
                <polygon id="Path" fill="url(#linearGradient-3)" points="0 1.077 12.761 1.077 0 14.494"></polygon>
            </g>
        </g>
    </g>
</svg>