<?xml version="1.0" encoding="UTF-8"?>
<svg width="126px" height="31px" viewBox="0 0 126 31" version="1.1" xmlns="http://www.w3.org/2000/svg" xmlns:xlink="http://www.w3.org/1999/xlink">
    <!-- Generator: sketchtool 61.1 (101010) - https://sketch.com -->
    <title>01999916-89B1-4D6D-BF9A-51F29F97C34A</title>
    <desc>Created with sketchtool.</desc>
    <g id="Pages" stroke="none" stroke-width="1" fill="none" fill-rule="evenodd">
        <g id="Home-page-01---Ruby-SDK-Hover" transform="translate(-779.000000, -987.000000)" fill="#8393AA" fill-rule="nonzero">
            <g id="python-gray-02" transform="translate(779.000000, 987.000000)">
                <path d="M47.088,15.4 C47.088,11.6 45.988,9.6 43.788,9.5 C42.9371283,9.47799713 42.0895293,9.61361297 41.288,9.9 C40.8025103,10.0198174 40.3552731,10.2606374 39.988,10.6 L39.988,19.8 C41.052498,20.6023913 42.3551953,21.0248877 43.688,21 C45.988,20.8 47.088,19 47.088,15.4 Z M49.788,15.6 C49.8285446,17.3374501 49.3403228,19.0462262 48.388,20.5 C47.4575556,21.9565159 45.8135828,22.7976183 44.088,22.7 C42.590873,22.6874993 41.1304047,22.2354496 39.888,21.4 L39.888,29.7 L37.588,28.9 L37.588,10.4 C37.9941678,9.89505837 38.5062152,9.48542046 39.088,9.2 C40.6618465,8.37093858 42.4093249,7.92550291 44.188,7.9 C45.8811469,7.82743152 47.4835866,8.66680469 48.388,10.1 C49.3990053,11.7500444 49.8870579,13.6673941 49.788,15.6 Z" id="path46"></path>
                <path d="M64.188,21 C64.3008977,22.8360963 64.0283931,24.6755023 63.388,26.4 C62.7178916,27.5423316 61.6495668,28.3969915 60.388,28.8 C59.1400686,29.2766822 57.8228175,29.5468875 56.488,29.6 L56.088,28.1 C57.1023799,27.9801931 58.1055698,27.7795551 59.088,27.5 C60.0575225,27.2179186 60.8811823,26.5733153 61.388,25.7 C61.7926951,24.5106821 61.9625069,23.254075 61.888,22 L61.888,21.4 C60.3148739,22.1070947 58.6126361,22.481587 56.888,22.5 C55.7586038,22.5025581 54.6631832,22.1138604 53.788,21.4 C52.8366585,20.697719 52.2790199,19.5824418 52.2878932,18.4 L52.2878932,8.6 L54.588,7.8 L54.588,17.6 C54.5135555,18.5146495 54.8861253,19.4088169 55.588,20 C56.3284014,20.5742463 57.2528484,20.8586916 58.188,20.8 C59.4620008,20.7438028 60.6862179,20.2890936 61.688,19.5 L61.688,8.3 L63.988,8.3 L63.988,21 L64.188,21 Z" id="path48"></path>
                <path d="M73.288,22.5 L72.488,22.5 C71.3814835,22.5693015 70.2853746,22.2510763 69.388,21.6 C68.6521798,20.9405748 68.248867,19.98729 68.288,19 L68.288,9.8 L66.688,9.8 L66.688,8.3 L68.288,8.3 L68.288,4.4 L70.588,3.6 L70.588,8.4 L73.188,8.4 L73.188,9.9 L70.588,9.9 L70.588,19.1 C70.5031081,19.8089458 70.7634491,20.5155858 71.288,21 C71.8500712,21.3689336 72.5171365,21.5444771 73.188,21.5 L73.288,22.5 Z" id="path50"></path>
                <path d="M87.488,22.3 L85.188,22.3 L85.188,13.2 C85.203445,12.3610525 84.9964268,11.5329795 84.588,10.8 C84.1204279,10.1002755 83.3294516,9.68595454 82.488,9.7 C81.0188944,9.87008392 79.630039,10.4603475 78.488,11.4 L78.488,22.3 L76.188,22.3 L76.188,0.7 L78.488,0 L78.488,9.9 C79.8997217,8.83998617 81.6227593,8.27736165 83.388,8.3 C84.5328315,8.25898397 85.6350726,8.73662179 86.388,9.6 C87.1873902,10.4306896 87.6197364,11.547584 87.588,12.7 L87.488,22.3 L87.488,22.3 Z" id="path52"></path>
                <path d="M99.988,15 C100.017318,13.7207911 99.7431653,12.4528341 99.188,11.3 C98.5699597,10.156764 97.3872104,9.43185319 96.088,9.4 C93.488,9.5 92.188,11.4 92.188,14.9 C92.162426,16.3078014 92.4350654,17.7050783 92.988,19 C93.4606143,20.2826517 94.7245726,21.0981086 96.088,21 C98.688,21.1 99.988,19.1 99.988,15 Z M102.588,15.1 C102.672893,16.9663125 102.107379,18.8042326 100.988,20.3 C99.8489593,21.8462677 98.0052599,22.7116776 96.088,22.6 C94.2033666,22.6876299 92.4005089,21.8237605 91.288,20.3 C90.2118299,18.7826043 89.6510007,16.9599094 89.688,15.1 C89.6522438,13.2857718 90.2538139,11.5164478 91.388,10.1 C92.5711479,8.70427273 94.308275,7.89954057 96.138,7.89954057 C97.967725,7.89954057 99.7048521,8.70427273 100.888,10.1 C102.037062,11.508248 102.640548,13.2832046 102.588,15.1 L102.588,15.1 Z" id="path54"></path>
                <path d="M115.988,22.3 L113.688,22.3 L113.688,12.7 C113.729806,11.7805299 113.406277,10.8818401 112.788,10.2 C112.117609,9.5705486 111.199277,9.27668218 110.288,9.4 C109.133669,9.42928046 108.016362,9.81335465 107.088,10.5 L107.088,22.3 L104.788,22.3 L104.788,10.3 C105.887495,9.4343444 107.143837,8.78919607 108.488,8.4 C109.398864,8.14025614 110.340842,8.0056879 111.288,8 C111.826825,8.01101155 112.363044,8.07803886 112.888,8.2 C113.732119,8.35067627 114.50431,8.771871 115.088,9.4 C115.715168,10.0023177 116.075264,10.8305377 116.088,11.7 L115.988,22.3 Z" id="path56"></path>
                <path d="M14.488,0.8 C13.3477039,0.791618139 12.20921,0.892073485 11.088,1.1 C8.088,1.6 7.588,2.7 7.588,4.7 L7.588,7.4 L14.688,7.4 L14.688,8.3 L4.888,8.3 C2.7326302,8.24604923 0.861923466,9.77662747 0.488,11.9 C-0.162052692,14.2559824 -0.162052692,16.7440176 0.488,19.1 C0.988,21.2 2.188,22.7 4.288,22.7 L6.688,22.7 L6.688,19.5 C6.74447987,17.0937301 8.68173006,15.1564799 11.088,15.1 L18.188,15.1 C19.1338465,15.1003861 20.0395819,14.7179418 20.6989111,14.0397747 C21.3582403,13.3616075 21.7150243,12.4454604 21.688,11.5 L21.688,4.7 C21.577976,2.77893084 20.0999991,1.21649808 18.188,1 C16.888,0.9 15.688,0.8 14.488,0.8 Z M10.588,2.9 C11.3059702,2.9 11.888,3.48202983 11.888,4.2 C11.888,4.91797017 11.3059702,5.5 10.588,5.5 C9.87002983,5.5 9.288,4.91797017 9.288,4.2 C9.33623846,3.50298749 9.89098749,2.94823846 10.588,2.9 Z" id="path1948"></path>
                <path d="M22.488,8.3 L22.488,11.4 C22.4375291,13.8256203 20.5118739,15.7950404 18.088,15.9 L10.988,15.9 C9.04594773,15.9700509 7.50332826,17.5567452 7.488,19.5 L7.488,26.2 C7.488,28.1 9.188,29.2 10.988,29.8 C13.2949256,30.5520296 15.7810744,30.5520296 18.088,29.8 C19.888,29.3 21.588,28.2 21.588,26.2 L21.588,23.6 L14.488,23.6 L14.488,22.7 L25.088,22.7 C27.188,22.7 27.888,21.3 28.588,19.1 C29.291691,16.7515814 29.291691,14.2484186 28.588,11.9 C28.088,9.9 27.088,8.3 25.088,8.3 L22.488,8.3 Z M18.588,25.4 C19.1138009,25.4 19.5878281,25.7167348 19.7890434,26.2025115 C19.9902587,26.6882882 19.8790362,27.2474414 19.5072388,27.6192388 C19.1354414,27.9910362 18.5762882,28.1022587 18.0905115,27.9010434 C17.6047348,27.6998281 17.288,27.2258009 17.288,26.7 C17.3008043,25.9874009 17.8754009,25.4128043 18.588,25.4 Z" id="path1950"></path>
                <path d="M120.588,6.2 L120.988,6.2 L120.988,3.6 L121.988,3.6 L121.988,3.3 L119.588,3.3 L119.588,3.6 L120.588,3.6 L120.588,6.2 M122.288,6.2 L122.688,6.2 L122.688,3.8 L123.488,6.2 L123.888,6.2 L124.688,3.9 L124.688,6.2 L125.088,6.2 L125.088,3.3 L124.588,3.3 L123.688,5.8 L122.988,3.3 L122.388,3.3 L122.288,6.2" id="text3004"></path>
            </g>
        </g>
    </g>
</svg>