<svg width="20" height="20" viewBox="0 0 20 20" fill="none" xmlns="http://www.w3.org/2000/svg">
    <path d="M9.08331 5.41665H10.9166V7.24998H9.08331V5.41665ZM9.08331 9.08331H10.9166V14.5833H9.08331V9.08331ZM9.99998 0.833313C4.93998 0.833313 0.833313 4.93998 0.833313 9.99998C0.833313 15.06 4.93998 19.1666 9.99998 19.1666C15.06 19.1666 19.1666 15.06 19.1666 9.99998C19.1666 4.93998 15.06 0.833313 9.99998 0.833313ZM9.99998 17.3333C5.95748 17.3333 2.66665 14.0425 2.66665 9.99998C2.66665 5.95748 5.95748 2.66665 9.99998 2.66665C14.0425 2.66665 17.3333 5.95748 17.3333 9.99998C17.3333 14.0425 14.0425 17.3333 9.99998 17.3333Z" fill="#0288D1" />
</svg>
    