<svg viewBox="0 0 56 56" fill="none" xmlns="http://www.w3.org/2000/svg">
<rect width="56" height="56" rx="8" fill="url(#paint0_linear_527_4030)"/>
<mask id="mask0_527_4030" style="mask-type:alpha" maskUnits="userSpaceOnUse" x="8" y="8" width="40" height="40">
<rect x="8" y="8" width="40" height="40" fill="#D9D9D9"/>
</mask>
<g mask="url(#mask0_527_4030)">
<path fill-rule="evenodd" clip-rule="evenodd" d="M25.9803 11.6884C24.3311 16.8179 19.7876 23.0281 11.6777 25.9497C11.189 26.1257 11.1709 27.0123 11.6431 27.2287C15.7406 29.107 23.1322 34.363 25.8426 41.3101C26.0318 41.795 26.8566 41.791 27.0304 41.3003C29.0944 35.472 34.0084 29.343 41.1939 27.0922C41.7028 26.9328 41.7318 26.0671 41.2328 25.8792C35.6456 23.7758 30.1491 19.0585 27.1045 11.6334C26.9105 11.1602 26.1368 11.2016 25.9803 11.6884ZM25.9521 18.1668C24.2588 21.0381 21.8735 24.4727 17.8446 26.3053C17.4572 26.4816 17.4155 27.032 17.7907 27.2329C17.9359 27.3106 18.0808 27.3875 18.2255 27.4644C20.7559 28.8084 23.2345 30.1248 25.9491 34.8186C26.1572 35.1784 26.6962 35.1611 26.8807 34.7886C28.5726 31.3727 30.7144 29.2048 34.5497 27.1712C34.9149 26.9776 34.9173 26.444 34.5561 26.2431C31.4743 24.5287 28.7929 22.0645 26.8679 18.2063C26.6849 17.8397 26.1603 17.8138 25.9521 18.1668Z" fill="white"/>
<path d="M32.7593 37.8339C35.369 36.7654 36.9649 34.8082 37.712 33.0355C37.8372 32.7385 38.4154 32.7375 38.5337 33.0373C39.436 35.3236 41.1153 36.8995 42.9061 37.6984C43.2155 37.8364 43.2068 38.5781 42.8931 38.7061C40.5261 39.6715 39.1834 41.6336 38.4739 43.5753C38.3667 43.8687 37.8614 43.8734 37.7379 43.5866C36.702 41.1809 34.5058 39.4112 32.7544 38.6154C32.47 38.4862 32.4702 37.9523 32.7593 37.8339Z" fill="white"/>
</g>
<defs>
<linearGradient id="paint0_linear_527_4030" x1="1.84761" y1="51.0604" x2="48.4001" y2="-1.73536" gradientUnits="userSpaceOnUse">
<stop stop-color="#F3904A"/>
<stop offset="0.999" stop-color="#AA437F"/>
</linearGradient>
</defs>
</svg>
