<?xml version="1.0" encoding="UTF-8"?>
<svg width="16px" height="16px" viewBox="0 0 16 16" version="1.1" xmlns="http://www.w3.org/2000/svg" xmlns:xlink="http://www.w3.org/1999/xlink">
    <!-- Generator: sketchtool 61.1 (101010) - https://sketch.com -->
    <title>48F59E1E-6263-4EA7-B477-0701D5C24B15</title>
    <desc>Created with sketchtool.</desc>
    <g id="Pages" stroke="none" stroke-width="1" fill="none" fill-rule="evenodd" opacity="0.800000012">
        <g id="Guide---Step-1---Testing-Customers" transform="translate(-957.000000, -2355.000000)" fill="#8393AA" fill-rule="nonzero">
            <g id="Group" transform="translate(535.000000, 2343.000000)">
                <g id="Group-12">
                    <path d="M438,20 C438,15.582 434.418,12 430,12 C425.582,12 422,15.582 422,20 C422,24.418 425.582,28 430,28 C434.418,28 438,24.418 438,20 Z M426,21.0022414 L429.013651,21.0022414 L429.013651,16.0171873 C429.013651,15.4649026 429.461367,15.0171873 430.013651,15.0171873 L430.028039,15.0171873 C430.580324,15.0171873 431.028039,15.4649026 431.028039,16.0171873 L431.028039,21.0022414 L431.028039,21.0022414 L434,21.0022414 L430,25.0244777 L426,21.0022414 Z" id="download-icon-16x16"></path>
                </g>
            </g>
        </g>
    </g>
</svg>