<?xml version="1.0" encoding="UTF-8"?>
<svg width="142px" height="39px" viewBox="0 0 142 39" version="1.1" xmlns="http://www.w3.org/2000/svg" xmlns:xlink="http://www.w3.org/1999/xlink">
    <!-- Generator: sketchtool 61.1 (101010) - https://sketch.com -->
    <title>7399636C-3E27-4B5F-B1A6-D6A1CAF3E32C</title>
    <desc>Created with sketchtool.</desc>
    <g id="Pages" stroke="none" stroke-width="1" fill="none" fill-rule="evenodd">
        <g id="Styles-&amp;-Components" transform="translate(-791.000000, -14987.000000)" fill-rule="nonzero">
            <g id="Full-Color-Logos" transform="translate(49.000000, 14905.000000)">
                <g id="apto-logo" transform="translate(742.000000, 82.000000)">
                    <path d="M9.19636883,28.4084211 L17.5969624,28.4084211 L13.4077471,19.3065263 L9.19636883,28.4084211 Z M0,38.6071579 L12.1846033,12.3730526 L14.6651807,12.3772632 L26.7837133,38.6421053 L22.2867258,38.6357895 L19.3683255,32.2421053 L7.40660626,32.2421053 L4.49698756,38.6130526 L0,38.6071579 Z M73.5797322,12.3755789 L73.5797322,16.3124211 L65.9640415,16.3124211 L65.9640415,38.6244211 L61.7187916,38.6244211 L61.7187916,16.312 L54.1035191,16.312 L54.1035191,12.3751579 L73.5797322,12.3755789 Z M89.7415392,35.0623158 C94.9034152,35.0623158 98.7539137,30.8997895 98.7539137,25.5002105 C98.7539137,20.1225263 94.9034152,15.9376842 89.7415392,15.9376842 C84.5796632,15.9376842 80.7287465,20.1225263 80.7287465,25.5002105 C80.7287465,30.8993684 84.5796632,35.0618947 89.7415392,35.0618947 L89.7415392,35.0623158 Z M89.7415392,12.0004211 C97.3835745,12.0004211 103,17.9250526 103,25.5002105 C103,33.0753684 97.3835745,39 89.7415392,39 C82.0995039,39 76.4830784,33.0745263 76.4830784,25.5002105 C76.4830784,17.9258947 82.0995039,12 89.7415392,12 L89.7415392,12.0004211 Z M39.6557862,12.3751579 L31.6348899,12.3751579 L31.6348899,38.6244211 L35.8801398,38.6244211 L35.8801398,32.2256842 L39.6557862,32.2256842 C45.917028,32.2256842 50.2258396,28.0517895 50.2258396,22.3002105 C50.2258396,16.5486316 45.917028,12.3747368 39.6557862,12.3747368 L39.6557862,12.3751579 Z M39.6557862,28.3557895 L35.8801398,28.3557895 L35.8801398,16.2964211 L39.6557862,16.2964211 C43.4799401,16.2964211 45.9985709,18.7347368 45.9985709,22.3258947 C45.9985709,25.9170526 43.4799401,28.3553684 39.6557862,28.3553684 L39.6557862,28.3557895 Z" id="Shape" fill="#00005A"></path>
                    <path d="M127.875165,13 L127.875165,13 L122,21.7764782 L122,21.7764782 L127.838743,33.6927478 C127.925177,33.8688303 128.10551,33.9861443 128.309289,33.9988555 C128.513067,34.0115668 128.707948,33.9176579 128.817793,33.7538188 L133.835314,26.2581807 C134.028306,25.9700519 134.053325,25.6080806 133.901653,25.2983759 L127.875165,13 Z" id="Path" fill="#008C00"></path>
                    <path d="M128.512381,12 L128.512381,12 L123,21 L136.378611,21 C136.715444,21.0002512 137.029,20.8212941 137.20974,20.5256474 L141.917842,12.8391087 C142.020797,12.6709745 142.027451,12.4578354 141.9352,12.2831081 C141.842949,12.1083807 141.666465,11.9998532 141.474818,12 L128.512381,12 Z" id="Path" fill="#73E100"></path>
                    <polygon id="Path" fill="#0019B4" points="128.000209 13 127.999791 13 127.999791 13"></polygon>
                    <path d="M113.621052,12 C113.28425,11.9999077 112.970755,12.1788254 112.789903,12.4743524 L108.082495,20.160891 C107.979285,20.3289125 107.972444,20.5421209 108.064654,20.7169261 C108.156863,20.8917313 108.333428,21.0002741 108.525124,21 L121.48748,21 L127,12 L113.621052,12 Z" id="Path" fill="#00B9FF"></path>
                    <path d="M121.183418,0.245665145 L116.164301,7.74148963 C115.971627,8.02959499 115.946778,8.39137597 116.098402,8.70090565 L122.124637,21 L128,12.2233035 L122.162356,0.307975604 C122.076193,0.131739418 121.896021,0.0141612965 121.692252,0.00119117952 C121.488483,-0.0117789375 121.293467,0.0819180931 121.183418,0.245665145 Z" id="Path" fill="#0055FF"></path>
                </g>
            </g>
        </g>
    </g>
</svg>