<?xml version="1.0" encoding="UTF-8"?>
<svg width="120px" height="45px" viewBox="0 0 120 45" version="1.1" xmlns="http://www.w3.org/2000/svg" xmlns:xlink="http://www.w3.org/1999/xlink">
    <!-- Generator: sketchtool 61.1 (101010) - https://sketch.com -->
    <title>2FE2CEA5-FC21-4A55-98E1-608D3FDEE93A</title>
    <desc>Created with sketchtool.</desc>
    <g id="Pages" stroke="none" stroke-width="1" fill="none" fill-rule="evenodd">
        <g id="Styles-&amp;-Components" transform="translate(-49.000000, -15189.000000)" fill="#483D66">
            <g id="Purple-Logos" transform="translate(49.000000, 15110.000000)">
                <g id="plaid-logo-purple" transform="translate(0.000000, 79.000000)">
                    <path d="M62.8,15.421 C61.8,14.5783333 60.0896667,14.157 57.669,14.157 L52.21,14.157 L52.21,31.018 L56.29,31.018 L56.29,25.734 L58.117,25.734 C60.335,25.734 61.9616667,25.2453333 62.997,24.268 C64.1811504,23.1310716 64.8196468,21.5401121 64.75,19.9 C64.8284154,18.1856341 64.1083198,16.5316299 62.8,15.421 M58.019,21.921 L56.29,21.921 L56.29,17.972 L57.84,17.972 C59.7266667,17.972 60.67,18.6336667 60.67,19.957 C60.67,21.263 59.7853333,21.9166667 58.016,21.918 M71.731,14.156 L67.477,14.156 L67.477,31.017 L76.662,31.017 L76.662,27.2 L71.731,27.2 L71.731,14.156 Z M84.997,14.156 L78.314,31.017 L82.894,31.017 L83.77,28.566 L89.577,28.566 L90.377,31.017 L95.01,31.017 L88.374,14.156 L84.997,14.156 Z M84.947,25.156 L86.7,19.389 L88.426,25.153 L84.947,25.153 L84.947,25.156 Z" id="Shape"></path>
                    <path d="M97.135,31.017 L101.39,31.017 L101.39,14.156 L97.135,14.156 L97.135,31.017 Z M117.91,17.317 C117.372688,16.5377504 116.682751,15.8757102 115.882,15.371 C114.277962,14.4829628 112.456974,14.0627081 110.626,14.158 L105.02,14.158 L105.02,31.018 L111.577,31.018 C113.726893,31.1096313 115.810193,30.2609066 117.284,28.693 C118.773344,26.9931119 119.544528,24.7813811 119.435,22.524 C119.490035,20.6705978 118.955747,18.8475061 117.909,17.317 M111.1,27.2000002 L109.274,27.2000002 L109.274,17.973 L111.126,17.973 C112.259013,17.9052229 113.361859,18.3537135 114.126,19.193 C114.884092,20.179731 115.257942,21.4082468 115.178,22.65 C115.178,25.684 113.817667,27.2006667 111.097,27.2000002 M17.666,0 L3.877,3.612 L0.077,17.478 L4.83,22.358 L0,27.158 L3.576,41.085 L17.306,44.921 L22.136,40.121 L26.889,45 L40.678,41.388 L44.478,27.521 L39.726,22.643 L44.555,17.843 L40.979,3.915 L27.248,0.079 L22.419,4.879 L17.666,0 Z M9.2,6.279 L16.464,4.379 L19.64,7.639 L15.008,12.239 L9.2,6.279 Z M25.15,7.679 L28.378,4.472 L35.61,6.494 L29.71,12.359 L25.15,7.679 Z M4.429,16.34 L6.429,9.04 L12.236,15 L7.6,19.6 L4.429,16.339 L4.429,16.34 Z M32.436,15.162 L38.336,9.295 L40.219,16.632 L36.995,19.84 L32.436,15.162 Z M17.742,15.041 L22.374,10.441 L26.931,15.12 L22.3,19.72 L17.742,15.041 Z M10.335,22.4 L14.967,17.8 L19.526,22.479 L14.893,27.079 L10.335,22.4 Z M25.035,22.52 L29.667,17.92 L34.219,22.6 L29.587,27.2 L25.035,22.52 Z M4.335,28.366 L7.564,25.157 L12.12,29.837 L6.216,35.7 L4.335,28.366 Z M17.626,29.881 L22.258,25.281 L26.816,29.96 L22.184,34.56 L17.626,29.881 Z M32.317,30 L36.949,25.4 L40.126,28.66 L38.126,35.96 L32.317,30 Z M8.945,38.5 L14.845,32.633 L19.405,37.312 L16.176,40.521 L8.945,38.506 L8.945,38.5 Z M24.911,37.357 L29.542,32.757 L35.349,38.718 L28.086,40.618 L24.911,37.357 Z" id="Shape"></path>
                </g>
            </g>
        </g>
    </g>
</svg>