<svg data-name="Layer 1" xmlns="http://www.w3.org/2000/svg" viewBox="0 0 38 38">
  <path d="M33.905 18.934l4.05-4.017a.178.178 0 00.045-.153L34.907 3.333a.167.167 0 00-.112-.11L23.269.161a.174.174 0 00-.153.039l-4.049 4.019a.1.1 0 01-.132 0L14.886.2a.177.177 0 00-.153-.039L3.209 3.225a.178.178 0 00-.115.11L.006 14.766a.188.188 0 00.041.153L4.1 18.936a.094.094 0 010 .13L.045 23.083a.178.178 0 00-.045.153l3.092 11.431a.169.169 0 00.115.11l11.526 3.062a.172.172 0 00.153-.041l4.049-4.017a.1.1 0 01.132 0l4.049 4.019a.175.175 0 00.153.041L34.8 34.777a.171.171 0 00.112-.11L38 23.236a.176.176 0 00-.041-.153l-4.05-4.017a.094.094 0 010-.132m.685 5.2L32.869 30.5a.049.049 0 01-.089.024l-5.219-5.174a.09.09 0 010-.127l4.051-4.017a.1.1 0 01.132 0l2.8 2.779a.172.172 0 01.045.152m-17.814-5.075l-4.051 4.016a.1.1 0 01-.132 0l-4.049-4.016a.1.1 0 010-.13l4.049-4.017a.092.092 0 01.132 0l4.051 4.017a.087.087 0 010 .13m-1.891-6.414l4.051-4.017a.1.1 0 01.132 0l4.049 4.017a.09.09 0 010 .127l-4.049 4.017a.1.1 0 01-.132 0l-4.051-4.017a.09.09 0 010-.127m4.181 8.552l4.049 4.017a.092.092 0 010 .127l-4.049 4.017a.1.1 0 01-.132 0l-4.051-4.017a.092.092 0 010-.129l4.051-4.015a.094.094 0 01.132 0m2.159-2.27l4.05-4.017a.093.093 0 01.131 0l4.052 4.017a.1.1 0 010 .13l-4.052 4.017a.1.1 0 01-.131 0l-4.05-4.017a.1.1 0 010-.13m10.39-2.14l-4.051-4.017a.09.09 0 010-.127l5.219-5.177c.035-.034.074-.024.089.024l1.721 6.364a.188.188 0 01-.041.154l-2.8 2.777a.1.1 0 01-.134 0m-7.436-13.25L30.6 5.244a.048.048 0 01.024.087L25.405 10.5a.1.1 0 01-.131 0l-4.05-4.017a.094.094 0 010-.129l2.8-2.78a.175.175 0 01.154-.039m-7.406 2.95L12.726 10.5a.1.1 0 01-.131 0L7.379 5.331c-.034-.037-.026-.076.024-.089l6.416-1.706a.179.179 0 01.155.043l2.8 2.78a.088.088 0 010 .129M3.412 13.859L5.131 7.5c.013-.046.054-.056.091-.022l5.215 5.177a.09.09 0 010 .127l-4.051 4.012a.1.1 0 01-.132 0l-2.8-2.782a.174.174 0 01-.039-.153M6.388 21.2l4.049 4.017a.09.09 0 010 .127l-5.218 5.179a.049.049 0 01-.09-.024L3.41 24.134a.174.174 0 01.041-.153l2.8-2.779a.1.1 0 01.134 0m7.431 13.255L7.4 32.753c-.048-.013-.061-.051-.024-.086l5.224-5.174a.091.091 0 01.131 0l4.052 4.016a.1.1 0 010 .13l-2.8 2.779a.181.181 0 01-.155.041m7.4-2.95l4.05-4.016a.091.091 0 01.131 0l5.216 5.174c.036.035.026.073-.024.086l-6.416 1.706a.181.181 0 01-.154-.041l-2.8-2.779a.1.1 0 010-.13"/>
</svg>