<?xml version="1.0" encoding="UTF-8"?>
<svg width="202px" height="39px" viewBox="0 0 202 39" version="1.1" xmlns="http://www.w3.org/2000/svg" xmlns:xlink="http://www.w3.org/1999/xlink">
    <!-- Generator: sketchtool 61.1 (101010) - https://sketch.com -->
    <title>88BD1963-6D2D-4BE1-AC5E-9893CC45C4F3</title>
    <desc>Created with sketchtool.</desc>
    <g id="Pages" stroke="none" stroke-width="1" fill="none" fill-rule="evenodd">
        <g id="Styles-&amp;-Components" transform="translate(-539.000000, -15192.000000)" fill-rule="nonzero">
            <g id="Purple-Logos" transform="translate(49.000000, 15110.000000)">
                <g id="quickbooks-logo-purple" transform="translate(490.000000, 82.000000)">
                    <g id="Wordmark" transform="translate(39.000000, 9.000000)" fill="#483D66">
                        <path d="M161.692556,20.656125 C161.692556,20.254125 161.342068,20.1075 160.983545,20.1075 L160.312031,20.1075 L160.312031,21.979875 L160.656397,21.979875 L160.656397,21.19725 L160.902427,21.19725 L161.350103,21.979875 L161.767934,21.979875 L161.251385,21.1605 C161.508007,21.1269531 161.697946,20.9098024 161.692556,20.656125 L161.692556,20.656125 Z M160.655631,20.9265 L160.655631,20.392875 L160.968622,20.392875 C161.148075,20.392875 161.351251,20.443875 161.351251,20.648625 C161.351251,20.8755 161.127413,20.9265 160.93342,20.9265 L160.655631,20.9265 Z M160.975892,19.390858 C160.047327,19.3989356 159.300081,20.1410969 159.304201,21.0511741 C159.308355,21.9612512 160.062318,22.6968581 160.990919,22.6968102 C161.919521,22.6967622 162.673405,21.9610776 162.677444,21.051 C162.677444,20.6094049 162.497934,20.1860051 162.17861,19.8744547 C161.859285,19.5629044 161.426466,19.38888 160.975892,19.390858 L160.975892,19.390858 Z M160.975892,22.455 C160.184759,22.4547929 159.54357,21.826109 159.543711,21.0507501 C159.543852,20.2753911 160.185269,19.646931 160.976402,19.6470001 C161.767535,19.6470691 162.408838,20.275641 162.408838,21.051 C162.405899,21.8253579 161.766004,22.4523266 160.975892,22.455 L160.975892,22.455 Z" id="_"></path>
                        <path d="M51.5298099,19.671375 C49.0427207,19.671375 47.7869319,17.49225 47.7869319,15.385125 C47.7869319,13.278 49.1479437,11.191875 51.4104296,11.191875 C52.4703122,11.191875 53.8095141,11.71275 54.3352465,12.445125 L56.9696479,9.872625 C55.6947277,8.555625 53.6618192,7.769625 51.4104296,7.769625 C46.8288286,7.769625 43.5033991,10.992 43.5033991,15.431625 C43.5033991,19.94325 46.7917136,23.094 51.5003474,23.094 C53.7406408,23.094 55.8110469,22.45125 57.0385211,21.157875 L54.4749061,18.46275 C53.8856573,19.16925 52.6432606,19.671375 51.5298099,19.671375 Z M36.7962934,22.68525 L40.8839202,22.68525 L40.8839202,8.178 L36.7962934,8.178 L36.7962934,22.68525 Z M29.363723,16.13175 C29.363723,17.8365 28.229993,19.671375 26.1167324,19.671375 C24.4874977,19.671375 23.6177817,18.532875 23.6177817,16.19025 L23.6177817,8.178 L19.5301549,8.178 L19.5301549,17.18175 C19.5301549,20.177625 21.0556972,23.094 25.1345235,23.094 C27.0583826,23.094 28.6696338,21.60975 29.4811901,20.514375 L29.5424108,20.514375 L29.5424108,22.68525 L33.4532629,22.68525 L33.4532629,8.178 L29.363723,8.178 L29.363723,16.13175 Z M12.1561268,10.01925 L12.0642958,10.01925 C11.4869085,9.393375 9.92157277,7.76925 7.38244601,7.76925 C3.21484977,7.76925 0.00344366197,10.966875 0.00344366197,15.373125 C0.00344366197,19.8465 2.9669061,23.093625 7.18653991,23.093625 C9.00717412,23.0473796 10.728171,22.2689316 11.9452981,20.941125 L12.0057535,20.941125 L12.0057535,29.828625 L16.0933803,29.828625 L16.0933803,8.178 L12.1561268,8.178 L12.1561268,10.01925 Z M8.18749765,19.671375 C5.65984977,19.671375 4.22307746,17.509125 4.22307746,15.3735 C4.22307746,13.33125 5.54238263,11.133375 8.18749765,11.133375 C10.6202535,11.133375 12.1258991,13.364625 12.1258991,15.431625 C12.1258991,17.5155 10.652777,19.671375 8.18749765,19.671375 Z M101.293404,7.769625 C96.6425469,7.769625 93.266993,10.96725 93.266993,15.3735 C93.266993,19.93275 96.7175423,23.133 101.293404,23.133 C105.869265,23.133 109.319815,19.902 109.319815,15.3735 C109.318667,10.96725 105.943113,7.769625 101.293404,7.769625 Z M101.293404,19.671375 C98.6280094,19.671375 97.4139272,17.4435 97.4139272,15.3735 C97.4139272,13.33125 98.6280094,11.133375 101.293404,11.133375 C103.958798,11.133375 105.17288,13.33125 105.17288,15.3735 C105.171732,17.4435 103.958033,19.671375 101.293404,19.671375 L101.293404,19.671375 Z M152.394669,13.756125 C150.290209,13.264125 149.549822,12.999375 149.549822,12.164625 C149.549822,11.013375 151.037866,10.760625 151.711676,10.760625 C152.980092,10.760625 154.412655,11.503125 154.951779,12.20775 L157.362343,9.94125 C156.247744,8.569125 154.056045,7.769625 151.741521,7.769625 C148.783415,7.769625 145.677615,9.227625 145.677615,12.48525 C145.677615,15.28275 147.914465,16.1265 150.103486,16.640625 C152.410357,17.165625 153.233392,17.551875 153.233392,18.46275 C153.233392,19.80525 151.67877,20.024625 151.143854,20.024625 C149.716627,19.9662215 148.374082,19.3449163 147.421256,18.301875 L144.939906,20.767125 C146.295561,22.2405 148.615824,23.127 150.995394,23.127 C154.99119,23.127 157.362343,21.26025 157.362343,18.179625 C157.36196,15.232125 154.459718,14.24025 152.394669,13.756125 Z M144.665561,8.178 L139.39561,8.178 L134.11839,14.197875 L134.027324,14.197875 L134.027324,0.183375 L129.94008,0.183375 L129.94008,22.68525 L134.027324,22.68525 L134.027324,15.529875 L134.11839,15.529875 L139.594577,22.68525 L144.973577,22.68525 L138.610455,14.757 L144.665561,8.178 Z M84.053284,7.769625 C82.1837582,7.769625 80.8066761,8.57025 79.5061197,9.764625 L79.4295939,9.764625 L79.4295939,0.183375 L75.3442629,0.183375 L75.3442629,22.68525 L79.2539671,22.68525 L79.2539671,20.63475 L79.3151878,20.63475 C80.338883,22.1756125 82.0907145,23.1017822 83.9668099,23.0940487 C88.186061,23.0940487 91.3848404,19.846875 91.3848404,15.3735 C91.3833099,10.96725 88.2227934,7.769625 84.0548146,7.769625 L84.053284,7.769625 Z M83.2497629,19.671375 C80.7841009,19.671375 79.3086831,17.5155 79.3086831,15.431625 C79.3086831,13.364625 80.8147113,11.133375 83.2497629,11.133375 C85.8944953,11.133375 87.2103596,13.33125 87.2103596,15.3735 C87.2126526,17.509125 85.7785587,19.671375 83.2512934,19.671375 L83.2497629,19.671375 Z M73.8064765,8.178 L68.5346127,8.178 L63.257392,14.197875 L63.1663263,14.197875 L63.1663263,0.183375 L59.0790822,0.183375 L59.0790822,22.68525 L63.1663263,22.68525 L63.1663263,15.529875 L63.257392,15.529875 L68.7316667,22.68525 L74.1114319,22.68525 L67.7483099,14.757 L73.8064765,8.178 Z M119.253631,7.769625 C114.602775,7.769625 111.227221,10.96725 111.227221,15.3735 C111.227221,19.93275 114.67777,23.133 119.253631,23.133 C123.829493,23.133 127.280042,19.902 127.280042,15.3735 C127.280042,10.96725 123.904488,7.769625 119.253631,7.769625 Z M119.253631,19.671375 C116.588237,19.671375 115.374155,17.4435 115.374155,15.3735 C115.374155,13.33125 116.588237,11.133375 119.253631,11.133375 C121.919026,11.133375 123.133108,13.33125 123.133108,15.3735 C123.133108,17.4435 121.919026,19.671375 119.253631,19.671375 Z" id="quickbooks"></path>
                    </g>
                    <g id="Icon">
                        <circle id="Circle" fill="#483D66" cx="17.5" cy="17.5" r="17.5"></circle>
                        <path d="M4.85955556,17.4992222 C4.85955556,21.2578268 7.90650656,24.3047778 11.6651111,24.3047778 L12.6373333,24.3047778 L12.6373333,21.777 L11.6651111,21.777 C9.30255968,21.777 7.38733333,19.8617737 7.38733333,17.4992222 C7.38733333,15.1366708 9.30255968,13.2214444 11.6651111,13.2214444 L14.0011667,13.2214444 L14.0011667,26.4436667 C14.0011667,27.8397198 15.1328913,28.9714444 16.5289444,28.9714444 L16.5289444,10.6936667 L11.6651111,10.6936667 C7.90650656,10.6936667 4.85955556,13.7406177 4.85955556,17.4992222 Z M23.3352778,10.6936667 L22.3630556,10.6936667 L22.3630556,13.2214444 L23.3352778,13.2214444 C25.6978292,13.2214444 27.6130556,15.1366708 27.6130556,17.4992222 C27.6130556,19.8617737 25.6978292,21.777 23.3352778,21.777 L20.9988333,21.777 L20.9988333,8.55477778 C20.9988333,7.88436943 20.7325147,7.24141926 20.2584644,6.76736897 C19.7844141,6.29331868 19.1414639,6.027 18.4710556,6.027 L18.4710556,24.3047778 L23.3352778,24.3047778 C27.0938823,24.3047778 30.1408333,21.2578268 30.1408333,17.4992222 C30.1408333,13.7406177 27.0938823,10.6936667 23.3352778,10.6936667 Z" id="qb" fill="#FFFFFF"></path>
                    </g>
                    <path d="M55.6434369,4.27319113 C56.1001281,4.27319113 56.5118434,3.99623116 56.6865761,3.57147378 C56.8613088,3.14671641 56.7646427,2.65782356 56.441659,2.33279433 C56.1186752,2.0077651 55.6329899,1.91061858 55.2111064,2.08665983 C54.7892228,2.26270108 54.5142368,2.6772563 54.5143903,3.13699433 C54.5146,3.76456031 55.0200299,4.27319113 55.6434369,4.27319113 Z M48.9071218,5.03753476 C47.9255301,5.02265484 47.0230551,5.57774762 46.5882866,6.46379998 L46.5567766,6.46379998 L46.5567766,5.25843007 L44.7827233,5.25843007 L44.7827233,12.7807179 L46.6501678,12.7807179 L46.6501678,8.64332583 C46.6501678,7.64050699 47.2108946,6.60596789 48.3934702,6.60596789 C49.5923703,6.60596789 49.7950975,7.71885221 49.7950975,8.61198775 L49.7950975,12.7807179 L51.6629216,12.7807179 L51.6629216,8.08000458 C51.6629216,6.54329171 50.8535312,5.03868128 48.9086404,5.03868128 L48.9071218,5.03753476 Z M41,12.7807179 L42.8682037,12.7807179 L42.8682037,5.25843007 L41,5.25843007 L41,12.7807179 Z M74.9712398,4.2731912 C75.4279655,4.27334571 75.8397973,3.9964838 76.0146497,3.57173867 C76.189502,3.14699354 76.0929297,2.65803801 75.7699758,2.33292952 C75.4470219,2.00782103 74.9613068,1.91060445 74.5393766,2.0866233 C74.1174464,2.26264214 73.8424194,2.67722152 73.8425729,3.13699433 C73.8427825,3.76441111 74.3479811,4.2729802 74.9712398,4.2731912 L74.9712398,4.2731912 Z M71.9424796,5.25384401 L71.9424796,6.92049529 L74.0373278,6.92049529 L74.0373278,12.7807179 L75.9055314,12.7807179 L75.9055314,6.92049529 L78,6.92049529 L78,5.25422618 L71.9424796,5.25384401 Z M68.7656601,12.7826288 L70.6338638,12.7826288 L70.6338638,5.25843007 L68.7656601,5.25843007 L68.7656601,12.7826288 Z M52.6146766,6.92049529 L54.7091452,6.92049529 L54.7091452,12.7807179 L56.5773489,12.7807179 L56.5773489,6.92049529 L58.6718174,6.92049529 L58.6718174,5.25422618 L52.6146766,5.25422618 L52.6146766,6.92049529 Z M64.9852146,9.39620431 C64.9852146,10.3990232 64.4244877,11.4331801 63.2419121,11.4331801 C62.0430121,11.4331801 61.8406645,10.3206779 61.8406645,9.42716023 L61.8406645,5.25843007 L59.9724608,5.25843007 L59.9724608,9.95914339 C59.9724608,11.4954741 60.7818512,12.9997023 62.7282605,12.9997023 C63.7099885,13.0147308 64.6126478,12.4596155 65.0474754,11.5734371 L65.0786058,11.5734371 L65.0786058,12.7803357 L66.8534183,12.7803357 L66.8534183,5.25843007 L64.9852146,5.25843007 L64.9852146,9.39620431 Z" id="intuit" fill="#483D66"></path>
                </g>
            </g>
        </g>
    </g>
</svg>