<?xml version="1.0" encoding="UTF-8"?>
<svg width="87px" height="40px" viewBox="0 0 87 40" version="1.1" xmlns="http://www.w3.org/2000/svg" xmlns:xlink="http://www.w3.org/1999/xlink">
    <!-- Generator: sketchtool 61.1 (101010) - https://sketch.com -->
    <title>2EB9B09A-CA1F-4B96-90E9-49F952644C05</title>
    <desc>Created with sketchtool.</desc>
    <g id="Pages" stroke="none" stroke-width="1" fill="none" fill-rule="evenodd">
        <g id="Styles-&amp;-Components" transform="translate(-219.000000, -14781.000000)" fill="#8393AA" fill-rule="nonzero">
            <g id="Gray-Logos" transform="translate(49.000000, 14700.000000)">
                <g id="sift-logo-gray" transform="translate(170.000000, 81.000000)">
                    <circle id="Oval" cx="53.5" cy="4.5" r="2.5"></circle>
                    <polygon id="Path" points="44 39 49.0915499 39 55 12 49.9075271 12"></polygon>
                    <path d="M80.6425194,16.0872617 L86.1264797,16.0872617 L87,12.1825385 L81.5142926,12.1825385 L83.1067201,4.59621913 L78.3084731,4.59621913 L76.7160457,12.070975 L68.4010061,12.070975 L69.1504865,8.69683735 C69.4832977,7.08926851 70.2537426,5.25505882 71.5579084,4.65595393 C72.6072159,4.23513696 73.7354904,4.05072706 74.8633091,4.11570538 L75.7307148,0.201319184 C74.9285757,0.0636472233 74.1160569,-0.0036612312 73.3023284,0 C68.0454833,0 65.4336576,3.67296511 64.3601012,8.66082078 L63.5835417,12.1825385 L59.4779963,12.1825385 L58.604476,16.0872617 L62.7100214,16.0872617 L58,38.7337779 L62.7991205,38.7337779 L67.5414621,15.9756982 L75.8320431,15.9756982 L72.4401639,32.3017457 C71.5142324,36.7502313 72.7424019,38.9885293 77.1466912,38.9885293 C78.4509824,39.0456293 79.7558362,38.8892781 81.0102714,38.5255846 L81.8374951,34.7956735 C81.0013964,34.9448634 80.1534143,35.0163197 79.3042863,35.0091376 C77.0645803,35.0091376 76.9370463,33.8592427 77.418356,31.5831712 L80.6425194,16.0872617 Z" id="Path"></path>
                    <path d="M1.50088902,21 C0.672462042,20.9995093 0.00049128592,21.670684 0,22.4991109 C-0.000490747438,23.3275378 0.670683913,23.9995086 1.49911089,24 C2.32753788,24.0004908 2.99950879,23.3293163 3,22.5008894 L3,22.5008894 L3,22.5008894 C3,21.6729534 2.32882515,21.0017786 1.50088902,21.0017786 L1.50088902,21 Z" id="Path"></path>
                    <path d="M6.98153789,21.0797581 C6.4072817,20.8846168 5.77207181,21.0548058 5.3721602,21.5109516 C4.97224858,21.9670974 4.88640899,22.6193493 5.15467567,23.1635073 C5.42294235,23.7076653 5.99247269,24.0365422 6.59764663,23.996755 C7.20282058,23.9569678 7.72443224,23.5563537 7.91921009,22.9817528 C7.97223871,22.8279804 7.99950421,22.6664984 7.99990477,22.5038323 L7.99990477,22.5038323 C8.00719678,21.8577553 7.59509391,21.2814748 6.98153789,21.0797581 Z" id="Path"></path>
                    <circle id="Oval" cx="12" cy="22" r="2"></circle>
                    <circle id="Oval" cx="23" cy="22" r="2"></circle>
                    <circle id="Oval" cx="18" cy="22" r="2"></circle>
                    <path d="M1,18 C1.55228475,18 2,17.5522847 2,17 C2,16.4477153 1.55228475,16 1,16 C0.44771525,16 0,16.4477153 0,17 L0,17 C0,17.5518711 0.447379883,17.9992509 0.999250936,17.9992509 L1,18 Z" id="Path"></path>
                    <path d="M6.50093824,18 C7.32924149,17.9994839 8.00034387,17.3276826 8,16.4993772 C7.99965587,15.6710718 7.32799572,14.9998281 6.49969233,15 C5.67138895,15.000172 5,15.6716943 5,16.5 L5,16.5 C4.99876607,16.8965859 5.15511943,17.2774217 5.43467106,17.5587267 C5.71422268,17.8400317 6.09407286,17.9987626 6.49065789,18 L6.50093824,18 Z" id="Path"></path>
                    <circle id="Oval" cx="12" cy="17" r="2"></circle>
                    <circle id="Oval" cx="18" cy="17" r="2"></circle>
                    <path d="M22.9921605,19 C24.0967217,19.0043096 24.9956534,18.1123986 25,17.0078418 C25.0043152,15.903285 24.1124053,15.0043523 23.0078442,15 C21.903283,14.9956792 21.0043422,15.8875809 21,16.9921377 L21,17.0009655 C21,18.1023173 21.8908109,18.9962015 22.9921605,19 Z" id="Path"></path>
                    <path d="M6.49906673,13 C7.32749369,13.0005151 7.99948425,12.3293602 8,11.5009333 C8.00051516,10.6725064 7.32936033,10.0005159 6.50093336,10 C5.6725064,9.99948473 5.00051567,10.6706394 5,11.4990663 L5,11.4990663 C5.00257286,12.3250036 5.67312547,12.993051 6.49906673,12.9925324 L6.49906673,13 Z" id="Path"></path>
                    <path d="M28.5009429,13 C29.3291217,12.9994845 30.0001718,12.327873 30,11.4996889 C29.9998281,10.6715048 29.3284994,10.0001719 28.5003205,10 C27.6721416,9.99982819 27.0005343,10.6708825 27,11.4990664 L27,11.4990664 C26.9980334,11.8951598 27.1534783,12.2758184 27.4321565,12.5572991 C27.7108347,12.8387798 28.0899174,12.9980245 28.4860084,13 L28.5009429,13 Z" id="Path"></path>
                    <path d="M1.49935835,12 C1.7755005,12.0003538 1.99964517,11.7767837 2,11.5006417 C2.00035399,11.2244997 1.77678393,11.000355 1.50064177,11 C1.22449962,10.9996459 1.00035471,11.2232157 1,11.4993577 L1,11.5032088 L1,11.5032088 C1.00017012,11.6351362 1.05274129,11.7615926 1.14614843,11.8547589 C1.23955557,11.9479253 1.36614724,12.0001699 1.49807466,12 L1.49935835,12 Z" id="Path"></path>
                    <circle id="Oval" cx="23.5" cy="11.5" r="1.5"></circle>
                    <circle id="Oval" cx="12.5" cy="11.5" r="1.5"></circle>
                    <circle id="Oval" cx="18" cy="11" r="2"></circle>
                    <path d="M6.5,6 C6.77614247,6 7,5.77614237 7,5.5 C7,5.22385763 6.77614247,5 6.5,5 C6.22385795,5 6,5.22385763 6,5.5 L6,5.5 C5.99983008,5.63243805 6.05227756,5.75951944 6.14580499,5.85328765 C6.23933243,5.94705586 6.36627852,5.99982988 6.49871651,6 L6.5,6 Z" id="Path"></path>
                    <circle id="Oval" cx="12" cy="6" r="1"></circle>
                    <circle id="Oval" cx="17.5" cy="5.5" r="1.5"></circle>
                    <circle id="Oval" cx="23" cy="6" r="1"></circle>
                    <path d="M28.5,6 C28.7761425,6 29,5.77614237 29,5.5 C29,5.22385763 28.7761425,5 28.5,5 C28.2238579,5 28,5.22385763 28,5.5 L28,5.5 C27.9998301,5.63243805 28.0522776,5.75951944 28.145805,5.85328765 C28.2393324,5.94705586 28.3662785,5.99982988 28.4987165,6 L28.5,6 Z" id="Path"></path>
                    <path d="M1.3501135,27.0634397 C0.971336095,26.9216955 0.544488783,27.0221608 0.268653855,27.3179784 C-0.00718107335,27.6137961 -0.0776677343,28.0466938 0.0900689663,28.4147674 C0.257805667,28.782841 0.630723787,29.0135848 1.0348937,28.9993795 C1.43906362,28.9851742 1.79486913,28.728818 1.93636196,28.349876 C1.97836183,28.2387345 1.99989585,28.1209052 1.99992206,28.0020894 L1.99992206,28.0020894 C2.00517561,27.58275 1.74440299,27.2060634 1.3501135,27.0634397 L1.3501135,27.0634397 Z" id="Path"></path>
                    <path d="M29.0275002,26.0959323 C28.4135859,25.8652725 27.7209977,26.0601837 27.3175,26.5771683 C26.9140023,27.0941528 26.8931636,27.8133253 27.2660493,28.3528051 C27.6389349,28.8922848 28.3190752,29.1269701 28.9453155,28.9322429 C29.5715558,28.7375157 29.9986752,28.1585321 29.9998732,27.5027323 L29.9998732,27.5027323 C30.0080727,26.8746856 29.6179266,26.310234 29.0275002,26.0959323 Z" id="Path"></path>
                    <path d="M23.6427793,26.1062592 C22.820258,25.8270731 21.9115598,26.1107115 21.3939223,26.8082108 C20.8762847,27.5057101 20.8680733,28.4575768 21.3736005,29.1639019 C21.8791277,29.870227 22.7827973,30.1694988 23.6100128,29.9045434 C24.4372283,29.6395879 24.9988346,28.8709912 24.9998829,28.002411 L24.9998829,28.002411 C25.0092135,27.1421239 24.4601222,26.3749308 23.6427793,26.1062592 Z" id="Path"></path>
                    <circle id="Oval" cx="18" cy="28" r="2"></circle>
                    <circle id="Oval" cx="12" cy="28" r="2"></circle>
                    <path d="M6.50186626,26 C5.67343977,25.9989708 5.001032,26.6697074 5,27.4981336 C4.99897038,28.3265597 5.66970688,28.9989676 6.49813338,29 C7.32655987,29.00103 7.99896834,28.3302942 8,27.501868 L8,27.501868 C8,26.6761386 7.3322573,26.0058864 6.50653335,26.0028014 L6.50653335,26.0028014 L6.50186626,26 Z" id="Path"></path>
                    <path d="M29.0038872,32 C28.4516066,31.9978629 28.0021553,32.443833 28,32.9961115 C27.9978602,33.54839 28.4438296,33.9978419 28.9961102,34 C29.5483907,34.0021426 29.9978466,33.5561771 30,33.0038986 L30,32.9992293 C30.0004305,32.448411 29.5547063,32.0012955 29.0038872,32 Z" id="Path"></path>
                    <path d="M6.5,32 C5.67157288,32 5,32.6715729 5,33.5 C5,34.3284271 5.67157288,35 6.5,35 C7.32842712,35 8,34.3284271 8,33.5 L8,33.5 C8,32.6715729 7.32842712,32 6.5,32 L6.5,32 Z" id="Path"></path>
                    <path d="M34,32.5006414 C34.0003538,32.2244994 33.7767837,32.0003548 33.5006417,32 C33.2244997,31.999646 33.000355,32.223216 33,32.499358 C32.9996459,32.7755001 33.2232157,32.9996449 33.4993577,33 L33.4993577,33 C33.631966,33.0001699 33.7592107,32.9476548 33.8530992,32.854007 C33.9469878,32.7603591 33.9998295,32.6332497 34,32.5006414 L34,32.5006414 Z" id="Path"></path>
                    <circle id="Oval" cx="12.5" cy="33.5" r="1.5"></circle>
                    <circle id="Oval" cx="18" cy="33" r="2"></circle>
                    <path d="M1.50064144,33 C1.2244994,32.9996462 1.00035483,33.2232163 1,33.4993583 C0.999646014,33.7755003 1.22321598,33.999645 1.49935802,34 C1.77550006,34.0003541 1.99964488,33.7767843 2,33.5006423 L2,33.5006423 C2.00016993,33.368034 1.9476548,33.2407893 1.85400696,33.1469008 C1.76035911,33.0530122 1.63324972,33.0001705 1.50064144,33 Z" id="Path"></path>
                    <circle id="Oval" cx="23" cy="39" r="1"></circle>
                    <circle id="Oval" cx="17.5" cy="38.5" r="1.5"></circle>
                    <circle id="Oval" cx="12" cy="39" r="1"></circle>
                    <path d="M6.50064144,38 C6.2244994,37.9996462 6.00035483,38.2232163 6,38.4993583 C5.99964601,38.7755003 6.22321598,38.999645 6.49935802,39 C6.77550006,39.0003541 6.99964488,38.7767843 7,38.5006423 L7,38.5006423 C7.00016993,38.368034 6.9476548,38.2407893 6.85400696,38.1469008 C6.76035911,38.0530122 6.63324972,38.0001705 6.50064144,38 L6.50064144,38 Z" id="Path"></path>
                    <path d="M35.9661415,24.0487941 L35.9661415,24.0487941 C35.671189,23.8845236 35.3762365,23.7256097 35.0866794,23.5693741 C33.0310044,22.4587624 31.2513977,21.4981368 31.2513977,19.6929463 C31.2513977,17.7199142 33.1928686,16.1780922 35.6792822,16.1780922 C37.693161,16.2541043 39.5846394,17.1576282 40.9012003,18.6725048 L44,15.7263482 C41.8796923,13.4025052 38.884746,12.054135 35.7269422,12.0016921 C33.2168804,11.957359 30.7701441,12.7853854 28.8099464,14.3425474 C26.9953075,15.7946919 25.9379151,17.9825068 25.9323611,20.296462 C25.9323611,23.1676255 27.7119678,25.4192033 31.7010204,27.5993592 C35.176604,29.514361 36.5920163,30.4723082 36.5920163,32.2641071 C36.5920163,34.2282115 34.3627869,35.8923435 31.7226023,35.8923435 C30.1175102,35.8727162 28.5645648,35.3237214 27.3082066,34.3317733 L27.2533526,34.2889201 L27.2281737,34.2674935 C27.2011964,34.2487453 27.1751183,34.2273187 27.1481409,34.2067849 L27.0977832,34.1683956 L27.0168511,34.1050085 L27.0024632,34.0978663 C26.3674151,33.5729463 25.7928906,32.9798003 25.2894006,32.3292796 L25.2894006,32.3292796 L25.1994761,32.2158972 C24.9926496,31.9364588 24.7966141,31.6489853 24.6158658,31.3543696 L21,33.651479 C21.5308256,34.6451338 22.2167463,35.5490961 23.0322946,36.3298031 C25.2065223,38.5716344 28.1727245,39.8875379 31.3053525,40 C37.5533096,40 41.9164484,36.5181786 41.9164484,31.5293535 C41.9101537,28.4546374 40.2438519,26.3628662 35.9661415,24.0487941 Z" id="Path"></path>
                </g>
            </g>
        </g>
    </g>
</svg>