<?xml version="1.0" encoding="UTF-8"?>
<svg width="134px" height="34px" viewBox="0 0 134 34" version="1.1" xmlns="http://www.w3.org/2000/svg" xmlns:xlink="http://www.w3.org/1999/xlink">
    <!-- Generator: sketchtool 61.1 (101010) - https://sketch.com -->
    <title>B324231A-C427-4AF0-91B3-31C891977C15</title>
    <desc>Created with sketchtool.</desc>
    <g id="Pages" stroke="none" stroke-width="1" fill="none" fill-rule="evenodd">
        <g id="Styles-&amp;-Components" transform="translate(-356.000000, -14784.000000)" fill="#8393AA" fill-rule="nonzero">
            <g id="Gray-Logos" transform="translate(49.000000, 14700.000000)">
                <g id="slack-logo-gray" transform="translate(307.000000, 84.000000)">
                    <path d="M43,26.5733333 L44.7364086,22.7333333 C46.6128501,24.0666667 49.1054366,24.76 51.5700165,24.76 C53.3904448,24.76 54.538715,24.0933333 54.538715,23.08 C54.5107084,20.2533333 43.6441516,22.4666667 43.5601318,15.3733333 C43.5321252,11.7733333 46.892916,9 51.6540362,9 C54.4827018,9 57.3113674,9.66666667 59.3278418,11.1866667 L57.7034596,15.1066667 C55.8550247,13.9866667 53.5584843,13.1866667 51.3739703,13.1866667 C49.8896211,13.1866667 48.9093904,13.8533333 48.9093904,14.7066667 C48.937397,17.48 59.8879736,15.96 60,22.7333333 C60,26.4133333 56.723229,29 52.0181219,29 C48.5733114,29 45.4085667,28.2266667 43,26.5733333" id="Path"></path>
                    <path d="M107.37388,21.3464495 C106.292093,23.2350635 104.054379,24.1673791 101.926182,23.6161658 C99.7979838,23.0649524 98.3143954,21.1688019 98.3143954,19 C98.3143954,16.8311981 99.7979838,14.9350476 101.926182,14.3838342 C104.054379,13.8326209 106.292093,14.7649365 107.37388,16.6535505 L112,14.1204515 C109.74655,10.1478745 105.05549,8.17640788 100.586968,9.32400632 C96.1184456,10.4716048 93,14.4486956 93,19 C93,23.5513044 96.1184456,27.5283952 100.586968,28.6759937 C105.05549,29.8235921 109.74655,27.8521255 112,23.8795485 L107.37388,21.3464495 Z" id="Path"></path>
                    <rect id="Rectangle" x="62" y="1" width="6" height="28"></rect>
                    <polygon id="Path" points="114 1 114 29 119.768194 29 119.768194 20.6026743 126.614555 29 134 29 125.293801 19.0248329 133.3531 9.7182426 126.291105 9.7182426 119.768194 17.4469914 119.768194 1"></polygon>
                    <path d="M84.3905636,21.4 C83.5779817,22.76 81.9003932,23.7733333 80.0131062,23.7733333 C77.4217832,23.7733333 75.3211009,21.6362392 75.3211009,19 C75.3211009,16.3637608 77.4217832,14.2266663 80.0131062,14.2266663 C81.7894179,14.2260078 83.4419498,15.1521646 84.3905636,16.68 L84.3905636,21.4 Z M84.3905636,9.4 L84.3905636,11.6666667 C83.4731324,10.0933333 81.1926606,9 78.8073394,9 C73.8794233,9 70,13.4266667 70,18.9733333 C70,24.52 73.8794233,29 78.8073394,29 C81.1926606,29 83.4731324,27.9066667 84.3905636,26.3333333 L84.3905636,28.6 L90,28.6 L90,9.4 L84.3905636,9.4 Z" id="Shape"></path>
                    <path d="M7,21.5 C7,23.4329966 5.43299662,25 3.5,25 C1.56700338,25 0,23.4329966 0,21.5 C0,19.5670034 1.56700338,18 3.5,18 L7,18 L7,21.5 Z" id="Path"></path>
                    <path d="M9,21.5555556 C9,19.5918764 10.5670034,18 12.5,18 C14.4329966,18 16,19.5918764 16,21.5555556 L16,30.4444444 C16,32.4081236 14.4329966,34 12.5,34 C10.5670034,34 9,32.4081236 9,30.4444444 L9,21.5555556 Z" id="Path"></path>
                    <path d="M12.5,7 C10.5670034,7 9,5.43299662 9,3.5 C9,1.56700338 10.5670034,0 12.5,0 C14.4329966,0 16,1.56700338 16,3.5 L16,7 L12.5,7 Z" id="Path"></path>
                    <path d="M12.4504202,9 C14.410799,9 16,10.5670034 16,12.5 C16,14.4329966 14.410799,16 12.4504202,16 L3.54957985,16 C1.58920103,16 0,14.4329966 0,12.5 C0,10.5670034 1.58920103,9 3.54957985,9 L12.4504202,9 Z" id="Path"></path>
                    <path d="M27,12.5 C27,10.5670034 28.5670034,9 30.5,9 C32.4329966,9 34,10.5670034 34,12.5 C34,14.4329966 32.4329966,16 30.5,16 L27,16 L27,12.5 Z" id="Path"></path>
                    <path d="M25,12.4504202 C25,14.410799 23.4329966,16 21.5,16 C19.5670034,16 18,14.410799 18,12.4504202 L18,3.54957983 C18,1.58920102 19.5670034,0 21.5,0 C23.4329966,0 25,1.58920102 25,3.54957983 L25,12.4504202 Z" id="Path"></path>
                    <path d="M21.5,27 C23.4329966,27 25,28.5670034 25,30.5 C25,32.4329966 23.4329966,34 21.5,34 C19.5670034,34 18,32.4329966 18,30.5 L18,27 L21.5,27 Z" id="Path"></path>
                    <path d="M21.5495799,25 C20.2814372,25 19.1096249,24.3329038 18.4755535,23.25 C17.8414822,22.1670962 17.8414822,20.8329038 18.4755535,19.75 C19.1096249,18.6670962 20.2814372,18 21.5495799,18 L30.4504202,18 C32.410799,18 34,19.5670034 34,21.5 C34,23.4329966 32.410799,25 30.4504202,25 L21.5495799,25 Z" id="Path"></path>
                </g>
            </g>
        </g>
    </g>
</svg>