<?xml version="1.0" encoding="UTF-8"?>
<svg width="49px" height="54px" viewBox="0 0 49 54" version="1.1" xmlns="http://www.w3.org/2000/svg" xmlns:xlink="http://www.w3.org/1999/xlink">
    <!-- Generator: sketchtool 61.1 (101010) - https://sketch.com -->
    <title>848C8B8B-3ACD-4ADB-87F0-E551AA27D2FA</title>
    <desc>Created with sketchtool.</desc>
    <g id="Pages" stroke="none" stroke-width="1" fill="none" fill-rule="evenodd">
        <g id="Home-page-01---Ruby-SDK-Hover" transform="translate(-1078.000000, -975.000000)" fill-rule="nonzero">
            <g id="c-sharp-gray-02" transform="translate(1078.000000, 975.000000)">
                <path d="M45.3,42.625 L27.4,52.825 C25.4441061,53.9252232 23.0558939,53.9252232 21.1,52.825 L3.2,42.625 C1.20595594,41.5166841 -0.0219338762,39.4062485 -0.000289025291,37.125 L-0.000289025291,16.525 C-0.0219338762,14.2437515 1.20595594,12.1333159 3.2,11.025 L21.1,0.825 C23.0558939,-0.275223218 25.4441061,-0.275223218 27.4,0.825 L45.2,11.125 C47.1940441,12.2333159 48.4219339,14.3437515 48.400289,16.625 L48.400289,37.225 C48.341721,39.4321206 47.1765809,41.4617194 45.3,42.625 L45.3,42.625 Z" id="Path" fill="#9E9E9E"></path>
                <path d="M18.8,38.025 C15.8280561,38.0600396 12.9690199,36.8880044 10.8768375,34.7769735 C8.78465513,32.6659427 7.63830815,29.7965102 7.7,26.825 C7.62269941,23.8224492 8.77453159,20.9184818 10.888899,18.7852361 C13.0032663,16.6519905 15.8968808,15.4743913 18.9,15.525 C22.0858458,15.4099772 25.1723343,16.6445726 27.4,18.925 L24.9,21.725 C23.3103686,20.0443102 21.112892,19.0716566 18.8,19.025 C14.6,19.025 11.6,22.425 11.6,26.725 C11.6,31.025 14.6,34.525 18.8,34.525 C21.5,34.525 23.2,33.425 25,31.725 L27.5,34.225 C25.3674217,36.8006108 22.1387308,38.2108436 18.8,38.025 L18.8,38.025 Z M39.2,24.925 L38.7,28.225 L40.6,28.225 L40.6,30.225 L38.4,30.225 L37.9,33.225 L35.9,33.225 L36.4,30.225 L33.3,30.225 L32.8,33.225 L30.8,33.225 L31.3,30.225 L29.6,30.225 L29.6,28.225 L31.6,28.225 L32.1,24.925 L30.2,24.925 L30.2,22.925 L32.4,22.925 L32.9,19.925 L34.9,19.925 L34.4,22.925 L37.5,22.925 L38,19.925 L40,19.925 L39.5,22.925 L41.2,22.925 L41.2,24.925 L39.2,24.925 Z M34.1,24.925 L33.5,28.225 L36.6,28.225 L37.2,24.925 L34.1,24.925 Z" id="Shape" fill="#FFFFFF"></path>
            </g>
        </g>
    </g>
</svg>
