<?xml version="1.0" encoding="UTF-8"?>
<svg width="123px" height="33px" viewBox="0 0 123 33" version="1.1" xmlns="http://www.w3.org/2000/svg" xmlns:xlink="http://www.w3.org/1999/xlink">
    <!-- Generator: sketchtool 61.1 (101010) - https://sketch.com -->
    <title>142B9BE3-466D-4351-93BA-C55F6291474F</title>
    <desc>Created with sketchtool.</desc>
    <defs>
        <linearGradient x1="64.1503134%" y1="17.479174%" x2="32.7083848%" y2="89.7185697%" id="linearGradient-1">
            <stop stop-color="#3F873F" offset="0%"></stop>
            <stop stop-color="#3F8B3D" offset="33%"></stop>
            <stop stop-color="#3E9637" offset="63.7%"></stop>
            <stop stop-color="#3DA92E" offset="93.4%"></stop>
            <stop stop-color="#3DAE2B" offset="100%"></stop>
        </linearGradient>
        <linearGradient x1="44.9652615%" y1="55.2219338%" x2="131.301508%" y2="-18.2995499%" id="linearGradient-2">
            <stop stop-color="#3F873F" offset="13.8%"></stop>
            <stop stop-color="#529F44" offset="39.7%"></stop>
            <stop stop-color="#63B649" offset="71.1%"></stop>
            <stop stop-color="#6ABF4B" offset="90.8%"></stop>
        </linearGradient>
        <linearGradient x1="-4.47816432%" y1="50.0009726%" x2="101.562024%" y2="50.0009726%" id="linearGradient-3">
            <stop stop-color="#6ABF4B" offset="9.2%"></stop>
            <stop stop-color="#63B649" offset="28.9%"></stop>
            <stop stop-color="#529F44" offset="60.3%"></stop>
            <stop stop-color="#3F873F" offset="86.2%"></stop>
        </linearGradient>
    </defs>
    <g id="Pages" stroke="none" stroke-width="1" fill="none" fill-rule="evenodd">
        <g id="Styles-&amp;-Components" transform="translate(-50.000000, -14915.000000)">
            <g id="node-js-logo" transform="translate(50.000000, 14915.000000)">
                <path d="M18.4,17.575 C18.4019433,17.2082677 18.2124031,16.8670954 17.9,16.675 L9.7,11.975 C9.55015823,11.8842151 9.37323274,11.84883 9.2,11.875 L9.1,11.875 C8.92717817,11.859436 8.75354169,11.8941633 8.6,11.975 L0.4,16.675 C0.150845384,16.9088482 0.00661878571,17.2333581 0,17.575 L0,30.275 C0.00299880921,30.4316556 0.0764748222,30.5786076 0.2,30.675 C0.351653471,30.775044 0.548346529,30.775044 0.7,30.675 L5.6,27.875 C5.91240308,27.6829046 6.10194327,27.3417323 6.1,26.975 L6.1,21.075 C6.09805673,20.7082677 6.28759692,20.3670954 6.6,20.175 L8.7,18.975 C8.85354169,18.8941633 9.02717817,18.859436 9.2,18.875 C9.37282183,18.859436 9.54645831,18.8941633 9.7,18.975 L11.8,20.175 C12.1124031,20.3670954 12.3019433,20.7082677 12.3,21.075 L12.3,26.975 C12.2980567,27.3417323 12.4875969,27.6829046 12.8,27.875 L17.7,30.675 C17.8516535,30.775044 18.0483465,30.775044 18.2,30.675 C18.3419372,30.5948687 18.4210573,30.4366286 18.4,30.275 L18.4,17.575 Z" id="Path" fill="#333333" fill-rule="nonzero"></path>
                <path d="M61.7,0.075 C61.8516535,-0.0250439773 62.0483465,-0.0250439773 62.2,0.075 L62.2,0.075 L67.1,2.775 C67.4124031,2.9670954 67.6019433,3.30826774 67.6000148,3.675 L67.6000148,3.675 L67.6000148,27.275 C67.6019433,27.6417323 67.4124031,27.9829046 67.1,28.175 L67.1,28.175 L58.9,32.875 C58.5966931,33.075088 58.2033069,33.075088 57.9,32.875 L57.9,32.875 L49.7,28.175 C49.3875969,27.9829046 49.1980567,27.6417323 49.1999852,27.275 L49.1999852,27.275 L49.1999852,17.775 C49.1980567,17.4082677 49.3875969,17.0670954 49.7,16.875 L49.7,16.875 L57.9,12.175 C58.2033069,11.974912 58.5966931,11.974912 58.9,12.175 L61,13.375 C61.0352877,13.4224023 61.0909052,13.4503353 61.15,13.4503353 C61.2090948,13.4503353 61.2647123,13.4224023 61.3,13.375 C61.4,13.275 61.5,13.175 61.5,13.075 L61.5,13.075 L61.5,0.475 C61.4789427,0.31337142 61.5580628,0.155131331 61.7,0.075 Z M58.6,19.075 L58.4,19.075 L55.6,20.675 C55.5,20.675 55.5,20.775 55.5,20.875 L55.500463,24.224537 C55.5027778,24.3055556 55.5166667,24.375 55.6,24.375 L55.6,24.375 L58.4,25.975 L58.6,25.975 L61.4,24.375 C61.5,24.375 61.5,24.275 61.5,24.175 L61.5,24.175 L61.5,20.875 C61.5,20.775 61.5,20.675 61.4,20.675 L61.4,20.675 L58.6,19.075 Z" id="Combined-Shape" fill="#333333" fill-rule="nonzero"></path>
                <path d="M91.6,20.875 C91.9124031,20.6829046 92.1019433,20.3417323 92.1000148,19.975 L92.1000148,17.675 C92.1019433,17.3082677 91.9124031,16.9670954 91.6,16.775 L83.4,12.075 C83.0966931,11.874912 82.7033069,11.874912 82.4,12.075 L74.2,16.775 C73.8875969,16.9670954 73.6980567,17.3082677 73.6999852,17.675 L73.6999852,27.175 C73.6980567,27.5417323 73.8875969,27.8829046 74.2,28.075 L82.4,32.675 C82.7033069,32.875088 83.0966931,32.875088 83.4,32.675 L88.3,29.975 C88.459873,29.8993325 88.5721236,29.749665 88.6,29.575 C88.5970012,29.4183444 88.5235252,29.2713924 88.4,29.175 L80.1,24.475 C79.9580628,24.3948687 79.8789427,24.2366286 79.9,24.075 L79.9,21.075 C79.9029988,20.9183444 79.9764748,20.7713924 80.1,20.675 L82.7,19.175 C82.8516535,19.074956 83.0483465,19.074956 83.2,19.175 L85.8,20.675 C85.9419372,20.7551313 86.0210573,20.9133714 86,21.075 L86,23.375 C86.0029988,23.5316556 86.0764748,23.6786076 86.2,23.775 C86.3516535,23.875044 86.5483465,23.875044 86.7,23.775 L91.6,20.875 Z" id="Path" fill="#333333" fill-rule="nonzero"></path>
                <g id="Group-19" transform="translate(24.600000, 11.920000)">
                    <path d="M9.70745263,0.245353211 C9.40255933,0.0702074353 9.02688067,0.0702074353 8.72198737,0.245353211 L0.561490526,4.93047248 C0.25675851,5.10520425 0.0688088592,5.42830233 0.0683705263,5.7781789 L0.0683705263,15.1547752 C0.0683705263,15.5050592 0.256216454,15.8287434 0.561103158,16.0040229 L8.72179368,20.6922248 C9.02682825,20.8673599 9.40261175,20.8673599 9.70764632,20.6922248 L17.8664,16.0040229 C18.1712867,15.8287434 18.3591326,15.5050592 18.3591326,15.1547752 L18.3591326,5.7781789 C18.3586944,5.42835274 18.1708346,5.10528227 17.8662063,4.93047248 L9.70745263,0.245353211 Z" id="Path" fill="url(#linearGradient-1)"></path>
                    <path d="M8.70494316,0.245353211 L0.527208421,4.93047248 C0.214170121,5.10150914 0.0141087129,5.42319091 0,5.7781789 L0,15.1547752 C0.00520691307,15.3867185 0.0956796287,15.6087233 0.254307368,15.7788028 L9.44268632,0.143821101 C9.19279498,0.0820544619 8.92858738,0.118416107 8.70494316,0.245353211 Z" id="Path"></path>
                    <path d="M9.48820211,20.7864358 C9.56850915,20.7646745 9.64570079,20.7328216 9.71791158,20.6916468 L17.8873179,16.0040229 C18.1971152,15.8309352 18.3921408,15.508123 18.4003874,15.1547752 L18.4003874,5.7781789 C18.3958716,5.52081508 18.2885462,5.27582602 18.1021137,5.09731651 L9.48820211,20.7864358 Z" id="Path"></path>
                    <path d="M17.8822821,4.93047248 L9.69873684,0.245353211 C9.61865222,0.199616064 9.53244036,0.165430342 9.44268632,0.143821101 L0.254307368,15.7788028 C0.333446483,15.8679349 0.426351906,15.9439606 0.529532632,16.0040229 L8.72605474,20.6922248 C8.9568965,20.8238106 9.23110363,20.8579487 9.48742737,20.7870138 L18.1017263,5.09770183 C18.0361807,5.03272584 17.9624132,4.9765107 17.8822821,4.93047248 L17.8822821,4.93047248 Z" id="Path" fill="url(#linearGradient-2)" fill-rule="nonzero"></path>
                    <path d="M18.4,15.1547752 L18.4,5.7781789 C18.3896387,5.42460995 18.192957,5.10256518 17.8822821,4.93047248 L9.69873684,0.245353211 C9.60544034,0.192487546 9.50400433,0.155317323 9.39852632,0.135344037 L18.3693979,15.3801881 C18.389136,15.3066392 18.3994187,15.2308975 18.4,15.1547752 Z" id="Path"></path>
                    <path d="M0.527208421,4.93047248 C0.214170121,5.10150914 0.0141087129,5.42319091 0,5.7781789 L0,15.1547752 C0.0149242521,15.510535 0.215764994,15.832637 0.529532632,16.0040229 L8.72605474,20.6922248 C8.91694418,20.8010705 9.13872597,20.8438915 9.35669053,20.8139862 L0.576404211,4.90138073 L0.527208421,4.93047248 Z" id="Path"></path>
                    <path d="M17.8873179,16.0040229 C18.1251531,15.8681863 18.2987781,15.6436876 18.3697853,15.3801881 L9.39852632,0.135344037 C9.16156783,0.0872481852 8.91511379,0.126338243 8.70494316,0.245353211 L0.576404211,4.90138073 L9.35746526,20.8139862 C9.48443451,20.797116 9.60687253,20.7557555 9.71791158,20.6922248 L17.8873179,16.0040229 Z" id="Path" fill="url(#linearGradient-3)" fill-rule="nonzero"></path>
                </g>
                <path d="M107.5,32.875 C107.221836,32.8682269 106.948626,32.7999243 106.7,32.675 L104.1,31.175 C103.7,30.975 103.9,30.875 104,30.875 C104.410023,30.7334892 104.810804,30.5664972 105.2,30.375 L105.4,30.375 L107.4,31.575 L107.6,31.575 L115.3,27.075 C115.4,27.075 115.4,26.975 115.4,26.875 L115.4,17.975 C115.4,17.875 115.4,17.775 115.3,17.775 L107.6,13.275 L107.4,13.275 L99.7,17.775 C99.6,17.775 99.6,17.875 99.6,17.975 L99.6,26.875 C99.6,26.975 99.6,27.075 99.7,27.075 L101.8,28.275 C103,28.875 103.7,28.175 103.7,27.475 L103.7,18.675 C103.707258,18.5676932 103.792693,18.4822584 103.9,18.475 L104.9,18.475 C105.007307,18.4822584 105.092742,18.5676932 105.1,18.675 L105.1,27.475 C105.182903,28.1155251 104.971255,28.7591344 104.524376,29.2254433 C104.077496,29.6917523 103.443472,29.9305836 102.8,29.875 C102.165084,29.8796734 101.541544,29.7064679 101,29.375 L99,28.175 C98.5004879,27.8866374 98.1948371,27.3517483 98.1999356,26.775 L98.1999356,17.875 C98.1948371,17.2982517 98.5004879,16.7633626 99,16.475 L106.7,11.975 C107.191164,11.6750636 107.808836,11.6750636 108.3,11.975 L116,16.475 C116.499512,16.7633626 116.805163,17.2982517 116.800064,17.875 L116.800064,26.775 C116.805163,27.3517483 116.499512,27.8866374 116,28.175 L108.3,32.675 C108.051374,32.7999243 107.778164,32.8682269 107.5,32.875 L107.5,32.875 Z" id="Path" fill="#3F873F" fill-rule="nonzero"></path>
                <path d="M109.9,26.675 C106.5,26.675 105.8,25.075 105.8,23.775 C105.807258,23.6676932 105.892693,23.5822584 106,23.575 L107,23.575 C107.107307,23.5822584 107.192742,23.6676932 107.2,23.775 C107.4,24.775 107.8,25.275 109.9,25.275 C111.5,25.275 112.2,24.875 112.2,24.075 C112.2,23.575 112,23.175 109.5,22.975 C107.4,22.775 106.1,22.275 106.1,20.575 C106.1,18.975 107.4,18.075 109.6,18.075 C112.1,18.075 113.3,18.975 113.5,20.775 C113.5,20.875 113.5,20.875 113.4,20.975 C113.346105,21.0293661 113.27583,21.0645037 113.2,21.075 L112.2,21.075 C112.092693,21.0677416 112.007258,20.9823068 112,20.875 C111.8,19.775 111.2,19.475 109.6,19.475 C107.8,19.475 107.6,20.075 107.6,20.575 C107.6,21.175 107.8,21.275 110.2,21.575 C112.6,21.875 113.7,22.375 113.7,23.975 C113.8,25.775 112.4,26.675 109.9,26.675 Z" id="Path" fill="#3F873F" fill-rule="nonzero"></path>
                <path d="M82.8,20.375 L83,20.375 L84.6,21.275 C84.7,21.275 84.7,21.375 84.7,21.475 L84.7,23.275 C84.7,23.375 84.7,23.375 84.6,23.475 L83,24.375 L82.8,24.375 L81.2,23.475 C81.1,23.475 81.1,23.375 81.1,23.275 L81.1,21.475 C81.1,21.375 81.1,21.375 81.2,21.275 L82.8,20.375 Z" id="Path" fill="#3F873F" fill-rule="nonzero"></path>
                <path d="M122.3,14.375 C122.3,15.2034271 121.628427,15.875 120.8,15.875 C119.971573,15.875 119.3,15.2034271 119.3,14.375 C119.3,13.5465729 119.971573,12.875 120.8,12.875 C121.200048,12.8675974 121.585895,13.0232544 121.86882,13.3061796 C122.151746,13.5891048 122.307403,13.9749518 122.3,14.375 L122.3,14.375 Z" id="Path" fill="#3F873F" fill-rule="nonzero"></path>
                <path d="M119.5,14.375 C119.502311,15.0539718 120.023382,15.6184658 120.7,15.675 C121.412599,15.6621957 121.987196,15.0875991 122,14.375 C121.989665,14.0424617 121.846134,13.7280252 121.601666,13.5023621 C121.357197,13.2766991 121.032301,13.1587411 120.7,13.175 C120.377812,13.1615756 120.064725,13.2836874 119.836706,13.5117063 C119.608687,13.7397253 119.486576,14.0528121 119.5,14.375 L119.5,14.375 Z" id="Path" fill="#3F873F" fill-rule="nonzero"></path>
                <path d="M120.2,13.475 L120.8,13.475 C121,13.475 121.4,13.475 121.4,13.875 C121.4,14.175 121.2,14.275 121.1,14.275 C121.3,14.275 121.3,14.475 121.4,14.675 C121.4,14.775 121.4,15.075 121.5,15.075 L121.1,15.075 C121.076515,14.906514 121.043124,14.7395581 121,14.575 C121,14.475 120.9,14.475 120.8,14.475 L120.5,14.475 L120.5,15.175 L120.2,15.175 L120.2,13.475 L120.2,13.475 Z" id="Path" fill="#3F873F" fill-rule="nonzero"></path>
                <path d="M120.5,14.275 L120.8,14.275 C121,14.275 121.1,14.175 121.1,14.075 C121.1,13.9645431 121.010457,13.875 120.9,13.875 L120.6,13.875 L120.6,14.275 L120.5,14.275 Z" id="Path" fill="#3F873F" fill-rule="nonzero"></path>
            </g>
        </g>
    </g>
</svg>