<?xml version="1.0" encoding="UTF-8"?>
<svg width="123px" height="33px" viewBox="0 0 123 33" version="1.1" xmlns="http://www.w3.org/2000/svg" xmlns:xlink="http://www.w3.org/1999/xlink">
    <!-- Generator: sketchtool 61.1 (101010) - https://sketch.com -->
    <title>5D2E7E13-16E8-440D-B735-8E5D2C841AB6</title>
    <desc>Created with sketchtool.</desc>
    <g id="Pages" stroke="none" stroke-width="1" fill="none" fill-rule="evenodd">
        <g id="Styles-&amp;-Components" transform="translate(-50.000000, -14710.000000)" fill="#9E9E9E" fill-rule="nonzero">
            <g id="Gray-Logos" transform="translate(49.000000, 14700.000000)">
                <g id="node-js-logo-gray" transform="translate(1.000000, 10.000000)">
                    <path d="M18.4,17.575 C18.4019433,17.2082677 18.2124031,16.8670954 17.9,16.675 L9.7,11.975 C9.55015823,11.8842151 9.37323274,11.84883 9.2,11.875 L9.1,11.875 C8.92717817,11.859436 8.75354169,11.8941633 8.6,11.975 L0.4,16.675 C0.150845384,16.9088482 0.00661878571,17.2333581 0,17.575 L0,30.275 C0.00299880921,30.4316556 0.0764748222,30.5786076 0.2,30.675 C0.351653471,30.775044 0.548346529,30.775044 0.7,30.675 L5.6,27.875 C5.91240308,27.6829046 6.10194327,27.3417323 6.1,26.975 L6.1,21.075 C6.09805673,20.7082677 6.28759692,20.3670954 6.6,20.175 L8.7,18.975 C8.85354169,18.8941633 9.02717817,18.859436 9.2,18.875 C9.37282183,18.859436 9.54645831,18.8941633 9.7,18.975 L11.8,20.175 C12.1124031,20.3670954 12.3019433,20.7082677 12.3,21.075 L12.3,26.975 C12.2980567,27.3417323 12.4875969,27.6829046 12.8,27.875 L17.7,30.675 C17.8516535,30.775044 18.0483465,30.775044 18.2,30.675 C18.3419372,30.5948687 18.4210573,30.4366286 18.4,30.275 L18.4,17.575 Z M62.2,0.075 C62.0483465,-0.0250439773 61.8516535,-0.0250439773 61.7,0.075 C61.5580628,0.155131331 61.4789427,0.31337142 61.5,0.475 L61.5,13.075 C61.5,13.175 61.4,13.275 61.3,13.375 C61.2644692,13.4220269 61.2089404,13.4496686 61.15,13.4496686 C61.0910596,13.4496686 61.0355308,13.4220269 61,13.375 L58.9,12.175 C58.5966931,11.974912 58.2033069,11.974912 57.9,12.175 L49.7,16.875 C49.3875969,17.0670954 49.1980567,17.4082677 49.1999852,17.775 L49.1999852,27.275 C49.1980567,27.6417323 49.3875969,27.9829046 49.7,28.175 L57.9,32.875 C58.2033069,33.075088 58.5966931,33.075088 58.9,32.875 L67.1,28.175 C67.4124031,27.9829046 67.6019433,27.6417323 67.6000148,27.275 L67.6000148,3.675 C67.6019433,3.30826774 67.4124031,2.9670954 67.1,2.775 L62.2,0.075 Z M61.5,24.175 C61.5,24.275 61.5,24.375 61.4,24.375 L58.6,25.975 L58.4,25.975 L55.6,24.375 C55.5,24.375 55.5,24.275 55.5,24.175 L55.5,20.875 C55.5,20.775 55.5,20.675 55.6,20.675 L58.4,19.075 L58.6,19.075 L61.4,20.675 C61.5,20.675 61.5,20.775 61.5,20.875 L61.5,24.175 Z M91.6,20.875 C91.9124031,20.6829046 92.1019433,20.3417323 92.1000148,19.975 L92.1000148,17.675 C92.1019433,17.3082677 91.9124031,16.9670954 91.6,16.775 L83.4,12.075 C83.0966931,11.874912 82.7033069,11.874912 82.4,12.075 L74.2,16.775 C73.8875969,16.9670954 73.6980567,17.3082677 73.6999852,17.675 L73.6999852,27.175 C73.6980567,27.5417323 73.8875969,27.8829046 74.2,28.075 L82.4,32.675 C82.7033069,32.875088 83.0966931,32.875088 83.4,32.675 L88.3,29.975 C88.459873,29.8993325 88.5721236,29.749665 88.6,29.575 C88.5970012,29.4183444 88.5235252,29.2713924 88.4,29.175 L80.1,24.475 C79.9580628,24.3948687 79.8789427,24.2366286 79.9,24.075 L79.9,21.075 C79.9029988,20.9183444 79.9764748,20.7713924 80.1,20.675 L82.7,19.175 C82.8516535,19.074956 83.0483465,19.074956 83.2,19.175 L85.8,20.675 C85.9419372,20.7551313 86.0210573,20.9133714 86,21.075 L86,23.375 C86.0029988,23.5316556 86.0764748,23.6786076 86.2,23.775 C86.3516535,23.875044 86.5483465,23.875044 86.7,23.775 L91.6,20.875 Z M33.3,12.075 C33.6033069,11.874912 33.9966931,11.874912 34.3,12.075 L42.5,16.775 C42.8124031,16.9670954 43.0019433,17.3082677 43.0000148,17.675 L43.0000148,27.175 C43.0019433,27.5417323 42.8124031,27.8829046 42.5,28.075 L34.3,32.775 C33.9966931,32.975088 33.6033069,32.975088 33.3,32.775 L25.1,28.075 C24.7875969,27.8829046 24.5980567,27.5417323 24.5999852,27.175 L24.5999852,17.675 C24.5980567,17.3082677 24.7875969,16.9670954 25.1,16.775 L33.3,12.075 Z M107.5,32.875 C107.221836,32.8682269 106.948626,32.7999243 106.7,32.675 L104.1,31.175 C103.7,30.975 103.9,30.875 104,30.875 C104.410023,30.7334892 104.810804,30.5664972 105.2,30.375 L105.4,30.375 L107.4,31.575 L107.6,31.575 L115.3,27.075 C115.4,27.075 115.4,26.975 115.4,26.875 L115.4,17.975 C115.4,17.875 115.4,17.775 115.3,17.775 L107.6,13.275 L107.4,13.275 L99.7,17.775 C99.6,17.775 99.6,17.875 99.6,17.975 L99.6,26.875 C99.6,26.975 99.6,27.075 99.7,27.075 L101.8,28.275 C103,28.875 103.7,28.175 103.7,27.475 L103.7,18.675 C103.707258,18.5676932 103.792693,18.4822584 103.9,18.475 L104.9,18.475 C105.007307,18.4822584 105.092742,18.5676932 105.1,18.675 L105.1,27.475 C105.182903,28.1155251 104.971255,28.7591344 104.524376,29.2254433 C104.077496,29.6917523 103.443472,29.9305836 102.8,29.875 C102.165084,29.8796734 101.541544,29.7064679 101,29.375 L99,28.175 C98.5004879,27.8866374 98.1948371,27.3517483 98.1999356,26.775 L98.1999356,17.875 C98.1948371,17.2982517 98.5004879,16.7633626 99,16.475 L106.7,11.975 C107.191164,11.6750636 107.808836,11.6750636 108.3,11.975 L116,16.475 C116.499512,16.7633626 116.805163,17.2982517 116.800064,17.875 L116.800064,26.775 C116.805163,27.3517483 116.499512,27.8866374 116,28.175 L108.3,32.675 C108.051374,32.7999243 107.778164,32.8682269 107.5,32.875 L107.5,32.875 Z" id="Shape"></path>
                    <path d="M109.9,26.675 C106.5,26.675 105.8,25.075 105.8,23.775 C105.807258,23.6676932 105.892693,23.5822584 106,23.575 L107,23.575 C107.107307,23.5822584 107.192742,23.6676932 107.2,23.775 C107.4,24.775 107.8,25.275 109.9,25.275 C111.5,25.275 112.2,24.875 112.2,24.075 C112.2,23.575 112,23.175 109.5,22.975 C107.4,22.775 106.1,22.275 106.1,20.575 C106.1,18.975 107.4,18.075 109.6,18.075 C112.1,18.075 113.3,18.975 113.5,20.775 C113.5,20.875 113.5,20.875 113.4,20.975 C113.346105,21.0293661 113.27583,21.0645037 113.2,21.075 L112.2,21.075 C112.092693,21.0677416 112.007258,20.9823068 112,20.875 C111.8,19.775 111.2,19.475 109.6,19.475 C107.8,19.475 107.6,20.075 107.6,20.575 C107.6,21.175 107.8,21.275 110.2,21.575 C112.6,21.875 113.7,22.375 113.7,23.975 C113.8,25.775 112.4,26.675 109.9,26.675 Z M82.8,20.375 L83,20.375 L84.6,21.275 C84.7,21.275 84.7,21.375 84.7,21.475 L84.7,23.275 C84.7,23.375 84.7,23.375 84.6,23.475 L83,24.375 L82.8,24.375 L81.2,23.475 C81.1,23.475 81.1,23.375 81.1,23.275 L81.1,21.475 C81.1,21.375 81.1,21.375 81.2,21.275 L82.8,20.375 Z M122.3,14.375 C122.3,15.2034271 121.628427,15.875 120.8,15.875 C119.971573,15.875 119.3,15.2034271 119.3,14.375 C119.3,13.5465729 119.971573,12.875 120.8,12.875 C121.200048,12.8675974 121.585895,13.0232544 121.86882,13.3061796 C122.151746,13.5891048 122.307403,13.9749518 122.3,14.375 L122.3,14.375 Z M119.5,14.375 C119.502311,15.0539718 120.023382,15.6184658 120.7,15.675 C121.412599,15.6621957 121.987196,15.0875991 122,14.375 C121.989665,14.0424617 121.846134,13.7280252 121.601666,13.5023621 C121.357197,13.2766991 121.032301,13.1587411 120.7,13.175 C120.377812,13.1615756 120.064725,13.2836874 119.836706,13.5117063 C119.608687,13.7397253 119.486576,14.0528121 119.5,14.375 L119.5,14.375 Z M120.2,13.475 L120.8,13.475 C121,13.475 121.4,13.475 121.4,13.875 C121.4,14.175 121.2,14.275 121.1,14.275 C121.3,14.275 121.3,14.475 121.4,14.675 C121.4,14.775 121.4,15.075 121.5,15.075 L121.1,15.075 C121.076515,14.906514 121.043124,14.7395581 121,14.575 C121,14.475 120.9,14.475 120.8,14.475 L120.5,14.475 L120.5,15.175 L120.2,15.175 L120.2,13.475 L120.2,13.475 Z M120.5,14.275 L120.8,14.275 C121,14.275 121.1,14.175 121.1,14.075 C121.1,13.9645431 121.010457,13.875 120.9,13.875 L120.6,13.875 L120.6,14.275 L120.5,14.275 Z" id="Shape"></path>
                </g>
            </g>
        </g>
    </g>
</svg>
